<?xml version="1.0" encoding="UTF-8" standalone="no"?><!DOCTYPE svg PUBLIC "-//W3C//DTD SVG 1.1//EN" "http://www.w3.org/Graphics/SVG/1.1/DTD/svg11.dtd"><svg width="100%" height="100%" viewBox="0 0 1157 1136" version="1.1" xmlns="http://www.w3.org/2000/svg" xmlns:xlink="http://www.w3.org/1999/xlink" xml:space="preserve" xmlns:serif="http://www.serif.com/" style="fill-rule:evenodd;clip-rule:evenodd;stroke-linejoin:round;stroke-miterlimit:1.41421;"><path d="M404.295,22.819c-123.598,11.551 -240.267,23.103 -257.593,26.568c-76.239,15.017 -145.547,103.962 -146.702,185.976c0,53.136 224.095,738.128 258.749,791.264c16.172,25.413 51.981,60.067 78.549,77.394c42.74,28.878 57.756,32.343 140.926,31.188c91.255,0 99.341,-2.31 351.159,-107.427c274.921,-115.513 306.11,-136.305 321.126,-216.009c18.483,-98.186 -1.155,-174.425 -116.668,-455.121c-121.288,-294.559 -127.064,-304.955 -175.579,-336.143c-41.585,-27.723 -144.392,-27.723 -453.967,2.31Zm183.666,360.401c41.585,115.513 80.859,226.405 90.1,246.042l13.862,36.964l117.823,-34.653c63.532,-18.483 121.289,-32.344 128.22,-30.034c16.171,5.776 66.997,135.15 56.601,140.926c-19.637,12.706 -420.467,157.098 -423.933,153.632c-11.551,-10.396 -249.508,-690.767 -244.887,-696.543c5.775,-4.621 112.047,-21.948 170.959,-26.568c12.706,-1.155 38.119,58.912 91.255,210.234Z" style="fill:#9bc93d;fill-rule:nonzero;"/></svg>