<?xml version="1.0" encoding="UTF-8"?>
<svg width="38px" height="36px" viewBox="0 0 38 36" version="1.1" xmlns="http://www.w3.org/2000/svg" xmlns:xlink="http://www.w3.org/1999/xlink">
    <!-- Generator: Sketch 51.3 (57544) - http://www.bohemiancoding.com/sketch -->
    <title>icon / workout - inaktiv</title>
    <desc>Created with Sketch.</desc>
    <defs>
        <polygon id="path-1" points="9.07277032e-05 0.0857665208 37.3346094 0.0857665208 37.3346094 34.729401 9.07277032e-05 34.729401"></polygon>
    </defs>
    <g id="Lanista" stroke="none" stroke-width="1" fill="none" fill-rule="evenodd">
        <g id="Icons" transform="translate(-365.000000, -362.000000)">
            <g id="workout" transform="translate(365.000000, 362.000000)">
                <g id="icon-/-workout---inaktiv">
                    <g transform="translate(0.625326, 0.383637)">
                        <g id="Group-3" transform="translate(0.000000, 0.417608)">
                            <mask id="mask-2" fill="white">
                                <use xlink:href="#path-1"></use>
                            </mask>
                            <g id="Clip-2"></g>
                            <path d="M5.18328761,20.3304907 C5.43746656,20.3304907 5.66194935,20.4578318 5.79633703,20.6526185 L5.79835033,20.6526185 C7.59874262,22.9377124 9.7524688,25.1004984 11.8291863,27.0720211 C13.8706711,29.0093177 15.8260874,30.7729673 17.3194516,32.2663315 C18.6728916,33.6197715 18.6779249,33.6026585 20.335373,31.9452104 C21.9304088,30.3496712 24.022226,28.5034764 26.1427328,26.4624949 C28.0176171,24.6580761 29.919681,22.7046731 31.5358565,20.6526185 L31.5373664,20.6526185 C31.6717541,20.4578318 31.8962369,20.3304907 32.1509192,20.3304907 C32.5621354,20.3304907 32.896343,20.6641949 32.896343,21.0754112 C32.896343,21.2384884 32.8439972,21.3889824 32.7549088,21.5117937 L32.761452,21.5117937 C31.0063589,23.754105 28.9900404,25.7915632 27.1765616,27.5365898 C25.2679546,29.3737247 23.2596892,31.1293211 21.3893348,32.9991722 C20.6267979,33.7622124 19.7646028,34.7638284 18.5878298,34.7285957 C17.5907436,34.6983962 16.9193085,33.9751187 16.2649865,33.3207967 C14.4978136,31.5531205 12.6173927,29.8755394 10.8029074,28.1531625 C8.8172916,26.2682116 6.55182734,24.0324435 4.61000083,21.5586029 L4.61302078,21.5560862 C4.50379933,21.4262285 4.4378638,21.2586214 4.4378638,21.0754112 C4.4378638,20.6641949 4.77156804,20.3304907 5.18328761,20.3304907 M18.6673551,3.96086302 C20.6449176,1.48702235 23.6834885,0.0857665208 26.8614804,0.0857665208 C30.9343835,0.0857665208 34.7445511,2.40105992 36.3874028,6.15988843 C37.6366546,9.01726248 37.5566259,11.8434304 36.6924175,14.535714 L36.6919142,14.535714 C36.6169188,14.8679082 36.319454,15.1165506 35.9646101,15.1165506 C35.5533938,15.1165506 35.2196896,14.7833497 35.2196896,14.3716301 C35.2196896,14.2885816 35.2332794,14.2080496 35.2584456,14.1330543 L35.2579423,14.1330543 C36.043632,11.7120627 36.1030244,9.23167879 35.0208763,6.75683147 C33.6920993,3.71574392 30.5392736,1.57661414 26.8614804,1.57661414 C23.7922067,1.57661414 21.0883466,3.06695844 19.5058939,5.32688613 C18.8888179,6.20921425 18.4297858,6.18052474 17.8172397,5.31027642 C16.2317671,3.05940857 13.5344502,1.57661414 10.4732297,1.57661414 C6.79543647,1.57661414 3.64261084,3.71574392 2.31333044,6.75683147 C1.22866581,9.23872533 1.29057474,11.7261558 2.08230442,14.1536906 C2.10294073,14.222646 2.11401387,14.2956281 2.11401387,14.3716301 C2.11401387,14.7833497 1.78081295,15.1165506 1.36959671,15.1165506 C1.01173288,15.1165506 0.712758041,14.8648883 0.640782615,14.5286674 C-0.222922489,11.8343706 -0.299931161,9.01172591 0.947307329,6.15988843 C2.590159,2.40156325 6.40032662,0.0857665208 10.4732297,0.0857665208 C13.6512216,0.0857665208 16.6887858,1.48702235 18.6673551,3.96086302" id="Fill-1" fill="#535353" mask="url(#mask-2)"></path>
                        </g>
                        <path d="M10.3487575,16.0775987 C10.5782736,15.3497913 11.0916647,14.5595716 11.9553698,14.5993342 C12.6544878,14.631547 13.1135198,15.2088604 13.3289428,15.80983 L14.3879379,18.6385146 L14.3904545,18.6460644 C14.4855828,18.9158464 14.7246621,18.9389994 14.7956308,18.691867 L16.9241908,10.5244178 C17.3414469,8.43008394 19.8535403,8.70087261 20.0100742,10.6603155 L20.741405,22.4114361 C20.7479482,22.5146177 20.8013006,22.885568 20.9588412,22.8976478 C21.0922222,22.9077143 21.1928872,22.7149409 21.2276166,22.6087394 L22.6691384,17.1909529 L22.6711517,17.183403 C22.8911045,16.4228794 23.4432517,15.7670474 24.2878305,15.7544643 C24.8646405,15.7464111 25.3825616,16.059479 25.7102259,16.5220344 L26.2563332,17.318294 C26.2981091,17.3786929 26.3544815,17.4511717 26.423437,17.4833845 C26.6152036,17.5729763 27.2770756,17.5402602 27.4965251,17.5402602 L36.0359312,17.5402602 C36.9001396,17.5402602 36.9102061,19.0129881 36.026368,19.0129881 L27.4965251,19.0129881 C26.4873592,19.0129881 25.6850597,19.0874801 25.0423141,18.1517996 L24.5082867,17.3731564 C24.2883338,17.0626051 24.1630059,17.3243339 24.0900239,17.5770029 L22.6429655,23.0159291 L22.6389389,23.0285122 C22.3983497,23.8162153 21.7017484,24.4317813 20.8460965,24.3658458 C19.8605868,24.2903471 19.3285727,23.4145622 19.2722003,22.5030412 L18.5771089,11.3307439 C18.5323131,10.6135063 18.4110118,10.6598122 18.2303183,11.3523869 L16.2185296,19.0713738 L16.216013,19.0789236 C15.7559743,20.6945958 13.5801018,20.7811676 13.0063117,19.1478791 L12.0364051,16.5567638 C11.903024,16.2014166 11.9010107,16.0453859 11.75102,16.527571 L11.7474967,16.5391474 L11.4444953,17.411409 C11.1092811,18.4160451 10.4620056,18.9938618 9.35871793,18.9948684 L1.85666398,18.9999017 C0.905380385,19.000405 0.848001375,17.527677 1.91504964,17.5271737 L9.35720795,17.5221405 C9.8031536,17.5221405 9.9133817,17.3474868 10.0472661,16.9453304 L10.3487575,16.0775987 Z" id="Fill-4" fill="#535353"></path>
                    </g>
                </g>
            </g>
        </g>
    </g>
</svg>