<?xml version="1.0" encoding="UTF-8"?>
<svg width="39px" height="44px" viewBox="0 0 39 44" version="1.1" xmlns="http://www.w3.org/2000/svg" xmlns:xlink="http://www.w3.org/1999/xlink">
    <!-- Generator: Sketch 51.3 (57544) - http://www.bohemiancoding.com/sketch -->
    <title>icon / geburtstage - inaktiv</title>
    <desc>Created with Sketch.</desc>
    <defs></defs>
    <g id="Lanista" stroke="none" stroke-width="1" fill="none" fill-rule="evenodd">
        <g id="Icons" transform="translate(-30.000000, -156.000000)" fill="#535353">
            <g id="geburtstage" transform="translate(30.000000, 156.000000)">
                <g id="icon-/-geburtstage---inaktiv">
                    <g transform="translate(0.000000, 0.764093)" id="Shape">
                        <path d="M36.9523099,12.8041277 L30.5641934,12.8041277 C32.5528288,10.7679198 33.9378784,8.06969207 33.3165548,5.32412987 C33.2334451,4.95646055 32.8659473,4.72582935 32.4960345,4.80816808 C32.1260384,4.89083782 31.8936145,5.25585906 31.9767241,5.62352839 C32.5902198,8.33499656 30.6957698,11.0201494 28.5459117,12.8040449 C25.122844,12.8040449 20.2504374,12.8036312 19.2191451,12.8036312 C17.3486786,10.9959857 20.2152116,3.55992948 24.0141881,1.83867763 C26.890048,0.535325875 29.8955689,2.2526056 31.1039064,3.80098749 C31.3364135,4.09897922 31.7677009,4.15268559 32.0673286,3.92205439 C32.3668731,3.69109218 32.421419,3.26251702 32.1890784,2.96477355 C29.9491988,0.0947516041 23.437667,-2.70832358 19.097895,4.98939604 C16.1333459,-0.269690373 11.8119779,-1.10706285 7.96836542,1.24468024 C3.91223208,3.72700676 3.51433845,8.58797093 7.63167979,12.8039622 L1.76420606,12.8039622 C0.832428785,12.8039622 0.0741990844,13.5572581 0.0741990844,14.483424 L0.0741990844,17.9466158 C0.0741990844,18.5895199 0.439615002,19.1485958 0.974414687,19.4309473 L0.974414687,21.9975986 C0.974414687,22.3745362 1.2817871,22.6798929 1.66102687,22.6798929 C2.04026663,22.6798929 2.34763904,22.3744535 2.34763904,21.9975986 L2.34763904,19.6269052 L15.6370198,19.6269052 L15.6370198,41.0047704 L3.51900192,41.0047704 C2.87319507,41.0047704 2.34763904,40.4825194 2.34763904,39.8407738 L2.34763904,23.878149 C2.34763904,23.5012941 2.04026663,23.1958547 1.66102687,23.1958547 C1.28170382,23.1958547 0.974414687,23.5012941 0.974414687,23.878149 L0.974414687,39.8408566 C0.974414687,41.2350706 2.11588141,42.3694417 3.51900192,42.3694417 L34.7889611,42.3694417 C36.1919983,42.3694417 37.3335483,41.2351533 37.3335483,39.8408566 L37.3335483,32.7328312 C37.3335483,32.3558936 37.0261759,32.0504542 36.6469361,32.0504542 C36.2676963,32.0504542 35.9603239,32.3559764 35.9603239,32.7328312 L35.9603239,39.8408566 C35.9603239,40.4826021 35.4347679,41.0048531 34.7889611,41.0048531 L22.5030583,41.0048531 L22.5030583,19.6269879 L35.9603239,19.6269879 L35.9603239,30.1248864 C35.9603239,30.5017413 36.2676963,30.8071807 36.6469361,30.8071807 C37.0262591,30.8071807 37.3335483,30.5017413 37.3335483,30.1248864 L37.3335483,19.3298237 C37.7756616,19.0264531 38.0663787,18.5199251 38.0663787,17.9467813 L38.0663787,13.910363 C38.0663787,13.3003944 37.5666383,12.8041277 36.9523099,12.8041277 Z M8.68837135,2.40669074 C11.0614929,0.954632755 12.9855893,1.2964833 14.1818517,1.83876039 C15.7786726,2.56226543 17.1767133,4.12794259 18.340498,6.49400186 C17.5443777,8.31397743 16.7872306,10.9797662 17.5882642,12.8036312 L15.7987422,12.8036312 C15.7955777,12.8036312 15.7924965,12.8040449 15.789332,12.8040449 L9.64987823,12.8040449 C5.32567884,9.21606235 4.90871496,4.71987117 8.68837135,2.40669074 Z M14.2060851,18.2238367 C14.1021564,18.2238367 1.67510054,18.2226781 1.6196386,18.2259055 C1.5178751,18.1732749 1.44742344,18.068593 1.44742344,17.9466986 L1.44742344,14.4835068 C1.44742344,14.309892 1.58949262,14.1686335 1.76420606,14.1686335 L14.208167,14.1686335 C14.1984237,14.2900314 14.2000892,18.1068247 14.2060851,18.2238367 Z M21.1299173,41.0048531 L17.0103275,41.0048531 L17.0103275,19.6269879 L21.1299173,19.6269879 L21.1299173,41.0048531 Z M22.5646827,18.1524213 C22.5646827,18.1673995 22.5401162,18.1985972 22.4949805,18.2239194 L15.6450976,18.2239194 C15.5454993,18.1679787 15.5753122,18.4699426 15.5753122,14.2777841 C15.5753122,14.2508895 15.6525092,14.1711161 15.7923299,14.1686335 C22.4991444,14.1686335 22.5645994,14.1258505 22.5645994,14.2777841 L22.5645994,18.1524213 L22.5646827,18.1524213 Z M36.6932377,17.9467813 C36.6932377,18.0671862 36.624285,18.1707096 36.5243536,18.2239194 L23.9339098,18.2239194 C23.935159,18.2000867 23.9378238,18.176585 23.9378238,18.1524213 C23.9378238,13.9087907 23.9404054,14.2765428 23.9319112,14.1687163 L36.6931544,14.1687163 L36.6931544,17.9467813 L36.6932377,17.9467813 Z" fill-rule="nonzero"></path>
                        <path d="M25.3428597,4.73559414 C23.2654518,5.67764852 21.8597498,9.73599626 21.2527496,11.9291028 C21.1324155,12.3636362 21.4622725,12.7923768 21.9147953,12.7923768 C22.1957692,12.7923768 24.2405327,12.0530661 26.0120671,10.7295227 C27.5585059,9.57421514 28.6162801,8.21103333 28.8416255,7.08295135 C29.0207525,6.19278279 28.6262732,5.60606761 27.8279044,5.11832442 C27.0333663,4.63207077 26.1950249,4.35021579 25.3428597,4.73559414 Z M27.4947997,6.8172331 C27.2802802,7.89094669 25.6217516,9.7207698 22.9833121,10.9461687 C23.4314213,9.5910139 24.6097794,6.56773433 25.9125521,5.9772953 C25.9862515,5.94394604 26.0443783,5.9177135 26.1534701,5.9177135 C26.2886273,5.9177135 26.5925022,5.96471692 27.1084814,6.28058318 C27.54768,6.54886676 27.5313579,6.6332743 27.4947997,6.8172331 Z" fill-rule="nonzero"></path>
                        <path d="M12.1836396,10.7295227 C13.3193602,11.577984 14.6592741,12.2786494 16.0582308,12.7554692 C16.1311807,12.7803777 16.2062126,12.7923768 16.2809946,12.7923768 C16.7326847,12.7923768 17.063541,12.3643809 16.9431236,11.9291028 C16.2787461,9.52952879 14.5387735,4.55304214 12.0424864,4.55304214 C11.5370832,4.55304214 10.989459,4.73791121 10.3683019,5.11799341 C9.25781393,5.79639835 9.24299077,6.52412377 9.35416448,7.08295135 C9.57942657,8.21103333 10.637284,9.57429789 12.1836396,10.7295227 Z M11.0878915,6.28016942 C11.6035376,5.96471692 11.9072459,5.9177135 12.0424031,5.9177135 C12.1514949,5.9177135 12.2096217,5.94394604 12.2830713,5.97712979 C13.5867601,6.56839635 14.7649516,9.5929172 15.2124778,10.9461687 C12.5772861,9.72242485 10.9158429,7.89260174 10.7010736,6.81789512 C10.6643488,6.63343981 10.6476935,6.54919777 11.0878915,6.28016942 Z" fill-rule="nonzero"></path>
                    </g>
                </g>
            </g>
        </g>
    </g>
</svg>