<?xml version="1.0" encoding="UTF-8" standalone="no"?><!DOCTYPE svg PUBLIC "-//W3C//DTD SVG 1.1//EN" "http://www.w3.org/Graphics/SVG/1.1/DTD/svg11.dtd"><svg width="100%" height="100%" viewBox="0 0 41 46" version="1.1" xmlns="http://www.w3.org/2000/svg" xmlns:xlink="http://www.w3.org/1999/xlink" xml:space="preserve" xmlns:serif="http://www.serif.com/" style="fill-rule:evenodd;clip-rule:evenodd;stroke-linejoin:round;stroke-miterlimit:1.41421;"><g id="icon---kalender---aktiv" serif:id="icon-/-kalender---aktiv"><path id="Shape" d="M38.475,5.252l-2.523,0l0,3.713c0,0.783 -0.555,1.419 -1.24,1.419c-0.685,0 -1.241,-0.636 -1.241,-1.419l0,-3.713l-2.543,0l0,3.713c0,0.783 -0.555,1.419 -1.24,1.419c-0.685,0 -1.241,-0.636 -1.241,-1.419l0,-3.713l-16.67,0l0,3.713c0,0.783 -0.555,1.419 -1.24,1.419c-0.686,0 -1.241,-0.636 -1.241,-1.419l0,-3.713l-2.543,0l0,3.713c0,0.783 -0.555,1.419 -1.241,1.419c-0.685,0 -1.24,-0.636 -1.24,-1.419l0,-3.713l-2.523,0c-0.558,0 -1.011,0.518 -1.011,1.156l0,36.892c0,0.638 0.453,1.156 1.011,1.156l36.726,0c0.558,0 1.011,-0.517 1.011,-1.156l0,-36.892c0,-0.638 -0.453,-1.156 -1.011,-1.156Z" style="fill:#ecf1f8;fill-rule:nonzero;"/><path id="Shape1" serif:id="Shape" d="M38.475,5.252l-2.523,0l0,3.245c0,0.685 -0.555,1.24 -1.24,1.24c-0.685,0 -1.241,-0.555 -1.241,-1.24l0,-3.245l-2.543,0l0,3.245c0,0.685 -0.555,1.24 -1.24,1.24c-0.685,0 -1.241,-0.555 -1.241,-1.24l0,-3.245l-8.006,0c-2.203,12.504 6.738,23.986 19.045,25.233l0,-24.222c0,-0.559 -0.453,-1.011 -1.011,-1.011Z" style="fill:#f2f7fc;fill-rule:nonzero;"/><path id="Shape2" serif:id="Shape" d="M39.486,6.263l0,6.356l-38.748,0c0,-6.944 -0.041,-6.46 0.08,-6.751l0,-0.001c0.093,-0.214 0.236,-0.367 0.428,-0.481c0.34,-0.195 0.416,-0.134 3.026,-0.134l0,3.245c0,0.684 0.555,1.24 1.241,1.24c0.685,0 1.241,-0.556 1.241,-1.24l0,-3.245l2.542,0l0,3.245c0,0.684 0.556,1.24 1.241,1.24c0.685,0 1.24,-0.556 1.24,-1.24l0,-3.245l16.67,0l0,3.245c0,0.684 0.555,1.24 1.241,1.24c0.685,0 1.241,-0.556 1.241,-1.24l0,-3.245l2.542,0l0,3.245c0,0.684 0.556,1.24 1.241,1.24c0.685,0 1.24,-0.556 1.24,-1.24l0,-3.245l2.523,0c0.559,0 1.011,0.452 1.011,1.011Z" style="fill:#9bc93d;fill-rule:nonzero;"/><path id="Shape3" serif:id="Shape" d="M39.486,6.263l0,6.356l-19.074,0c-0.409,-2.429 -0.4,-4.936 0.029,-7.367l8.006,0l0,3.245c0,0.684 0.555,1.24 1.241,1.24c0.685,0 1.241,-0.556 1.241,-1.24l0,-3.245l2.542,0l0,3.245c0,0.684 0.556,1.24 1.241,1.24c0.685,0 1.24,-0.556 1.24,-1.24l0,-3.245l2.523,0c0.559,0 1.011,0.452 1.011,1.011Z" style="fill:#fff;fill-opacity:0.3;fill-rule:nonzero;"/><path id="Shape4" serif:id="Shape" d="M3.715,5.252c-0.357,0.156 -0.607,0.512 -0.607,0.926l0,6.441l-2.37,0c0,-6.944 -0.041,-6.46 0.08,-6.751l0,-0.001c0.093,-0.214 0.236,-0.367 0.428,-0.481c0.334,-0.191 0.475,-0.134 2.469,-0.134Z" style="fill:#627f25;fill-rule:nonzero;"/><path id="Shape5" serif:id="Shape" d="M6.753,8.497c0,0.685 -0.555,1.24 -1.241,1.24c-0.685,0 -1.24,-0.555 -1.24,-1.24l0,-6.49c0,-0.684 0.554,-1.24 1.24,-1.24c0.686,0 1.241,0.555 1.241,1.24l0,6.49Z" style="fill:#ffca54;fill-rule:nonzero;"/><path id="Shape6" serif:id="Shape" d="M11.777,8.497c0,0.685 -0.555,1.24 -1.24,1.24c-0.686,0 -1.241,-0.555 -1.241,-1.24l0,-6.49c0,-0.685 0.556,-1.24 1.241,-1.24c0.685,0 1.24,0.555 1.24,1.24l0,6.49Z" style="fill:#ffca54;fill-rule:nonzero;"/><path id="Shape7" serif:id="Shape" d="M30.928,8.497c0,0.685 -0.555,1.24 -1.24,1.24c-0.686,0 -1.241,-0.555 -1.241,-1.24l0,-6.49c0,-0.684 0.555,-1.24 1.241,-1.24c0.685,0 1.24,0.555 1.24,1.24l0,6.49Z" style="fill:#ffca54;fill-rule:nonzero;"/><path id="Shape8" serif:id="Shape" d="M35.952,8.497c0,0.685 -0.555,1.24 -1.24,1.24c-0.685,0 -1.241,-0.555 -1.241,-1.24l0,-6.49c0,-0.685 0.556,-1.24 1.241,-1.24c0.685,0 1.24,0.555 1.24,1.24l0,6.49Z" style="fill:#ffca54;fill-rule:nonzero;"/><path id="Shape9" serif:id="Shape" d="M5.563,8.497l0,-6.49c0,-0.448 0.239,-0.84 0.595,-1.058c-0.827,-0.505 -1.886,0.092 -1.886,1.058l0,6.489c0,0.686 0.555,1.241 1.24,1.241c0.237,0 0.458,-0.067 0.646,-0.183c-0.356,-0.218 -0.595,-0.609 -0.595,-1.057Z" style="fill:#f99830;fill-rule:nonzero;"/><path id="Shape10" serif:id="Shape" d="M10.587,8.497l0,-6.49c0,-0.448 0.239,-0.84 0.595,-1.058c-0.188,-0.115 -0.409,-0.182 -0.645,-0.182c-0.686,0 -1.241,0.555 -1.241,1.24l0,6.489c0,0.966 1.06,1.564 1.886,1.058c-0.356,-0.218 -0.595,-0.609 -0.595,-1.057Z" style="fill:#f99830;fill-rule:nonzero;"/><path id="Shape11" serif:id="Shape" d="M29.739,8.497l0,-6.49c0,-0.448 0.238,-0.84 0.594,-1.058c-0.826,-0.505 -1.886,0.092 -1.886,1.058l0,6.489c0,0.686 0.556,1.241 1.241,1.241c0.237,0 0.457,-0.067 0.645,-0.183c-0.356,-0.218 -0.594,-0.609 -0.594,-1.057Z" style="fill:#f99830;fill-rule:nonzero;"/><path id="Shape12" serif:id="Shape" d="M34.763,8.497l0,-6.49c0,-0.448 0.238,-0.84 0.595,-1.058c-0.189,-0.115 -0.409,-0.182 -0.646,-0.182c-0.685,0 -1.241,0.555 -1.241,1.24l0,6.489c0,0.686 0.556,1.241 1.241,1.241c0.237,0 0.457,-0.067 0.646,-0.183c-0.357,-0.218 -0.595,-0.609 -0.595,-1.057Z" style="fill:#f99830;fill-rule:nonzero;"/><path id="Shape13" serif:id="Shape" d="M30.883,43.835l-28.93,0c-0.208,0 -0.378,-0.169 -0.378,-0.378l0,-9.857c0,-0.348 -0.282,-0.63 -0.63,-0.63c-0.348,0 -0.63,0.282 -0.63,0.63l0,9.857c0,0.904 0.735,1.638 1.638,1.638l28.929,0c0.349,0 0.631,-0.282 0.631,-0.63c0,-0.348 -0.282,-0.63 -0.63,-0.63Z" style="fill:#535353;fill-rule:nonzero;"/><path id="Shape14" serif:id="Shape" d="M38.588,4.658l-1.886,0l0,-2.606c0,-1.03 -0.838,-1.868 -1.868,-1.868c-1.03,0 -1.868,0.838 -1.868,1.868l0,2.606l-1.276,0l0,-2.606c0,-1.03 -0.838,-1.868 -1.868,-1.868c-1.03,0 -1.868,0.838 -1.868,1.868l0,2.606l-2.057,0c-0.348,0 -0.63,0.282 -0.63,0.63c0,0.349 0.282,0.631 0.63,0.631l2.057,0c0,2.784 -0.088,3.064 0.335,3.671c1.043,1.496 3.401,0.758 3.401,-1.065l0,-2.606l1.276,0l0,2.606c0,1.535 1.759,2.413 2.984,1.496c0.456,-0.341 0.751,-0.885 0.751,-1.496l0,-2.606l1.887,0c0.208,0 0.378,0.169 0.378,0.378l0,5.71l-37.391,0l0,-5.71c0,-0.209 0.17,-0.378 0.378,-0.378l1.887,0c0,2.769 -0.089,3.046 0.319,3.65c1.031,1.524 3.416,0.788 3.416,-1.044l0,-2.606l1.276,0l0,2.606c0,1.03 0.838,1.868 1.868,1.868c1.03,0 1.867,-0.838 1.867,-1.868l0,-2.606l10.623,0c0.348,0 0.63,-0.282 0.63,-0.631c0,-0.348 -0.282,-0.63 -0.63,-0.63l-10.623,0l0,-2.606c0,-1.03 -0.837,-1.868 -1.867,-1.868c-1.03,0 -1.868,0.838 -1.868,1.868l0,2.606l-1.276,0l0,-2.606c0,-1.03 -0.838,-1.868 -1.868,-1.868c-1.03,0 -1.867,0.838 -1.867,1.868l0,2.606c-2,0 -2.223,-0.056 -2.702,0.217c-0.268,0.151 -0.495,0.393 -0.629,0.647c-0.286,0.539 -0.194,-1.198 -0.194,24.109c0,0.348 0.282,0.63 0.63,0.63c0.348,0 0.63,-0.282 0.63,-0.63l0,-16.364l37.391,0l0,30.19c0,0.209 -0.17,0.378 -0.378,0.378l-4.456,0c-0.348,0 -0.63,0.282 -0.63,0.63c0,0.349 0.282,0.631 0.63,0.631l4.456,0c0.903,0 1.638,-0.735 1.638,-1.639c0,-0.874 0,-36.375 0,-37.16c0,-0.904 -0.735,-1.639 -1.638,-1.639Zm-8.766,-3.213c0.335,0 0.607,0.272 0.607,0.607l0,6.473c0,0.513 -0.599,0.794 -0.993,0.469c-0.135,-0.112 -0.221,-0.281 -0.221,-0.469c0,-1.292 0,-5.185 0,-6.473c0,-0.335 0.272,-0.607 0.607,-0.607Zm4.405,0.607c0,-0.335 0.272,-0.607 0.607,-0.607c0.335,0 0.607,0.272 0.607,0.607c0,7.015 0.067,6.657 -0.178,6.902c-0.381,0.382 -1.036,0.111 -1.036,-0.429c0,-0.789 0,-5.684 0,-6.473Zm-24.115,0c0,-0.335 0.272,-0.607 0.607,-0.607c0.335,0 0.607,0.272 0.607,0.607l0,6.473c0,0.335 -0.272,0.607 -0.607,0.607c-0.335,0 -0.607,-0.272 -0.607,-0.607c0,-0.789 0,-5.684 0,-6.473Zm-4.405,-0.607c0.335,0 0.608,0.272 0.608,0.607l0,6.473c0,0.335 -0.273,0.607 -0.608,0.607c-0.335,0 -0.607,-0.272 -0.607,-0.607c0,-0.525 0,-5.292 0,-6.473c0,-0.335 0.272,-0.607 0.607,-0.607Z" style="fill:#535353;fill-rule:nonzero;"/><g id="Group-2"><path d="M9.577,17.002c0.752,0.057 1.364,0.668 1.421,1.421c0.053,2.073 0.316,4.443 -1.421,4.575c-2.073,0.053 -4.443,0.316 -4.575,-1.421c-0.053,-2.073 -0.316,-4.443 1.421,-4.575c1.051,-0.027 2.103,-0.027 3.154,0Zm-3.071,0.998c-0.817,0.021 -0.543,2.019 -0.505,3.526c0.06,0.795 2.034,0.511 3.525,0.473c0.777,-0.059 0.511,-2.034 0.473,-3.525c-0.06,-0.792 -2.015,-0.474 -3.493,-0.474Z" style="fill:#535353;fill-rule:nonzero;"/><path d="M9.577,25.164c0.752,0.057 1.364,0.668 1.421,1.421c0.053,2.073 0.316,4.443 -1.421,4.575c-2.073,0.052 -4.443,0.315 -4.575,-1.422c-0.053,-2.072 -0.316,-4.442 1.421,-4.574c1.051,-0.027 2.103,-0.027 3.154,0Zm-3.071,0.998c-0.817,0.02 -0.543,2.019 -0.505,3.526c0.06,0.795 2.034,0.511 3.525,0.473c0.777,-0.059 0.511,-2.034 0.473,-3.525c-0.06,-0.793 -2.015,-0.474 -3.493,-0.474Z" style="fill:#535353;fill-rule:nonzero;"/><path d="M9.577,33.325c0.75,0.057 1.364,0.665 1.421,1.422c0.053,2.072 0.316,4.442 -1.421,4.575c-2.073,0.052 -4.443,0.315 -4.575,-1.422c-0.053,-2.073 -0.316,-4.442 1.421,-4.575c1.051,-0.026 2.103,-0.026 3.154,0Zm-3.071,0.998c-0.816,0.021 -0.543,2.02 -0.505,3.527c0.059,0.776 2.034,0.51 3.525,0.473c0.795,-0.061 0.511,-2.034 0.473,-3.526c-0.059,-0.776 -2.017,-0.474 -3.493,-0.474Z" style="fill:#535353;fill-rule:nonzero;"/><path d="M17.967,17.002c0.75,0.057 1.364,0.664 1.421,1.421c0.053,2.073 0.316,4.443 -1.421,4.575c-2.073,0.053 -4.443,0.316 -4.575,-1.421c-0.053,-2.073 -0.316,-4.443 1.421,-4.575c1.051,-0.027 2.103,-0.027 3.154,0Zm-3.071,0.998c-0.816,0.021 -0.543,2.019 -0.505,3.526c0.06,0.795 2.034,0.511 3.525,0.473c0.777,-0.059 0.511,-2.034 0.473,-3.525c-0.06,-0.792 -2.015,-0.474 -3.493,-0.474Z" style="fill:#535353;fill-rule:nonzero;"/><path d="M17.967,25.164c0.75,0.057 1.364,0.664 1.421,1.421c0.053,2.073 0.316,4.443 -1.421,4.575c-2.073,0.052 -4.443,0.315 -4.575,-1.422c-0.053,-2.072 -0.316,-4.442 1.421,-4.574c1.051,-0.027 2.103,-0.027 3.154,0Zm-3.071,0.998c-0.816,0.02 -0.543,2.019 -0.505,3.526c0.06,0.795 2.034,0.511 3.525,0.473c0.777,-0.059 0.511,-2.034 0.473,-3.525c-0.06,-0.793 -2.015,-0.474 -3.493,-0.474Z" style="fill:#535353;fill-rule:nonzero;"/><path id="Rectangle-4-Copy-9" d="M18.89,34.823c0,-0.551 -0.448,-1 -1,-1l-3,0c-0.552,0 -1,0.449 -1,1l0,3c0,0.552 0.448,1 1,1l3,0c0.552,0 1,-0.448 1,-1l0,-3Z" style="fill:#ff0035;"/><path d="M17.967,33.325c0.75,0.057 1.364,0.665 1.421,1.422c0.053,2.072 0.316,4.442 -1.421,4.575c-2.073,0.052 -4.443,0.315 -4.575,-1.422c-0.053,-2.073 -0.316,-4.442 1.421,-4.575c1.051,-0.026 2.103,-0.026 3.154,0Zm-3.071,0.998c-0.816,0.021 -0.543,2.02 -0.505,3.527c0.059,0.776 2.034,0.51 3.525,0.473c0.795,-0.061 0.511,-2.034 0.473,-3.526c-0.059,-0.776 -2.017,-0.474 -3.493,-0.474Z" style="fill:#535353;fill-rule:nonzero;"/><path d="M26.357,17.002c0.752,0.057 1.364,0.668 1.421,1.421c0.053,2.073 0.316,4.443 -1.421,4.575c-2.073,0.053 -4.443,0.316 -4.575,-1.421c-0.053,-2.073 -0.316,-4.443 1.421,-4.575c1.051,-0.027 2.103,-0.027 3.154,0Zm-3.071,0.998c-0.816,0.021 -0.543,2.019 -0.505,3.526c0.06,0.795 2.034,0.511 3.525,0.473c0.777,-0.059 0.511,-2.034 0.473,-3.525c-0.06,-0.792 -2.015,-0.474 -3.493,-0.474Z" style="fill:#535353;fill-rule:nonzero;"/><path d="M26.357,25.164c0.752,0.057 1.364,0.668 1.421,1.421c0.053,2.073 0.316,4.443 -1.421,4.575c-2.073,0.052 -4.443,0.315 -4.575,-1.422c-0.053,-2.072 -0.316,-4.442 1.421,-4.574c1.051,-0.027 2.103,-0.027 3.154,0Zm-3.071,0.998c-0.816,0.02 -0.543,2.019 -0.505,3.526c0.06,0.795 2.034,0.511 3.525,0.473c0.777,-0.059 0.511,-2.034 0.473,-3.525c-0.06,-0.793 -2.015,-0.474 -3.493,-0.474Z" style="fill:#535353;fill-rule:nonzero;"/><path d="M34.747,17.002c0.752,0.057 1.364,0.668 1.421,1.421c0.053,2.073 0.316,4.443 -1.421,4.575c-2.073,0.053 -4.443,0.316 -4.575,-1.421c-0.053,-2.073 -0.316,-4.443 1.421,-4.575c1.051,-0.027 2.103,-0.027 3.154,0Zm-3.071,0.998c-0.816,0.021 -0.543,2.019 -0.505,3.526c0.06,0.795 2.034,0.511 3.525,0.473c0.777,-0.059 0.511,-2.034 0.473,-3.525c-0.06,-0.792 -2.015,-0.474 -3.493,-0.474Z" style="fill:#535353;fill-rule:nonzero;"/><path d="M34.747,25.164c0.752,0.057 1.364,0.668 1.421,1.421c0.053,2.073 0.316,4.443 -1.421,4.575c-2.073,0.052 -4.443,0.315 -4.575,-1.422c-0.053,-2.072 -0.316,-4.442 1.421,-4.574c1.051,-0.027 2.103,-0.027 3.154,0Zm-3.071,0.998c-0.816,0.02 -0.543,2.019 -0.505,3.526c0.06,0.795 2.034,0.511 3.525,0.473c0.777,-0.059 0.511,-2.034 0.473,-3.525c-0.06,-0.793 -2.015,-0.474 -3.493,-0.474Z" style="fill:#535353;fill-rule:nonzero;"/></g></g></svg>