<?xml version="1.0" encoding="UTF-8" standalone="no"?>
<!DOCTYPE svg PUBLIC "-//W3C//DTD SVG 1.1//EN" "http://www.w3.org/Graphics/SVG/1.1/DTD/svg11.dtd">
<svg width="100%" height="100%" viewBox="0 0 512 512" version="1.1" xmlns="http://www.w3.org/2000/svg" xmlns:xlink="http://www.w3.org/1999/xlink" xml:space="preserve" xmlns:serif="http://www.serif.com/" style="fill-rule:evenodd;clip-rule:evenodd;stroke-linejoin:round;stroke-miterlimit:1.41421;">
    <g>
        <g transform="matrix(1.26532,0,0,1.26532,-68.0775,-68.0768)">
            <path d="M347.603,381.832C348.337,382.904 349.076,384.036 349.099,385.309C349.127,386.843 348.381,388.183 348.37,388.21C345.719,394.874 343.447,401.771 343.763,408.837C344.515,425.637 357.442,441.154 374.303,444.713C376.265,445.127 377.782,445.6 377.782,445.6L386.618,445.6C388.75,444.751 388.347,445.063 389.867,444.77C411.047,440.532 426.344,416.754 418.686,394.648L417.185,391.023L416.8,389.11L417.177,387.196L418.257,385.572L419.877,384.485L421.79,384.1L423.704,384.477L425.328,385.557C427.306,388.504 426.971,387.376 428.768,393.317C436.509,418.917 419.265,449.919 390.505,454.818C389.846,455.064 388.912,455.396 388.912,455.396L387.5,455.6L376.9,455.6L375.488,455.396C372.933,454.644 371.858,454.434 370.563,454.113C350.008,449.021 333.95,429.211 333.728,407.65C333.667,401.785 334.742,395.923 336.752,390.408C336.752,390.408 255.514,390.4 255.514,390.4C263.748,413.318 252.499,442.287 227.994,451.982C224.51,453.36 220.848,454.259 217.294,455.371L215.8,455.6L204.4,455.6L202.988,455.396C200.568,454.684 199.587,454.474 198.396,454.183C174.653,448.384 157.079,422.863 162.596,397.29C163.27,394.164 164.295,391.131 165.354,388.118C165.354,388.118 162.07,387.169 159.674,386.198C149.349,382.014 140.654,374.027 135.317,364.306L134.73,362.446L134.899,360.502L135.8,358.772L137.294,357.517L139.154,356.93L141.098,357.099L142.828,358L144.083,359.494C149.294,368.986 158.397,376.107 168.999,378.721C170.613,379.05 172.908,379.603 172.908,379.603L174.824,380.444L176.228,381.995L176.873,383.986C176.231,389.928 172.914,395.384 171.961,401.656C169.089,420.565 182.445,440.616 201.966,444.741C204.027,445.177 205.282,445.6 205.282,445.6L215.041,445.6C218.347,444.581 221.731,443.774 224.918,442.437C243.564,434.615 253.707,411.006 245.15,391.395C244.423,389.729 243.353,387.48 243.353,387.48L242.902,385.545L243.24,383.588L244.313,381.916L245.953,380.795L247.9,380.4L344.1,380.4L345.992,380.772C346.529,381.125 347.066,381.479 347.603,381.832ZM380.411,358.301C392.685,358.393 404.892,362.346 414.108,370.374L414.307,370.55C415.483,372.091 415.494,372.114 415.99,373.987L415.73,375.921L414.75,377.607L413.199,378.791L411.313,379.29L409.379,379.03C406.69,377.467 404.351,375.251 401.592,373.672C395.115,369.965 387.565,368.319 380.094,368.3L299.1,368.3C297.199,367.922 297.175,367.912 295.564,366.836L294.481,365.213L294.1,363.3L294.481,361.387L295.564,359.764L297.187,358.681L299.1,358.3C326.204,358.3 353.307,358.231 380.411,358.301ZM284.613,358.681L286.236,359.764L287.319,361.387L287.7,363.3L287.319,365.213L286.236,366.836L284.613,367.919C281.355,368.568 279.693,367.924 278.064,366.836L276.981,365.213L276.6,363.3L276.981,361.387L278.064,359.764L279.687,358.681C281.181,358.383 281.176,358.3 282.7,358.3C283.338,358.427 283.976,358.554 284.613,358.681ZM158.109,307.414C158.748,307.729 159.241,307.798 160.873,308.591C161.142,308.72 161.141,308.719 161.411,308.846C166.788,311.318 172.666,312.579 178.609,312.6L245.6,312.6C246.238,312.727 246.913,312.732 247.513,312.981C249.169,313.666 249.282,314.283 250.219,315.687L250.6,317.6L250.219,319.513L249.136,321.136C247.524,322.212 247.5,322.222 245.6,322.6L178.591,322.6C172.517,322.579 166.477,321.545 160.817,319.428C160.662,327.679 160.146,336.125 161.153,344.165C162.15,352.116 170.018,357.883 178.694,358.16C179.963,358.201 181.232,358.2 182.501,358.2L265.6,358.2C267.501,358.578 267.525,358.588 269.136,359.664L270.219,361.287L270.6,363.2L270.219,365.113L269.136,366.736L267.513,367.819L265.6,368.2C237.45,368.2 209.3,368.257 181.149,368.198C171.167,368.154 161.084,364.518 155.596,356.728C151.522,350.946 150.863,343.604 150.69,336.119C150.512,328.382 150.862,320.666 150.898,312.902L150.9,311.895L151.307,309.923L152.459,308.272L154.17,307.209L156.16,306.907C156.81,307.076 157.459,307.245 158.109,307.414ZM136.113,205.081C136.654,205.442 137.276,205.705 137.736,206.165C139.003,207.431 138.871,208.045 139.2,209.7C139.199,252.63 139.194,295.567 139.1,338.505L139.1,340.7L138.719,342.613L137.636,344.236C136.025,345.312 136.001,345.322 134.1,345.7L132.187,345.319L130.564,344.236L129.481,342.613C129.076,340.578 129.1,340.57 129.1,338.495C129.194,295.574 129.199,252.633 129.2,209.7L129.581,207.787C129.942,207.246 130.205,206.624 130.665,206.164C131.931,204.897 132.545,205.029 134.2,204.7C134.838,204.827 135.476,204.954 136.113,205.081ZM352.012,157.136C377.266,160.682 402.517,164.066 427.849,167.57C428.968,167.736 429.224,167.806 429.881,167.976C436.652,169.732 441.596,176.208 441.699,183.51C441.849,213.898 441.936,243.923 441.596,274.159C441.171,298.883 420.793,321.122 395.258,322.522C391.898,322.706 388.417,322.609 384.968,322.618C347.737,322.695 310.568,322.699 273.4,322.7L271.487,322.319C269.875,321.243 269.857,321.224 268.781,319.613L268.4,317.7L268.781,315.787L269.864,314.165L271.487,313.081L273.4,312.7C313.132,312.699 352.892,312.721 392.659,312.599C412.562,312.418 431.22,295.982 431.597,274.017C431.934,244.002 432.129,213.848 431.698,183.511C431.631,180.69 429.593,177.938 426.431,177.469C401.298,173.992 375.964,170.598 350.613,167.037L349.297,166.85C347.469,166.209 347.446,166.196 346.002,164.903L345.157,163.145C345.05,161.21 345.054,161.185 345.696,159.356L346.997,157.902L348.755,157.057L350.703,156.95C351.139,157.012 351.575,157.074 352.012,157.136ZM93.433,81.589C106.285,86.977 119.129,92.48 132.029,97.787C132.947,98.177 133.055,98.242 133.51,98.483C137.032,100.352 139.138,104.164 139.199,108.298C139.331,135.877 139.1,163.498 139.1,191.1L138.719,193.014C137.643,194.625 137.624,194.643 136.013,195.719L134.1,196.1C133.462,195.973 132.787,195.968 132.187,195.719C130.531,195.034 130.418,194.417 129.481,193.013L129.1,191.1C129.1,163.501 129.33,135.804 129.199,108.395C129.198,108.273 129.194,108.15 129.188,108.028C129.116,106.819 128.266,107.053 128.266,107.053C116.175,101.916 104.07,96.905 91.982,91.824L89.567,90.811L87.949,89.72C86.88,88.104 86.87,88.08 86.5,86.179L86.889,84.267C87.833,82.867 87.948,82.251 89.606,81.572C90.798,81.085 92.146,81.327 93.433,81.589ZM331.84,154.004C332.321,154.029 333.28,154.131 332.725,154.102C332.725,154.102 334.604,154.519 334.604,154.519C336.193,155.627 336.211,155.646 337.256,157.278L337.599,159.198C337.184,161.091 337.173,161.115 336.065,162.704L334.422,163.756L332.36,164.096C331.879,164.071 330.92,163.969 331.475,163.999C331.475,163.999 329.596,163.581 329.596,163.581C328.007,162.473 327.989,162.454 326.944,160.822L326.601,158.902C327.016,157.009 327.027,156.985 328.135,155.396L329.778,154.344L331.698,154.001C331.746,154.002 331.793,154.003 331.84,154.004ZM218.615,138.666C250.291,143.008 282.115,147.205 313.54,151.791C314.78,151.972 315.985,152.288 317.163,152.707L318.611,154.015L319.448,155.777L319.547,157.725L318.893,159.563L317.585,161.011C316.998,161.29 316.454,161.689 315.823,161.848C312.86,162.596 309.914,161.368 306.755,160.917C276.906,156.688 247.102,152.664 217.26,148.574L212.723,147.954L210.879,147.318L209.418,146.024L208.564,144.271L208.446,142.323L209.082,140.479L210.376,139.018L212.129,138.164L214.077,138.046C215.59,138.253 217.102,138.459 218.615,138.666ZM90.662,56.801C109.791,64.963 128.842,73.264 148.12,81.183C152.664,83.097 157.223,85.639 159.181,90.268C160.45,93.269 160.591,96.61 160.6,99.793L160.6,130.536C170.143,131.852 179.672,133.222 189.19,134.548L191.032,135.189L192.489,136.486L193.339,138.242L193.452,140.19L192.811,142.032L191.514,143.489L189.758,144.339L187.81,144.452C176.85,142.926 165.899,141.344 154.927,139.855L153.23,139.302C152.017,138.335 151.492,138.183 150.919,136.657C150.71,136.099 150.706,135.486 150.6,134.9C150.6,123.08 150.633,111.26 150.599,99.44C150.57,96.263 150.355,93.32 146.651,91.484C137.368,86.882 127.148,83.278 117.25,79.047C108.777,75.423 100.305,71.795 91.831,68.173L89.286,67.086L87.678,66.4L84.669,66.4C81.482,68.235 78.678,71.611 81.074,75.299C81.612,76.127 82.614,76.837 82.614,76.837L83.947,78.262L84.634,80.088L84.569,82.038C83.872,83.575 83.86,84.202 82.338,85.147C81.786,85.49 81.121,85.605 80.512,85.834L78.562,85.769L76.786,84.963C69.984,80.084 67.832,69.54 73.526,62.717C75.576,60.261 78.268,58.427 81.101,56.96L82.217,56.542L83.4,56.4L88.7,56.4C89.354,56.534 90.008,56.667 90.662,56.801Z" style="fill-rule:nonzero;"/>
        </g>
        <g transform="matrix(1.26532,0,0,1.26532,-68.0775,-68.0768)">
            <path d="M382.274,380.001C398.295,380.151 412.659,396.14 408.286,413.472C404.762,427.442 388.646,436.944 374.48,432.644C360.709,428.463 351.738,411.988 356.705,398.079C360.369,387.819 370.614,380.28 381.712,380.005C381.9,380.002 382.087,380 382.274,380.001ZM382.033,390.001C370.505,390.21 360.978,404.318 367.592,415.391C371.734,422.324 381.156,425.625 388.613,422.551C396.759,419.192 401.466,408.832 397.773,400.221C395.226,394.283 389.067,390.149 382.434,390.003C382.3,390.001 382.167,390 382.033,390.001Z" style="fill-rule:nonzero;"/>
        </g>
        <g transform="matrix(1.26532,0,0,1.26532,-68.0775,-68.0768)">
            <path d="M210.31,379.998C222.472,380.146 233.859,389.407 236.277,401.549C238.65,413.464 231.94,426.65 220.687,431.551C208.069,437.047 191.608,431.036 185.607,418.445C180.867,408.5 183.113,395.711 190.948,387.893C195.925,382.927 202.875,380.047 209.964,379.997C210.08,379.997 210.195,379.997 210.31,379.998ZM210.002,389.997C200.648,390.063 192.068,398.667 193.088,408.632C193.921,416.771 201.43,423.708 209.631,423.8C217.347,423.886 224.777,418.181 226.421,410.504C228.47,400.936 221.073,390.332 210.547,390.004C210.365,389.999 210.184,389.997 210.002,389.997Z" style="fill-rule:nonzero;"/>
        </g>
    </g>
</svg>
