<?xml version="1.0" encoding="UTF-8"?>
<svg width="42px" height="34px" viewBox="0 0 42 34" version="1.1" xmlns="http://www.w3.org/2000/svg" xmlns:xlink="http://www.w3.org/1999/xlink">
    <!-- Generator: Sketch 51.3 (57544) - http://www.bohemiancoding.com/sketch -->
    <title>icon / kunden - inaktiv</title>
    <desc>Created with Sketch.</desc>
    <defs></defs>
    <g id="Lanista" stroke="none" stroke-width="1" fill="none" fill-rule="evenodd">
        <g id="Icons" transform="translate(-365.000000, -164.000000)" fill="#535353">
            <g id="kunden" transform="translate(365.000000, 164.000000)">
                <g id="icon-/-kunden---inaktiv">
                    <path d="M26.345,18.1228 C26.238,18.1228 26.133,18.1368 26.027,18.1398 C21.617,17.9698 18.079,14.3398 18.079,9.8898 C18.079,5.3318 21.787,1.6238 26.345,1.6238 C30.903,1.6238 34.611,5.3318 34.611,9.8898 C34.611,14.3398 31.073,17.9698 26.663,18.1398 C26.557,18.1368 26.452,18.1228 26.345,18.1228 M19.367,19.8938 C19.327,19.8528 19.29,19.8098 19.24,19.7808 C18.565,19.3768 17.936,19.0528 17.306,18.7858 L16.481,18.4348 L17.212,17.9168 C17.901,17.4308 18.504,16.8278 19.006,16.1258 C19.049,16.0648 19.074,15.9988 19.092,15.9328 C20.051,17.0808 21.261,18.0138 22.657,18.6058 C21.5,18.9038 20.399,19.3418 19.367,19.8938 M13.176,17.8938 C10,17.8938 7.417,15.3098 7.417,12.1348 C7.417,8.9588 10,6.3758 13.176,6.3758 C14.606,6.3758 16.014,6.9388 17.089,7.9208 C16.954,8.5568 16.88,9.2138 16.88,9.8898 C16.88,11.8328 17.471,13.6388 18.479,15.1438 C18.441,15.1428 18.403,15.1348 18.365,15.1418 C18.2,15.1748 18.05,15.2768 17.941,15.4308 C16.888,16.9698 15.105,17.8938 13.176,17.8938 M30.033,18.6058 C33.425,17.1648 35.81,13.8008 35.81,9.8898 C35.81,4.6698 31.564,0.4238 26.345,0.4238 C22.272,0.4238 18.801,3.0158 17.47,6.6328 C16.254,5.6948 14.789,5.1968 13.176,5.1968 C9.309,5.1968 6.163,8.3428 6.163,12.2098 C6.163,14.3828 7.156,16.4018 8.886,17.7468 L9.608,18.3088 L8.746,18.6128 C3.937,20.3138 0.829,24.8188 0.829,30.0908 C0.829,30.4128 1.134,30.7178 1.456,30.7178 L9.795,30.7178 C10.117,30.7178 10.422,30.4128 10.422,30.0908 C10.422,29.7688 10.117,29.4638 9.795,29.4638 L2.025,29.4638 L2.086,28.9078 C2.686,23.5158 6.869,19.5118 12.261,19.1718 C12.913,19.2338 13.348,19.2388 13.847,19.1888 C15.379,19.3198 16.787,19.7878 18.21,20.5778 C14.184,23.2268 11.519,27.7778 11.519,32.9488 C11.519,33.2768 11.818,33.5758 12.146,33.5758 C12.468,33.5758 12.773,33.2708 12.773,32.9488 C12.773,25.4658 18.862,19.3768 26.345,19.3768 C33.828,19.3768 39.917,25.4658 39.917,32.9488 C39.917,33.2708 40.222,33.5758 40.544,33.5758 C40.955,33.5758 41.171,33.2608 41.171,32.9488 C41.171,26.0498 36.426,20.2518 30.033,18.6058" id="Fill-1"></path>
                </g>
            </g>
        </g>
    </g>
</svg>