<?xml version="1.0" encoding="UTF-8"?>
<svg width="42px" height="34px" viewBox="0 0 42 34" version="1.1" xmlns="http://www.w3.org/2000/svg" xmlns:xlink="http://www.w3.org/1999/xlink">
    <!-- Generator: Sketch 51.3 (57544) - http://www.bohemiancoding.com/sketch -->
    <title>icon / kunden - aktiv</title>
    <desc>Created with Sketch.</desc>
    <defs></defs>
    <g id="Lanista" stroke="none" stroke-width="1" fill="none" fill-rule="evenodd">
        <g id="Icons" transform="translate(-427.000000, -164.000000)">
            <g id="kunden" transform="translate(365.000000, 164.000000)">
                <g id="icon-/-kunden---aktiv" transform="translate(62.000000, 0.000000)">
                    <g transform="translate(0.532227, -0.235907)">
                        <path d="M18.6291726,20.3756441 C16.9012097,19.3238406 15.1811747,18.4065612 12.9273101,18.4065612 C6.46623145,18.4065612 1.35747162,23.2899345 1.35747162,30.0515284 L9.77189958,30.0515284 L12.5221058,30.0515284 L18.6291726,20.3756441 Z" id="Shape" fill="#EDC951"></path>
                        <path d="M3.35747162,30.0515284 L1.35747162,30.0515284 C1.35747162,23.2899345 6.46623145,18.4065612 12.9273101,18.4065612 C13.2651192,18.4065612 13.5961775,18.4200627 13.920738,18.4465599 C7.94354604,18.924849 3.35747162,23.6451603 3.35747162,30.0515284 Z" id="Combined-Shape" fill="#CBAA39"></path>
                        <path d="M17.6604258,8.21236682 C16.5334935,7.0854345 14.8806594,6.33414629 13.1526965,6.33414629 C9.62164193,6.33414629 6.76674673,9.18904149 6.76674673,12.7200961 C6.76674673,16.2511507 9.62164193,19.1060459 13.1526965,19.1060459 C15.3314323,19.1060459 17.2847817,17.9791136 18.411714,16.3262795" id="Shape" fill="#EDC951"></path>
                        <path d="M11.4998625,33.7332435 C11.4998625,25.6302394 17.8106834,19.0075917 25.6992096,19.0075917 C33.512607,19.0075917 39.8985568,25.5523259 39.8985568,33.7332435" id="Shape" fill="#8B71B5"></path>
                        <ellipse id="Oval" fill="#EDC951" cx="25.6992096" cy="9.89367905" rx="8.5268556" ry="8.61989538"></ellipse>
                        <path d="M27.3699556,19.1084042 C20.2819429,19.9676506 14.8460539,26.2128871 14.8460539,33.7332435 L11.4998625,33.7332435 C11.4998625,25.6302394 17.8106834,19.0075917 25.6992096,19.0075917 C26.2642141,19.0075917 26.8217544,19.0418146 27.3699556,19.1084042 Z" id="Combined-Shape" fill="#6839B5"></path>
                        <path d="M27.3520708,1.43561189 C23.4338723,2.21364228 20.4780763,5.70471269 20.4780763,9.89367905 C20.4780763,14.0826454 23.4338723,17.5737158 27.3520708,18.3517462 C26.8173522,18.4579244 26.2647097,18.5135744 25.6992096,18.5135744 C20.9899573,18.5135744 17.172354,14.6543158 17.172354,9.89367905 C17.172354,5.13304229 20.9899573,1.27378367 25.6992096,1.27378367 C26.2647097,1.27378367 26.8173522,1.32943368 27.3520708,1.43561189 Z" id="Combined-Shape" fill="#CBAA39"></path>
                        <path d="M13.6486585,19.0865164 C13.4848374,19.0994463 13.3194269,19.1060459 13.1526965,19.1060459 C9.62164193,19.1060459 6.76674673,16.2511507 6.76674673,12.7200961 C6.76674673,9.18904149 9.62164193,6.33414629 13.1526965,6.33414629 C13.3167968,6.33414629 13.4802194,6.34092202 13.6425784,6.35415175 C10.3507157,6.61342368 7.76674673,9.36076355 7.76674673,12.7200961 C7.76674673,16.0814966 10.353898,18.8301507 13.6486585,19.0865164 Z" id="Combined-Shape" fill="#CBAA39"></path>
                        <path d="M25.8127734,18.3587069 C25.7057734,18.3587069 25.6007734,18.3727069 25.4947734,18.3757069 C21.0847734,18.2057069 17.5467734,14.5757069 17.5467734,10.1257069 C17.5467734,5.56770686 21.2547734,1.85970686 25.8127734,1.85970686 C30.3707734,1.85970686 34.0787734,5.56770686 34.0787734,10.1257069 C34.0787734,14.5757069 30.5407734,18.2057069 26.1307734,18.3757069 C26.0247734,18.3727069 25.9197734,18.3587069 25.8127734,18.3587069 M18.8347734,20.1297069 C18.7947734,20.0887069 18.7577734,20.0457069 18.7077734,20.0167069 C18.0327734,19.6127069 17.4037734,19.2887069 16.7737734,19.0217069 L15.9487734,18.6707069 L16.6797734,18.1527069 C17.3687734,17.6667069 17.9717734,17.0637069 18.4737734,16.3617069 C18.5167734,16.3007069 18.5417734,16.2347069 18.5597734,16.1687069 C19.5187734,17.3167069 20.7287734,18.2497069 22.1247734,18.8417069 C20.9677734,19.1397069 19.8667734,19.5777069 18.8347734,20.1297069 M12.6437734,18.1297069 C9.46777344,18.1297069 6.88477344,15.5457069 6.88477344,12.3707069 C6.88477344,9.19470686 9.46777344,6.61170686 12.6437734,6.61170686 C14.0737734,6.61170686 15.4817734,7.17470686 16.5567734,8.15670686 C16.4217734,8.79270686 16.3477734,9.44970686 16.3477734,10.1257069 C16.3477734,12.0687069 16.9387734,13.8747069 17.9467734,15.3797069 C17.9087734,15.3787069 17.8707734,15.3707069 17.8327734,15.3777069 C17.6677734,15.4107069 17.5177734,15.5127069 17.4087734,15.6667069 C16.3557734,17.2057069 14.5727734,18.1297069 12.6437734,18.1297069 M29.5007734,18.8417069 C32.8927734,17.4007069 35.2777734,14.0367069 35.2777734,10.1257069 C35.2777734,4.90570686 31.0317734,0.659706863 25.8127734,0.659706863 C21.7397734,0.659706863 18.2687734,3.25170686 16.9377734,6.86870686 C15.7217734,5.93070686 14.2567734,5.43270686 12.6437734,5.43270686 C8.77677344,5.43270686 5.63077344,8.57870686 5.63077344,12.4457069 C5.63077344,14.6187069 6.62377344,16.6377069 8.35377344,17.9827069 L9.07577344,18.5447069 L8.21377344,18.8487069 C3.40477344,20.5497069 0.296773437,25.0547069 0.296773437,30.3267069 C0.296773437,30.6487069 0.601773437,30.9537069 0.923773437,30.9537069 L9.26277344,30.9537069 C9.58477344,30.9537069 9.88977344,30.6487069 9.88977344,30.3267069 C9.88977344,30.0047069 9.58477344,29.6997069 9.26277344,29.6997069 L1.49277344,29.6997069 L1.55377344,29.1437069 C2.15377344,23.7517069 6.33677344,19.7477069 11.7287734,19.4077069 C12.3807734,19.4697069 12.8157734,19.4747069 13.3147734,19.4247069 C14.8467734,19.5557069 16.2547734,20.0237069 17.6777734,20.8137069 C13.6517734,23.4627069 10.9867734,28.0137069 10.9867734,33.1847069 C10.9867734,33.5127069 11.2857734,33.8117069 11.6137734,33.8117069 C11.9357734,33.8117069 12.2407734,33.5067069 12.2407734,33.1847069 C12.2407734,25.7017069 18.3297734,19.6127069 25.8127734,19.6127069 C33.2957734,19.6127069 39.3847734,25.7017069 39.3847734,33.1847069 C39.3847734,33.5067069 39.6897734,33.8117069 40.0117734,33.8117069 C40.4227734,33.8117069 40.6387734,33.4967069 40.6387734,33.1847069 C40.6387734,26.2857069 35.8937734,20.4877069 29.5007734,18.8417069" id="Fill-1" fill="#535353"></path>
                    </g>
                </g>
            </g>
        </g>
    </g>
</svg>