<?xml version="1.0" encoding="UTF-8"?>
<svg width="39px" height="39px" viewBox="0 0 39 39" version="1.1" xmlns="http://www.w3.org/2000/svg" xmlns:xlink="http://www.w3.org/1999/xlink">
    <!-- Generator: Sketch 51.3 (57544) - http://www.bohemiancoding.com/sketch -->
    <title>icon / e-mail - inaktiv</title>
    <desc>Created with Sketch.</desc>
    <defs></defs>
    <g id="Lanista" stroke="none" stroke-width="1" fill="none" fill-rule="evenodd">
        <g id="Icons" transform="translate(-30.000000, -258.000000)" fill="#535353">
            <g id="e-mail" transform="translate(30.000000, 254.000000)">
                <g id="icon-/-e-mail---inaktiv">
                    <g transform="translate(0.000000, 0.177179)" id="Shape">
                        <path d="M17.4425153,34.2444655 L4.00363356,34.2444655 C3.65574798,34.2444655 3.37364631,34.5264925 3.37364631,34.8743781 C3.37364631,35.2223383 3.65574798,35.5042906 4.00363356,35.5042906 L17.4425153,35.5042906 C17.7904009,35.5042906 18.0724279,35.2223383 18.0724279,34.8743781 C18.0724279,34.5264925 17.7904009,34.2444655 17.4425153,34.2444655 Z" fill-rule="nonzero"></path>
                        <path d="M13.2428741,36.7641905 L4.00363356,36.7641905 C3.65574798,36.7641905 3.37364631,37.0462921 3.37364631,37.3941777 C3.37364631,37.7420633 3.65574798,38.0240903 4.00363356,38.0240903 L13.2428741,38.0240903 C13.5907596,38.0240903 13.8727867,37.7420633 13.8727867,37.3941777 C13.8727867,37.0462921 13.5907596,36.7641905 13.2428741,36.7641905 Z" fill-rule="nonzero"></path>
                        <path d="M38.2301531,19.7467691 C38.2299291,19.7305658 38.2284357,19.7145865 38.227017,19.6985326 C38.2260463,19.6879295 38.2255982,19.6773264 38.2241049,19.6668727 C38.2217901,19.6503707 38.2180566,19.6342421 38.2143978,19.6181134 C38.2122324,19.608481 38.210739,19.5986993 38.2081256,19.589291 C38.203272,19.5715943 38.1969251,19.5544203 38.1905782,19.5372463 C38.1878154,19.5297793 38.1857994,19.5220883 38.1827379,19.5147707 C38.1627265,19.4663848 38.1365921,19.420463 38.1050069,19.3782747 C38.09978,19.3712558 38.0936571,19.3649835 38.0881315,19.3581886 C38.0770804,19.3445988 38.066104,19.3309342 38.0537835,19.3182404 C38.0460926,19.3103254 38.0375056,19.3031571 38.0293666,19.2956155 C38.0194355,19.2863565 38.0101765,19.2766494 37.9995734,19.2680624 L31.5112349,13.9597273 L31.5112349,5.87472915 C31.5112349,4.8448863 30.6733676,4.00701894 29.64345,4.00701894 L8.60111428,4.00701894 C7.57127143,4.00701894 6.73340407,4.84496097 6.73340407,5.87472915 L6.73340407,13.9597273 C-0.31488162,19.7261603 0.136645332,19.3101014 0.0528660629,19.5409051 C-0.0359160681,19.7851493 0.0138885419,18.9714749 0.0138885419,40.1006513 C0.0138885419,41.271321 0.966299039,42.2238062 2.13704339,42.2238062 L36.1075956,42.2238062 C37.2783399,42.2238062 38.2308251,41.271321 38.2308251,40.1006513 L38.2308251,19.7557295 C38.2307504,19.752668 38.2302278,19.7497559 38.2301531,19.7467691 Z M36.4778074,19.6506694 L31.5113843,22.3597564 L31.5113843,15.5875988 L36.4778074,19.6506694 Z M6.73340407,22.3596817 L1.76698095,19.650744 L6.73340407,15.5875988 L6.73340407,22.3596817 Z M36.1075956,40.963981 L2.13704339,40.963981 C1.66102481,40.963981 1.27378837,40.5767446 1.27378837,40.100726 L1.27378837,20.8168589 C20.0348191,31.0504742 18.8779633,30.4648407 19.1224315,30.4648407 C19.3468883,30.4648407 19.0315586,30.601934 23.6591312,28.0778782 C23.9646044,27.911365 24.0771315,27.5286834 23.9105437,27.2232848 C23.7439558,26.9178116 23.3614236,26.8051352 23.0559503,26.9718724 L19.6247338,28.8433907 C19.3101508,29.0148321 18.9344135,29.0147574 18.6197559,28.8430921 L7.99337857,23.0469406 L7.99337857,5.87472915 C7.99337857,5.53961208 8.26607188,5.2668441 8.60118895,5.2668441 L29.6435994,5.2668441 C29.9787164,5.2668441 30.2514844,5.53953741 30.2514844,5.87472915 L30.2514844,23.0470899 C27.2131792,24.7044559 28.0460437,24.2500915 26.7085622,24.9796133 C26.4030889,25.1461265 26.2905619,25.5288081 26.4571497,25.8342813 C26.6237375,26.1397546 27.0064191,26.252431 27.3118177,26.0856191 L27.6491002,25.9017079 L27.6491749,25.9017079 C27.6491749,25.9017079 29.3755356,24.9604232 36.9709253,20.8170082 L36.9709253,40.1008007 C36.9709253,40.5766699 36.5835395,40.963981 36.1075956,40.963981 Z" fill-rule="nonzero"></path>
                    </g>
                </g>
            </g>
        </g>
    </g>
</svg>