<?xml version="1.0" encoding="UTF-8" standalone="no"?><!DOCTYPE svg PUBLIC "-//W3C//DTD SVG 1.1//EN" "http://www.w3.org/Graphics/SVG/1.1/DTD/svg11.dtd"><svg width="100%" height="100%" viewBox="0 0 38 38" version="1.1" xmlns="http://www.w3.org/2000/svg" xmlns:xlink="http://www.w3.org/1999/xlink" xml:space="preserve" xmlns:serif="http://www.serif.com/" style="fill-rule:evenodd;clip-rule:evenodd;stroke-linejoin:round;stroke-miterlimit:1.41421;"><g id="icon---hilfe---inaktiv" serif:id="icon-/-hilfe---inaktiv"><path d="M1.408,18.277c0.645,0.176 0.589,0.179 0.608,1.176c0.233,7.379 5.576,14.241 12.787,16.098c3.768,0.971 7.857,0.599 11.406,-1.027c0,0 0.27,-0.141 0.505,-0.115c0.74,0.082 1.208,1.011 -0.329,1.679c-7.472,3.184 -16.898,0.788 -21.917,-5.607c-2.49,-3.172 -3.904,-7.116 -3.956,-11.229c-0.007,-0.52 0.27,-1.057 0.896,-0.975Zm30.443,12.533c0.674,0.163 0.824,0.868 0.064,1.605c-0.632,0.602 -1.584,1.36 -1.584,1.36c-0.278,0.186 -0.394,0.177 -0.579,0.147c-0.664,-0.108 -0.83,-0.935 0.014,-1.61c0.649,-0.529 1.505,-1.36 1.505,-1.36c0.131,-0.086 0.166,-0.184 0.58,-0.142Zm-12.545,-30.374c7.976,0.152 15.432,5.807 17.612,13.491c1.385,4.883 0.667,10.285 -1.958,14.678c0,0 -0.253,0.527 -0.656,0.606c-0.661,0.131 -1.095,-0.601 -0.554,-1.506c3.612,-6.162 2.862,-14.496 -1.787,-19.869c-4.891,-5.653 -13.694,-7.479 -20.436,-4.147c-4.154,2.053 -7.374,5.854 -8.763,10.285c0,0 -0.147,0.335 -0.391,0.452c-0.613,0.295 -1.248,-0.294 -0.88,-1.393c2.499,-7.252 9.637,-12.505 17.424,-12.598c0.195,0 0.194,0 0.389,0.001Z" style="fill:#535353;fill-rule:nonzero;"/><g id="_-" serif:id="?"><path d="M16.336,29.684l0,-2.885l2.886,0l0,2.885l-2.886,0Zm0,-5.786l0,-0.791c0,-1.865 0.718,-3.618 2.153,-5.259l0.923,-1.069c1.533,-1.758 2.3,-3.198 2.3,-4.321c0,-0.869 -0.337,-1.558 -1.011,-2.066c-0.673,-0.507 -1.582,-0.761 -2.724,-0.761c-1.494,0 -3.081,0.361 -4.761,1.084l0,-2.447c1.807,-0.547 3.496,-0.82 5.068,-0.82c1.993,0 3.575,0.447 4.746,1.34c1.172,0.894 1.758,2.102 1.758,3.626c0,0.859 -0.168,1.599 -0.505,2.219c-0.337,0.62 -0.984,1.384 -1.941,2.293l-0.908,0.849c-0.908,0.86 -1.504,1.58 -1.787,2.161c-0.284,0.581 -0.425,1.365 -0.425,2.351l0,1.611l-2.886,0Z" style="fill:#535353;fill-rule:nonzero;"/></g></g></svg>