<?xml version="1.0" encoding="UTF-8" standalone="no"?><!DOCTYPE svg PUBLIC "-//W3C//DTD SVG 1.1//EN" "http://www.w3.org/Graphics/SVG/1.1/DTD/svg11.dtd"><svg width="100%" height="100%" viewBox="0 0 38 38" version="1.1" xmlns="http://www.w3.org/2000/svg" xmlns:xlink="http://www.w3.org/1999/xlink" xml:space="preserve" xmlns:serif="http://www.serif.com/" style="fill-rule:evenodd;clip-rule:evenodd;stroke-linejoin:round;stroke-miterlimit:1.41421;"><g id="icon---hilfe---aktiv" serif:id="icon-/-hilfe---aktiv"><path id="Shape-Copy" d="M19.161,0.818c-9.834,0 -17.806,7.982 -17.806,17.827c0,9.846 7.972,17.827 17.806,17.827c9.833,0 17.805,-7.981 17.805,-17.827c0,-9.845 -7.972,-17.827 -17.805,-17.827Z" style="fill:#ffce00;"/><path id="Shape-Copy-2" d="M30.528,23.018c-3.487,7.9 -9.339,6.482 -11.367,13.454c9.833,0 17.805,-7.981 17.805,-17.827c0,-5.235 -2.254,-9.944 -5.844,-13.205c-2.73,6.157 2.893,9.678 -0.594,17.578Z" style="fill:#fcbc04;"/><path d="M1.344,17.831c0.645,0.176 0.589,0.179 0.608,1.176c0.234,7.407 5.606,14.249 12.787,16.098c3.768,0.971 7.857,0.599 11.407,-1.027c0,0 0.27,-0.14 0.504,-0.114c0.741,0.081 1.209,1.011 -0.329,1.678c-7.473,3.184 -16.898,0.788 -21.917,-5.607c-2.49,-3.172 -3.904,-7.115 -3.956,-11.229c-0.007,-0.52 0.269,-1.057 0.896,-0.975Zm30.443,12.533c0.674,0.163 0.824,0.868 0.064,1.605c-0.632,0.602 -1.585,1.361 -1.585,1.361c-0.748,0.5 -1.873,-0.417 -0.564,-1.464c0.649,-0.529 1.505,-1.36 1.505,-1.36c0.131,-0.086 0.166,-0.184 0.58,-0.142Zm-12.545,-30.373c7.976,0.151 15.432,5.806 17.612,13.49c1.385,4.883 0.667,10.284 -1.958,14.678c0,0 -0.326,0.66 -0.859,0.619c-0.624,-0.049 -0.815,-0.742 -0.351,-1.519c3.611,-6.163 2.862,-14.495 -1.787,-19.868c-4.891,-5.654 -13.694,-7.48 -20.436,-4.148c-4.154,2.053 -7.373,5.854 -8.762,10.285c0,0 -0.213,0.449 -0.586,0.515c-0.618,0.108 -1.018,-0.463 -0.686,-1.456c2.492,-7.229 9.636,-12.505 17.424,-12.597c0.194,-0.001 0.194,-0.001 0.389,0.001Z" style="fill:#535353;fill-rule:nonzero;"/><path id="_-" serif:id="?" d="M16.173,28.808l0,-2.886l2.886,0l0,2.886l-2.886,0Zm0,-5.786l0,-0.791c0,-1.865 0.718,-3.618 2.153,-5.259l0.923,-1.069c1.533,-1.758 2.3,-3.199 2.3,-4.322c0,-0.869 -0.337,-1.557 -1.011,-2.065c-0.673,-0.508 -1.582,-0.762 -2.724,-0.762c-1.494,0 -3.081,0.362 -4.761,1.084l0,-2.446c1.807,-0.547 3.496,-0.82 5.068,-0.82c1.993,0 3.575,0.446 4.746,1.34c1.172,0.894 1.758,2.102 1.758,3.625c0,0.86 -0.168,1.6 -0.505,2.22c-0.337,0.62 -0.984,1.384 -1.941,2.292l-0.908,0.85c-0.908,0.859 -1.504,1.579 -1.787,2.16c-0.284,0.582 -0.425,1.365 -0.425,2.352l0,1.611l-2.886,0Z" style="fill:#535353;fill-rule:nonzero;"/></g></svg>