<?xml version="1.0" encoding="UTF-8"?>
<svg width="37px" height="37px" viewBox="0 0 37 37" version="1.1" xmlns="http://www.w3.org/2000/svg" xmlns:xlink="http://www.w3.org/1999/xlink">
    <!-- Generator: Sketch 51.3 (57544) - http://www.bohemiancoding.com/sketch -->
    <title>icon / backwords - inaktiv</title>
    <desc>Created with Sketch.</desc>
    <defs></defs>
    <g id="Lanista" stroke="none" stroke-width="1" fill="none" fill-rule="evenodd">
        <g id="Icons" transform="translate(-367.000000, -449.000000)" fill="#535353">
            <g id="jump-backwords" transform="translate(366.000000, 448.000000)">
                <g id="icon-/-backwords---inaktiv">
                    <g transform="translate(1.000000, 0.679850)" id="Combined-Shape">
                        <path d="M4.30354344,28.56825 C4.33454344,28.56825 4.36554344,28.57125 4.39454344,28.57625 C4.55854344,28.60025 4.70254344,28.68625 4.80254344,28.82025 C5.09054344,29.20625 5.39154344,29.57725 5.69754344,29.92125 C5.92254344,30.17625 5.89754344,30.56825 5.64254344,30.79525 C5.40154344,31.00825 4.98554344,30.98125 4.76954344,30.74125 C4.43354344,30.35925 4.11054344,29.96225 3.80954344,29.55725 C3.60654344,29.28325 3.66354344,28.89425 3.93754344,28.69125 C4.04454344,28.61125 4.17054344,28.56825 4.30354344,28.56825 Z M9.80164344,33.39145 C9.90464344,33.39145 10.0086434,33.41845 10.1026434,33.47045 C10.5186434,33.70345 10.9456434,33.91745 11.3696434,34.11045 L11.3786434,34.11445 C11.5246434,34.18245 11.6356434,34.30345 11.6936434,34.45545 C11.7516434,34.61045 11.7466434,34.77945 11.6786434,34.92945 C11.5466434,35.22345 11.1576434,35.37045 10.8616434,35.23845 C10.3936434,35.02545 9.93464344,34.79445 9.49864344,34.55045 C9.35464344,34.46945 9.24964344,34.33745 9.20464344,34.17945 C9.15964344,34.02045 9.17964344,33.85345 9.25964344,33.70845 C9.34064344,33.56545 9.47164344,33.46045 9.62964344,33.41545 C9.68664344,33.40045 9.74464344,33.39145 9.80164344,33.39145 Z M1.27714344,21.91585 C1.39414344,21.91585 1.50914344,21.94985 1.61014344,22.01485 C1.74914344,22.10385 1.84414344,22.24185 1.88014344,22.40385 C1.98214344,22.86985 2.10314344,23.33085 2.24014344,23.77685 C2.28914344,23.93485 2.27314344,24.10185 2.19614344,24.24785 C2.11914344,24.39485 1.99014344,24.50085 1.83314344,24.54985 C1.68314344,24.59685 1.51214344,24.57785 1.36414344,24.49985 C1.21614344,24.42185 1.10514344,24.29185 1.05914344,24.14185 C0.91014344,23.66085 0.77914344,23.16485 0.67114344,22.66685 C0.63514344,22.50585 0.66614344,22.33985 0.75514344,22.20085 C0.84414344,22.06185 0.98214344,21.96685 1.14214344,21.93185 C1.19014344,21.92185 1.23514344,21.91585 1.27714344,21.91585 Z M16.8455434,35.52815 C17.3325434,35.56915 17.8065434,35.58815 18.3375434,35.58815 C27.5835434,35.58815 35.1045434,28.06615 35.1045434,18.82015 C35.1045434,9.57415 27.5835434,2.05215 18.3375434,2.05215 C13.0045434,2.05215 7.93454344,4.64015 4.77654344,8.97615 L4.36554344,9.54015 L6.94954344,9.54015 C7.29154344,9.54015 7.56854344,9.81815 7.56854344,10.15815 C7.56854344,10.50015 7.29154344,10.77715 6.94954344,10.77715 L3.16354344,10.77715 C2.99754344,10.77715 2.84354344,10.71415 2.72854344,10.59915 L2.15154344,10.00715 C2.03454344,9.89015 1.97054344,9.73515 1.97054344,9.57015 L1.97054344,5.78315 C1.97054344,5.44215 2.24754344,5.16415 2.58954344,5.16415 C2.92954344,5.16415 3.20654344,5.44215 3.20654344,5.78315 L3.20654344,9.00315 L3.84754344,8.13315 C7.27554344,3.48215 12.5565434,0.81515 18.3375434,0.81515 C23.1465434,0.81515 27.6685434,2.68715 31.0695434,6.08815 C34.4705434,9.48915 36.3435434,14.01115 36.3435434,18.82015 C36.3435434,23.62815 34.4705434,28.14915 31.0695434,31.55115 C27.6675434,34.95215 23.1195434,36.82515 18.2635434,36.82515 C17.7555434,36.82515 17.2425434,36.80315 16.7415434,36.76115 C16.5765434,36.74815 16.4275434,36.67115 16.3205434,36.54415 C16.2145434,36.41815 16.1625434,36.25815 16.1765434,36.09415 C16.2035434,35.76615 16.4855434,35.52815 16.8455434,35.52815 Z M18.3377434,6.41395 C18.6787434,6.41395 18.9557434,6.69095 18.9557434,7.03295 L18.9557434,18.56395 L24.6087434,24.21695 C24.8497434,24.45795 24.8507434,24.85095 24.6097434,25.09195 C24.5057434,25.19495 24.3467434,25.25495 24.1717434,25.25495 C23.9977434,25.25495 23.8377434,25.19495 23.7347434,25.09195 L17.9007434,19.25795 C17.7827434,19.14095 17.7187434,18.98495 17.7187434,18.81995 L17.7187434,7.03295 C17.7187434,6.69095 17.9967434,6.41395 18.3377434,6.41395 Z"></path>
                    </g>
                </g>
            </g>
        </g>
    </g>
</svg>