<?xml version="1.0" encoding="UTF-8"?>
<svg width="38px" height="43px" viewBox="0 0 38 43" version="1.1" xmlns="http://www.w3.org/2000/svg" xmlns:xlink="http://www.w3.org/1999/xlink">
    <!-- Generator: Sketch 51.3 (57544) - http://www.bohemiancoding.com/sketch -->
    <title>icon / werkzeuge - inaktiv</title>
    <desc>Created with Sketch.</desc>
    <defs></defs>
    <g id="Lanista" stroke="none" stroke-width="1" fill="none" fill-rule="evenodd">
        <g id="Icons" transform="translate(-32.000000, -356.000000)" fill="#535353">
            <g id="werkzeuge" transform="translate(32.000000, 356.000000)">
                <g id="icon-/-werkzeuge---inaktiv">
                    <g id="settings">
                        <path d="M37.7065188,20.0707995 C37.7063543,19.618436 37.3379291,19.2517766 36.8835903,19.2517766 L34.6976452,19.2517766 C34.3170408,17.7815339 33.7349834,16.3817554 32.9610191,15.0757105 L34.5068904,13.5365605 C34.828244,13.2166041 34.828244,12.6977913 34.5068904,12.3777529 L29.8740496,7.76505491 C29.552696,7.4450985 29.0316176,7.4450985 28.7101818,7.76505491 L28.2441573,8.22905315 C28.2004598,4.95165079 26.4133059,1.90702594 23.5559334,0.261360281 C23.3013193,0.11461459 22.9874544,0.114532655 22.732758,0.260786735 C22.4779793,0.407122751 22.3209646,0.677672315 22.3209646,0.970590151 L22.3209646,7.41068578 L18.8645824,9.39761096 L15.4082003,7.41068578 L15.4082003,0.970508216 C15.4082003,0.677672315 15.2511855,0.407122751 14.9964068,0.2607048 C14.7416281,0.114368785 14.4277632,0.11461459 14.1732314,0.261278346 C11.3196444,1.90489563 9.5335603,4.94353922 9.4852544,8.21594354 L9.02441441,7.75710721 C8.70306082,7.4371508 8.18198247,7.4371508 7.86054658,7.75710721 L3.22770578,12.3698052 C2.90635219,12.6897616 2.90635219,13.2085744 3.22770578,13.5286128 L4.78139487,15.0754647 C4.00751287,16.3815096 3.42529093,17.7813701 3.04468648,19.2516947 L0.845492248,19.2516947 C0.391153402,19.2516947 0.0227282949,19.6183541 0.0225637092,20.0707175 L0.0201772164,26.5940592 C0.0200949236,26.8114329 0.106749299,27.0198757 0.261130693,27.1735859 C0.415429794,27.327378 0.624782814,27.4137375 0.843105756,27.4137375 L3.04452189,27.4137375 C3.42512634,28.8839802 4.0071837,30.2839226 4.78114799,31.5900494 L3.22219216,33.1422272 C2.90083857,33.4621836 2.90083857,33.9809964 3.22219216,34.3010347 L7.85503296,38.9137327 C8.17638655,39.2336072 8.6974649,39.2336072 9.01890079,38.9137327 L10.5778566,37.361555 C11.8896047,38.1320722 13.2957427,38.7117628 14.772488,39.0907124 L14.772488,41.2824753 C14.772488,41.499767 14.8592246,41.7082918 15.013606,41.86192 C15.1679051,42.0155482 15.3771759,42.1018258 15.5954165,42.1018258 C15.5954988,42.1018258 15.5955811,42.1018258 15.5957457,42.1018258 L22.1475735,42.0994497 C22.6019124,42.0992859 22.9701729,41.7324626 22.9701729,41.2800991 L22.9701729,39.0905486 C24.4468359,38.7115989 25.8528916,38.1320722 27.164722,37.3613911 L28.7183287,38.908325 C28.8726278,39.0619532 29.0819809,39.1483128 29.3002215,39.1483128 C29.3003038,39.1483128 29.3003861,39.1483128 29.3004684,39.1483128 C29.5187913,39.1482308 29.7281444,39.0617894 29.8824435,38.9079973 L34.5127332,34.2927593 C34.8337576,33.9727209 34.833593,33.4542359 34.512404,33.1342795 L32.961266,31.5898036 C33.735148,30.2837588 34.3172877,28.8839802 34.6978921,27.4136556 L36.8862237,27.4136556 C37.1045466,27.4136556 37.3138996,27.327296 37.4681987,27.1735039 C37.6224978,27.0197938 37.7092345,26.811351 37.7091522,26.5939773 L37.7065188,20.0707995 Z M13.7622609,2.56398124 L13.7622609,7.88361494 C13.7622609,8.17636891 13.9191111,8.44683654 14.1737252,8.59317255 L18.4531182,11.0531088 C18.7077322,11.1994448 19.0214326,11.1994448 19.2760467,11.0531088 L23.5554397,8.59317255 C23.8100538,8.44683654 23.9669039,8.17636891 23.9669039,7.88361494 L23.9669039,2.56398124 C25.6186861,4.01259308 26.6003576,6.12102795 26.6003576,8.35179187 C26.6003576,12.5988137 23.1301502,16.0539332 18.8645824,16.0539332 C14.5990146,16.0539332 11.1288073,12.5988137 11.1288073,8.35179187 C11.1288073,6.12102795 12.1104787,4.01251115 13.7622609,2.56398124 Z M34.0467087,25.7751183 L34.0467087,25.7750363 C33.6588625,25.7750363 33.3236014,26.0446846 33.2421315,26.4222414 C32.8687688,28.1525459 32.1910872,29.7822343 31.227767,31.2661601 C31.0171796,31.5904591 31.0627699,32.0171769 31.3369697,32.2902664 L32.7668903,33.71397 L29.2998923,37.169745 L27.8681613,35.7442388 C27.5938792,35.4713131 27.1653803,35.4257572 26.8395006,35.635511 C25.3490947,36.5944789 23.7122899,37.269378 21.9742648,37.6411993 C21.5950593,37.722315 21.3242335,38.0561184 21.3242335,38.4422784 L21.3242335,40.4609944 L16.418345,40.462715 L16.418345,38.4423603 C16.418345,38.0562004 16.1475193,37.722397 15.7683138,37.6413632 C14.0302887,37.2695419 12.3934839,36.5947247 10.903078,35.6355929 C10.5772806,35.4259211 10.1486994,35.4713131 9.8744173,35.7443208 L8.43700802,37.1754804 L4.96787047,33.7216719 L6.40527975,32.2905122 C6.67956183,32.0174227 6.72506978,31.5907049 6.51448237,31.2664059 C5.55132681,29.7824801 4.87356286,28.1527098 4.5000356,26.4223233 C4.41856567,26.0447666 4.08338688,25.7751183 3.69545837,25.7751183 L1.66644576,25.7751183 L1.66817391,20.8905597 L3.69570524,20.8905597 C4.08355146,20.8905597 4.41881255,20.6209115 4.50028248,20.2433547 C4.87372745,18.5128863 5.5514091,16.8831979 6.51472925,15.399354 C6.72531666,15.0750551 6.67972642,14.6482553 6.40552663,14.3751658 L4.97338409,12.9493319 L8.44235706,9.49544142 L9.83203648,10.8790788 C10.4563924,13.0884576 11.8784952,14.9683756 13.7677745,16.1903551 L13.7677745,31.9538411 C13.7459669,31.9410592 13.7239124,31.9290967 13.7021871,31.9161509 C13.312695,31.6831276 12.8070054,31.808816 12.5730469,32.1968604 C12.3390883,32.584741 12.4653255,33.08815 12.8549822,33.3210914 C14.7231123,34.4378662 16.7996078,34.9825705 18.8620313,34.9824886 C21.881027,34.9824066 24.8695743,33.8151598 27.1278548,31.5667798 C29.128394,29.5748566 30.3345604,26.9317955 30.5241631,24.1242907 C30.7118731,21.3440703 29.895528,18.5908884 28.2253946,16.3720051 C27.9527583,16.010016 27.4371113,15.9364383 27.0732946,16.2077253 C26.7096425,16.4790942 26.6357435,16.9926632 26.9082974,17.3548161 C29.8793986,21.3022834 29.473448,26.9139337 25.9640692,30.4080542 C25.3556782,31.0138001 24.6855674,31.5281884 23.9724176,31.9490888 L23.9724176,22.5746529 C23.9724176,22.1222075 23.6039925,21.7553023 23.149489,21.7553023 C22.6949856,21.7553023 22.3265605,22.1222075 22.3265605,22.5746529 L22.3265605,32.7274719 C21.2147017,33.1350988 20.0411234,33.34305 18.8618668,33.3429681 C17.6998094,33.3428861 16.5324852,33.1400968 15.4137962,32.7307493 L15.4137962,17.0378094 C16.4824512,17.4601846 17.6468951,17.6926344 18.864747,17.6926344 C23.1519578,17.6926344 26.7765466,14.8145835 27.8923554,10.8971045 L29.2924037,9.50314331 L32.7613767,12.9570338 L31.3370519,14.3750839 C31.0627699,14.6481734 31.0172619,15.0748912 31.2278493,15.3992721 C32.1910049,16.883116 32.8687688,18.5128043 33.2422138,20.2431908 C33.3236837,20.6207476 33.6588625,20.8903959 34.046791,20.8903959 L36.0611555,20.8903959 L36.062966,25.7749544 L34.0467087,25.7749544 L34.0467087,25.7751183 Z M10.63612,16.2300117 C10.2717272,15.959626 9.75608018,16.0346785 9.48451376,16.3974869 C7.03909931,19.6652209 6.4980238,24.038177 8.07253297,27.8098935 C8.20403695,28.1250158 8.51016637,28.3150232 8.83275436,28.3150232 C8.93800692,28.3150232 9.04506992,28.2947852 9.14826516,28.2520151 C9.56795871,28.0783947 9.76677825,27.5989107 9.5923174,27.1810419 C8.23942288,23.9402646 8.70388375,20.1834602 10.8042443,17.3766928 C11.0759753,17.0138024 11.000595,16.5004793 10.63612,16.2300117 Z M10.9996898,29.6432724 C10.999196,29.6427808 10.9987023,29.6422892 10.9982085,29.6417976 C10.6769372,29.3221689 10.1538838,29.319547 9.83236565,29.6391756 C9.51084747,29.9588043 9.51274021,30.4795835 9.83360005,30.7999496 C9.99489404,30.960952 10.2073742,31.04174 10.4196898,31.04174 C10.6295365,31.04174 10.8393833,30.9627546 10.9993606,30.8040464 C11.3212903,30.4848274 11.3200559,29.9640482 10.9996898,29.6432724 Z M23.7315464,18.6082587 C23.5784817,18.4558595 23.3661661,18.3681889 23.1497359,18.3681889 C22.9324828,18.3681889 22.7201672,18.4558595 22.5679254,18.6082587 C22.4140378,18.7606579 22.3268074,18.9720503 22.3268074,19.1875395 C22.3268074,19.4038481 22.4140378,19.6144212 22.5679254,19.7668204 C22.7209901,19.920039 22.9324828,20.0068901 23.1497359,20.0068901 C23.3661661,20.0068901 23.5784817,19.920039 23.7315464,19.7668204 C23.8846111,19.6144212 23.9726644,19.4038481 23.9726644,19.1875395 C23.9726644,18.9720503 23.8846111,18.7606579 23.7315464,18.6082587 Z" fill-rule="nonzero"></path>
                    </g>
                </g>
            </g>
        </g>
    </g>
</svg>