<?xml version="1.0" encoding="UTF-8" standalone="no"?><!DOCTYPE svg PUBLIC "-//W3C//DTD SVG 1.1//EN" "http://www.w3.org/Graphics/SVG/1.1/DTD/svg11.dtd"><svg width="100%" height="100%" viewBox="0 0 41 46" version="1.1" xmlns="http://www.w3.org/2000/svg" xmlns:xlink="http://www.w3.org/1999/xlink" xml:space="preserve" xmlns:serif="http://www.serif.com/" style="fill-rule:evenodd;clip-rule:evenodd;"><g id="icon---trainingsplan---inaktiv" serif:id="icon-/-trainingsplan---inaktiv"><rect id="Rectangle" x="1" y="13" width="38" height="31" style="fill:#ecf1f8;"/><path id="Shape" d="M39.486,6.263l0,6.356l-38.748,0c0,-6.944 -0.041,-6.46 0.08,-6.751c0.093,-0.215 0.236,-0.368 0.428,-0.482c0.34,-0.195 0.416,-0.134 3.026,-0.134l34.203,0c0.559,0 1.011,0.452 1.011,1.011Z" style="fill:#9bc93d;fill-rule:nonzero;"/><path id="Shape1" serif:id="Shape" d="M39.486,6.263l0,6.356l-19.074,0c-0.409,-2.429 -0.4,-4.936 0.029,-7.367l18.034,0c0.559,0 1.011,0.452 1.011,1.011Z" style="fill:#fff;fill-opacity:0.3;fill-rule:nonzero;"/><path id="Shape2" serif:id="Shape" d="M30.883,43.835l-28.93,0c-0.208,0 -0.378,-0.169 -0.378,-0.378l0,-9.857c0,-0.348 -0.282,-0.63 -0.63,-0.63c-0.348,0 -0.63,0.282 -0.63,0.63l0,9.857c0,0.904 0.735,1.638 1.638,1.638l28.929,0c0.349,0 0.631,-0.282 0.631,-0.63c0,-0.348 -0.282,-0.63 -0.63,-0.63Z" style="fill:#535353;fill-rule:nonzero;"/><path id="Shape3" serif:id="Shape" d="M38.588,4.658l-1.886,0c0,0 -4.645,0 -5.805,0c-0.348,0 -0.63,0.282 -0.63,0.63c0,0.349 0.282,0.631 0.63,0.631c1.157,0 5.804,0 5.804,0l1.887,0c0.208,0 0.378,0.169 0.378,0.378l0,5.71l-37.391,0l0,-5.71c0,-0.209 0.17,-0.378 0.378,-0.378c0,0 6.754,0 7.256,0c0.348,0 0.63,-0.282 0.63,-0.631c0,-0.348 -0.282,-0.63 -0.63,-0.63c-0.5,0 -5.369,0 -5.369,0c-2,0 -2.223,-0.056 -2.702,0.217c-0.268,0.151 -0.495,0.393 -0.629,0.647c-0.286,0.539 -0.194,-1.198 -0.194,24.109c0,0.348 0.282,0.63 0.63,0.63c0.348,0 0.63,-0.282 0.63,-0.63l0,-16.364l37.391,0l0,30.19c0,0.209 -0.17,0.378 -0.378,0.378l-4.456,0c-0.348,0 -0.63,0.282 -0.63,0.63c0,0.349 0.282,0.631 0.63,0.631l4.456,0c0.903,0 1.638,-0.735 1.638,-1.639c0,-0.874 0,-36.375 0,-37.16c0,-0.904 -0.735,-1.639 -1.638,-1.639Z" style="fill:#535353;fill-rule:nonzero;"/><path id="Combined-Shape" d="M12.988,8.275l14.551,0l0,-3.233l-4.042,0l0,-0.809c0,-1.873 -1.361,-3.233 -3.234,-3.233c-1.873,0 -3.233,1.36 -3.233,3.233l0,0.809l-4.042,0l0,3.233Z" style="fill:#ffca54;"/><path id="Combined-Shape1" serif:id="Combined-Shape" d="M12.988,8.275l14.551,0l0,-3.233l-4.042,0l0,-0.809c0,-1.873 -1.361,-3.233 -3.234,-3.233c-1.873,0 -3.233,1.36 -3.233,3.233l0,0.809l-4.042,0l0,3.233Z" style="fill:#ffca54;"/><path d="M20.365,0.401c2.061,0.071 3.732,1.83 3.732,4.041l3.442,0c0.335,0.016 0.584,0.272 0.6,0.6l0,3.233c-0.016,0.329 -0.26,0.584 -0.6,0.6l-14.551,0c-0.329,-0.016 -0.583,-0.26 -0.6,-0.6l0,-3.233c0.017,-0.336 0.273,-0.584 0.6,-0.6l3.442,0c0,-0.269 -0.003,-0.273 0.01,-0.51c0.16,-1.983 1.727,-3.556 3.925,-3.531Zm-0.175,1.2c-1.357,0.046 -2.512,1.177 -2.559,2.559c-0.008,0.665 0.095,1.448 -0.601,1.482l-3.442,0l0,2.033l13.351,0l0,-2.033l-3.442,0c-0.855,-0.042 -0.388,-1.381 -0.776,-2.421c-0.371,-0.996 -1.429,-1.633 -2.531,-1.62Z" style="fill:#535353;fill-rule:nonzero;"/><path id="Fill-6" d="M20.263,5.042c-0.446,0 -0.808,-0.362 -0.808,-0.809c0,-0.447 0.362,-0.808 0.808,-0.808c0.447,0 0.809,0.361 0.809,0.808c0,0.447 -0.362,0.809 -0.809,0.809" style="fill:#535353;"/><path id="Fill-8" d="M21.414,28.765c0.256,0.001 0.462,0.21 0.46,0.465l0.679,0.005l0.363,0.002c0.003,-0.254 0.209,-0.459 0.464,-0.459l0.003,0l3.123,0.022c0.123,0.001 0.241,0.05 0.327,0.137c0.086,0.088 0.134,0.206 0.133,0.328l0.679,0.005l-0.016,2.208c-0.001,0.254 0.082,0.489 0.223,0.68l1.866,0.013l0.005,0c0.49,0 0.651,-0.585 0.689,-0.765c0.362,-1.722 0.564,-5.475 0.058,-7.437c-0.094,-0.364 -0.29,-0.798 -0.689,-0.8l-1.867,-0.013c-0.143,0.188 -0.229,0.422 -0.231,0.676l-0.015,2.208l-0.679,-0.005c-0.001,0.123 -0.051,0.24 -0.138,0.326c-0.088,0.086 -0.209,0.134 -0.329,0.134l-12.844,-0.089l-0.003,0.503c-0.002,0.255 -0.209,0.459 -0.463,0.459l-0.003,0c-0.256,-0.001 -0.462,-0.21 -0.46,-0.465l0.012,-1.805c0,-0.058 0.013,-0.114 0.033,-0.166l0.009,-1.203c0.002,-0.374 -0.3,-0.68 -0.675,-0.682l-1.126,-0.008c-0.199,0.907 -0.856,4.459 -0.11,9.002l1.174,0.008c0.174,-0.004 0.351,-0.069 0.48,-0.197c0.13,-0.127 0.202,-0.297 0.203,-0.476l0.016,-2.209c0,-0.122 0.05,-0.24 0.137,-0.326c0.088,-0.086 0.207,-0.132 0.329,-0.133l8.183,0.057Z" style="fill:#9bc93d;"/><path id="Fill-10" d="M9.228,31.258c-0.38,-1.897 -0.444,-5.636 0.046,-7.435c0.098,-0.361 0.299,-0.791 0.695,-0.791l0.023,0c-0.249,1.197 -0.795,4.608 -0.101,9c-0.473,-0.018 -0.627,-0.596 -0.663,-0.774m4.379,0.124l0.011,-1.746l0.678,0.005l7.029,0.048c0.257,0 0.463,-0.205 0.465,-0.459c0.002,-0.255 -0.204,-0.464 -0.459,-0.465l-8.168,-0.057c-0.122,0.001 -0.241,0.047 -0.328,0.133c-0.087,0.086 -0.137,0.204 -0.138,0.326l-0.015,2.209c-0.001,0.18 -0.073,0.349 -0.203,0.476c-0.129,0.128 -0.305,0.193 -0.479,0.197l-1.172,-0.009c-0.744,-4.542 -0.089,-8.094 0.11,-9.001l1.124,0.008c0.374,0.002 0.675,0.308 0.673,0.682l-0.054,3.174c-0.002,0.255 0.204,0.464 0.459,0.466c0.257,0 0.464,-0.205 0.466,-0.46l0.003,-0.503l12.821,0.089c0.12,0 0.241,-0.048 0.328,-0.134c0.088,-0.086 0.137,-0.203 0.138,-0.326l0.015,-2.208c0.001,-0.18 0.073,-0.349 0.202,-0.477c0.13,-0.128 0.302,-0.2 0.48,-0.196l0.227,0.002l1.863,0.013c0.399,0.002 0.594,0.436 0.688,0.8c0.505,1.962 0.303,5.715 -0.058,7.437c-0.038,0.18 -0.198,0.765 -0.688,0.765l-1.868,-0.014l-0.226,-0.001c-0.18,-0.001 -0.349,-0.073 -0.477,-0.203c-0.128,-0.129 -0.197,-0.299 -0.196,-0.479l0.015,-2.209l-2.44,-0.017l2.44,0.017c0.001,-0.122 -0.047,-0.24 -0.133,-0.328c-0.086,-0.087 -0.203,-0.136 -0.326,-0.137l-3.118,-0.022c-0.256,0 -0.463,0.205 -0.465,0.459c-0.002,0.256 0.204,0.464 0.459,0.466l2.656,0.018l-0.013,1.746c-0.003,0.427 0.162,0.83 0.463,1.136c0.301,0.305 0.702,0.475 1.128,0.478l2.09,0.014c0.421,0 0.789,-0.165 1.073,-0.455c0.253,-0.258 0.441,-0.614 0.531,-1.044c0.388,-1.852 0.594,-5.737 0.048,-7.857c-0.11,-0.429 -0.29,-0.775 -0.523,-1.025c-0.281,-0.303 -0.639,-0.467 -1.053,-0.47l-2.09,-0.015c-0.429,-0.001 -0.83,0.162 -1.136,0.463c-0.305,0.301 -0.475,0.702 -0.478,1.128l-0.012,1.747l-11.649,-0.081l-0.677,-0.004l0.012,-1.747c0.003,-0.445 -0.178,-0.85 -0.47,-1.143c-0.288,-0.287 -0.684,-0.467 -1.121,-0.47l-2.09,-0.014c-0.764,0 -1.342,0.536 -1.597,1.472c-0.576,2.111 -0.42,6.065 -0.061,7.86c0.185,0.917 0.806,1.514 1.583,1.519l2.089,0.014c0.426,-0.004 0.823,-0.158 1.127,-0.454c0.314,-0.309 0.484,-0.71 0.487,-1.137Z" style="fill:#535353;stroke:#535353;stroke-width:0.2px;"/></g></svg>