<?xml version="1.0" standalone="no"?>
<!DOCTYPE svg PUBLIC "-//W3C//DTD SVG 1.1//EN" "http://www.w3.org/Graphics/SVG/1.1/DTD/svg11.dtd" >
<svg xmlns="http://www.w3.org/2000/svg">
<metadata>Generated by IcoMoon</metadata>
<defs>
<font id="icomoon" horiz-adv-x="1024">
<font-face units-per-em="1024" ascent="960" descent="-64" />
<missing-glyph horiz-adv-x="1024" />
<glyph unicode="&#x20;" horiz-adv-x="512" d="" />
<glyph unicode="&#xe900;" horiz-adv-x="913" d="M856.487 843.086h-56.164v-82.655c0-17.43-12.355-31.588-27.603-31.588s-27.626 14.158-27.626 31.588v82.655h-56.609v-82.655c0-17.43-12.355-31.588-27.603-31.588s-27.626 14.158-27.626 31.588v82.655h-371.089v-82.655c0-17.43-12.355-31.588-27.603-31.588-15.271 0-27.626 14.158-27.626 31.588v82.655h-56.609v-82.655c0-17.43-12.355-31.588-27.626-31.588-15.249 0-27.603 14.158-27.603 31.588v82.655h-56.164c-12.422 0-22.506-11.531-22.506-25.734v-821.248c0-14.202 10.084-25.734 22.506-25.734h817.553c12.422 0 22.506 11.509 22.506 25.734v821.248c0 14.202-10.084 25.734-22.506 25.734z" />
<glyph unicode="&#xe901;" horiz-adv-x="913" d="M856.487 843.086h-56.164v-72.237c0-15.249-12.355-27.603-27.603-27.603s-27.626 12.355-27.626 27.603v72.237h-56.609v-72.237c0-15.249-12.355-27.603-27.603-27.603s-27.626 12.355-27.626 27.603v72.237h-178.221c-49.041-278.35 149.994-533.949 423.958-561.709v539.203c0 12.444-10.084 22.506-22.506 22.506z" />
<glyph unicode="&#xe902;" horiz-adv-x="913" d="M878.993 820.58v-141.49h-862.564c0 154.579-0.913 143.805 1.781 150.283v0.022c2.070 4.764 5.254 8.17 9.528 10.707 7.569 4.341 9.261 2.983 67.361 2.983v-72.237c0-15.226 12.355-27.603 27.626-27.603 15.249 0 27.626 12.377 27.626 27.603v72.237h56.587v-72.237c0-15.226 12.377-27.603 27.626-27.603s27.603 12.377 27.603 27.603v72.237h371.089v-72.237c0-15.226 12.355-27.603 27.626-27.603 15.249 0 27.626 12.377 27.626 27.603v72.237h56.587v-72.237c0-15.226 12.377-27.603 27.626-27.603s27.603 12.377 27.603 27.603v72.237h56.164c12.444 0 22.506-10.062 22.506-22.506z" />
<glyph unicode="&#xe903;" horiz-adv-x="913" d="M878.993 820.58v-141.49h-424.604c-9.105 54.072-8.904 109.88 0.646 163.996h178.221v-72.237c0-15.226 12.355-27.603 27.626-27.603 15.249 0 27.626 12.377 27.626 27.603v72.237h56.587v-72.237c0-15.226 12.377-27.603 27.626-27.603s27.603 12.377 27.603 27.603v72.237h56.164c12.444 0 22.506-10.062 22.506-22.506z" />
<glyph unicode="&#xe904;" horiz-adv-x="913" d="M82.699 843.086c-7.947-3.473-13.512-11.398-13.512-20.614v-143.382h-52.758c0 154.579-0.913 143.805 1.781 150.283v0.022c2.070 4.764 5.254 8.17 9.528 10.707 7.435 4.252 10.574 2.983 54.962 2.983z" />
<glyph unicode="&#xe905;" horiz-adv-x="913" d="M150.328 770.849c0-15.249-12.355-27.603-27.626-27.603-15.249 0-27.603 12.355-27.603 27.603v144.473c0 15.226 12.333 27.603 27.603 27.603s27.626-12.355 27.626-27.603v-144.473z" />
<glyph unicode="&#xe906;" horiz-adv-x="913" d="M262.166 770.849c0-15.249-12.355-27.603-27.603-27.603-15.271 0-27.626 12.355-27.626 27.603v144.473c0 15.249 12.377 27.603 27.626 27.603s27.603-12.355 27.603-27.603v-144.473z" />
<glyph unicode="&#xe907;" horiz-adv-x="913" d="M688.484 770.849c0-15.249-12.355-27.603-27.603-27.603-15.271 0-27.626 12.355-27.626 27.603v144.473c0 15.226 12.355 27.603 27.626 27.603 15.249 0 27.603-12.355 27.603-27.603v-144.473z" />
<glyph unicode="&#xe908;" horiz-adv-x="913" d="M800.323 770.849c0-15.249-12.355-27.603-27.603-27.603s-27.626 12.355-27.626 27.603v144.473c0 15.249 12.377 27.603 27.626 27.603s27.603-12.355 27.603-27.603v-144.473z" />
<glyph unicode="&#xe909;" horiz-adv-x="913" d="M123.837 770.849v144.473c0 9.973 5.32 18.699 13.245 23.552-18.41 11.242-41.984-2.048-41.984-23.552v-144.451c0-15.271 12.355-27.626 27.603-27.626 5.276 0 10.195 1.491 14.381 4.074-7.925 4.853-13.245 13.557-13.245 23.53z" />
<glyph unicode="&#xe90a;" horiz-adv-x="913" d="M235.676 770.849v144.473c0 9.973 5.32 18.699 13.245 23.552-4.185 2.56-9.105 4.051-14.358 4.051-15.271 0-27.626-12.355-27.626-27.603v-144.451c0-21.504 23.597-34.816 41.984-23.552-7.925 4.853-13.245 13.557-13.245 23.53z" />
<glyph unicode="&#xe90b;" horiz-adv-x="913" d="M662.016 770.849v144.473c0 9.973 5.298 18.699 13.223 23.552-18.387 11.242-41.984-2.048-41.984-23.552v-144.451c0-15.271 12.377-27.626 27.626-27.626 5.276 0 10.173 1.491 14.358 4.074-7.925 4.853-13.223 13.557-13.223 23.53z" />
<glyph unicode="&#xe90c;" horiz-adv-x="913" d="M773.855 770.849v144.473c0 9.973 5.298 18.699 13.245 23.552-4.207 2.56-9.105 4.051-14.381 4.051-15.249 0-27.626-12.355-27.626-27.603v-144.451c0-15.271 12.377-27.626 27.626-27.626 5.276 0 10.173 1.491 14.381 4.074-7.947 4.853-13.245 13.557-13.245 23.53z" />
<glyph unicode="&#xe90d;" horiz-adv-x="913" d="M687.482-15.805h-644.007c-4.63 0-8.415 3.762-8.415 8.415v219.425c0 7.747-6.278 14.024-14.024 14.024s-14.024-6.278-14.024-14.024v-219.425c0-20.124 16.362-36.463 36.463-36.463h643.985c7.769 0 14.047 6.278 14.047 14.024s-6.278 14.024-14.024 14.024z" />
<glyph unicode="&#xe90e;" horiz-adv-x="913" d="M859.002 856.309h-41.984v58.012c0 22.929-18.655 41.583-41.583 41.583s-41.583-18.655-41.583-41.583v-58.012h-28.405v58.012c0 22.929-18.655 41.583-41.583 41.583s-41.583-18.655-41.583-41.583v-58.012h-45.791c-7.747 0-14.024-6.278-14.024-14.024 0-7.769 6.278-14.047 14.024-14.047h45.791c0-61.974-1.959-68.207 7.457-81.72 23.218-33.302 75.709-16.874 75.709 23.708v58.012h28.405v-58.012c0-34.17 39.157-53.715 66.426-33.302 10.151 7.591 16.718 19.701 16.718 33.302v58.012h42.006c4.63 0 8.415-3.762 8.415-8.415v-127.11h-832.356v127.11c0 4.653 3.784 8.415 8.415 8.415h42.006c0-61.64-1.981-67.807 7.101-81.252 22.951-33.926 76.043-17.542 76.043 23.24v58.012h28.405v-58.012c0-22.929 18.655-41.583 41.583-41.583s41.561 18.655 41.561 41.583v58.012h236.477c7.747 0 14.024 6.278 14.024 14.047 0 7.747-6.278 14.024-14.024 14.024h-236.477v58.012c0 22.929-18.632 41.583-41.561 41.583s-41.583-18.655-41.583-41.583v-58.012h-28.405v58.012c0 22.929-18.655 41.583-41.583 41.583s-41.561-18.655-41.561-41.583v-58.012c-44.522 0-49.486 1.247-60.149-4.831-5.966-3.361-11.019-8.749-14.002-14.403-6.367-11.999-4.319 26.669-4.319-536.687 0-7.747 6.278-14.024 14.024-14.024s14.024 6.278 14.024 14.024v364.277h832.356v-672.056c0-4.653-3.784-8.415-8.415-8.415h-99.194c-7.747 0-14.024-6.278-14.024-14.024 0-7.769 6.278-14.047 14.024-14.047h99.194c20.102 0 36.463 16.362 36.463 36.486 0 19.456 0 809.739 0 827.214 0 20.124-16.362 36.486-36.463 36.486zM663.864 927.833c7.457 0 13.512-6.055 13.512-13.512v-144.095c0-11.42-13.334-17.675-22.105-10.44-3.005 2.493-4.92 6.255-4.92 10.44 0 28.761 0 115.423 0 144.095 0 7.457 6.055 13.512 13.512 13.512zM761.923 914.321c0 7.457 6.055 13.512 13.512 13.512s13.512-6.055 13.512-13.512c0-156.16 1.491-148.191-3.962-153.645-8.481-8.504-23.062-2.471-23.062 9.55 0 17.564 0 126.531 0 144.095zM225.102 914.321c0 7.457 6.055 13.512 13.512 13.512s13.512-6.055 13.512-13.512v-144.095c0-7.457-6.055-13.512-13.512-13.512s-13.512 6.055-13.512 13.512c0 17.564 0 126.531 0 144.095zM127.043 927.833c7.457 0 13.535-6.055 13.535-13.512v-144.095c0-7.457-6.077-13.512-13.535-13.512s-13.512 6.055-13.512 13.512c0 11.687 0 117.805 0 144.095 0 7.457 6.055 13.512 13.512 13.512z" />
<glyph unicode="&#xe90f;" horiz-adv-x="913" d="M213.192 581.521c16.74-1.269 30.364-14.87 31.633-31.633 1.18-46.147 7.034-98.905-31.633-101.843-46.147-1.18-98.905-7.034-101.843 31.633-1.18 46.147-7.034 98.905 31.633 101.843 23.396 0.601 46.815 0.601 70.211 0zM144.829 559.304c-18.187-0.467-12.088-44.945-11.242-78.492 1.336-17.697 45.279-11.375 78.47-10.529 17.297 1.313 11.375 45.279 10.529 78.47-1.336 17.631-44.856 10.552-77.757 10.552z" />
<glyph unicode="&#xe910;" horiz-adv-x="913" d="M213.192 399.827c16.74-1.269 30.364-14.87 31.633-31.633 1.18-46.147 7.034-98.905-31.633-101.843-46.147-1.158-98.905-7.012-101.843 31.655-1.18 46.125-7.034 98.883 31.633 101.821 23.396 0.601 46.815 0.601 70.211 0zM144.829 377.611c-18.187-0.445-12.088-44.945-11.242-78.492 1.336-17.697 45.279-11.375 78.47-10.529 17.297 1.313 11.375 45.279 10.529 78.47-1.336 17.653-44.856 10.552-77.757 10.552z" />
<glyph unicode="&#xe911;" horiz-adv-x="913" d="M213.192 218.157c16.696-1.269 30.364-14.803 31.633-31.655 1.18-46.125 7.034-98.883-31.633-101.843-46.147-1.158-98.905-7.012-101.843 31.655-1.18 46.147-7.034 98.883 31.633 101.843 23.396 0.579 46.815 0.579 70.211 0zM144.829 195.94c-18.165-0.467-12.088-44.967-11.242-78.514 1.313-17.274 45.279-11.353 78.47-10.529 17.697 1.358 11.375 45.279 10.529 78.492-1.313 17.274-44.9 10.552-77.757 10.552z" />
<glyph unicode="&#xe912;" horiz-adv-x="913" d="M399.961 581.521c16.696-1.269 30.364-14.781 31.633-31.633 1.18-46.147 7.034-98.905-31.633-101.843-46.147-1.18-98.905-7.034-101.843 31.633-1.18 46.147-7.034 98.905 31.633 101.843 23.396 0.601 46.815 0.601 70.211 0zM331.598 559.304c-18.165-0.467-12.088-44.945-11.242-78.492 1.336-17.697 45.279-11.375 78.47-10.529 17.297 1.313 11.375 45.279 10.529 78.47-1.336 17.631-44.856 10.552-77.757 10.552z" />
<glyph unicode="&#xe913;" horiz-adv-x="913" d="M399.961 399.827c16.696-1.269 30.364-14.781 31.633-31.633 1.18-46.147 7.034-98.905-31.633-101.843-46.147-1.158-98.905-7.012-101.843 31.655-1.18 46.125-7.034 98.883 31.633 101.821 23.396 0.601 46.815 0.601 70.211 0zM331.598 377.611c-18.165-0.445-12.088-44.945-11.242-78.492 1.336-17.697 45.279-11.375 78.47-10.529 17.297 1.313 11.375 45.279 10.529 78.47-1.336 17.653-44.856 10.552-77.757 10.552z" />
<glyph unicode="&#xe914;" horiz-adv-x="913" d="M420.508 184.81c0 12.266-9.973 22.261-22.261 22.261h-66.783c-12.288 0-22.261-9.995-22.261-22.261v-66.783c0-12.288 9.973-22.261 22.261-22.261h66.783c12.288 0 22.261 9.973 22.261 22.261v66.783z" />
<glyph unicode="&#xe915;" horiz-adv-x="913" d="M399.961 218.157c16.696-1.269 30.364-14.803 31.633-31.655 1.18-46.125 7.034-98.883-31.633-101.843-46.147-1.158-98.905-7.012-101.843 31.655-1.18 46.147-7.034 98.883 31.633 101.843 23.396 0.579 46.815 0.579 70.211 0zM331.598 195.94c-18.165-0.467-12.088-44.967-11.242-78.514 1.313-17.274 45.279-11.353 78.47-10.529 17.697 1.358 11.375 45.279 10.529 78.492-1.313 17.274-44.9 10.552-77.757 10.552z" />
<glyph unicode="&#xe916;" horiz-adv-x="913" d="M586.73 581.521c16.74-1.269 30.364-14.87 31.633-31.633 1.18-46.147 7.034-98.905-31.633-101.843-46.147-1.18-98.905-7.034-101.843 31.633-1.18 46.147-7.034 98.905 31.633 101.843 23.396 0.601 46.815 0.601 70.211 0zM518.367 559.304c-18.165-0.467-12.088-44.945-11.242-78.492 1.336-17.697 45.279-11.375 78.47-10.529 17.297 1.313 11.375 45.279 10.529 78.47-1.336 17.631-44.856 10.552-77.757 10.552z" />
<glyph unicode="&#xe917;" horiz-adv-x="913" d="M586.73 399.827c16.74-1.269 30.364-14.87 31.633-31.633 1.18-46.147 7.034-98.905-31.633-101.843-46.147-1.158-98.905-7.012-101.843 31.655-1.18 46.125-7.034 98.883 31.633 101.821 23.396 0.601 46.815 0.601 70.211 0zM518.367 377.611c-18.165-0.445-12.088-44.945-11.242-78.492 1.336-17.697 45.279-11.375 78.47-10.529 17.297 1.313 11.375 45.279 10.529 78.47-1.336 17.653-44.856 10.552-77.757 10.552z" />
<glyph unicode="&#xe918;" horiz-adv-x="913" d="M773.498 581.521c16.74-1.269 30.364-14.87 31.633-31.633 1.18-46.147 7.034-98.905-31.633-101.843-46.147-1.18-98.905-7.034-101.843 31.633-1.18 46.147-7.034 98.905 31.633 101.843 23.396 0.601 46.815 0.601 70.211 0zM705.135 559.304c-18.165-0.467-12.088-44.945-11.242-78.492 1.336-17.697 45.279-11.375 78.47-10.529 17.297 1.313 11.375 45.279 10.529 78.47-1.336 17.631-44.856 10.552-77.757 10.552z" />
<glyph unicode="&#xe919;" horiz-adv-x="913" d="M773.498 399.827c16.74-1.269 30.364-14.87 31.633-31.633 1.18-46.147 7.034-98.905-31.633-101.843-46.147-1.158-98.905-7.012-101.843 31.655-1.18 46.125-7.034 98.883 31.633 101.821 23.396 0.601 46.815 0.601 70.211 0zM705.135 377.611c-18.165-0.445-12.088-44.945-11.242-78.492 1.336-17.697 45.279-11.375 78.47-10.529 17.297 1.313 11.375 45.279 10.529 78.47-1.336 17.653-44.856 10.552-77.757 10.552z" />
<glyph unicode="&#xe91a;" glyph-name="calender-inactive" horiz-adv-x="913" d="M687.482-15.805h-644.007c-4.63 0-8.415 3.762-8.415 8.415v219.425c0 7.747-6.278 14.024-14.024 14.024s-14.024-6.278-14.024-14.024v-219.425c0-20.124 16.362-36.463 36.463-36.463h643.985c7.769 0 14.047 6.278 14.047 14.024s-6.278 14.024-14.024 14.024zM859.002 856.309h-41.984v58.012c0 22.929-18.655 41.583-41.583 41.583s-41.583-18.655-41.583-41.583v-58.012h-28.405v58.012c0 22.929-18.655 41.583-41.583 41.583s-41.583-18.655-41.583-41.583v-58.012h-45.791c-7.747 0-14.024-6.278-14.024-14.024 0-7.769 6.278-14.047 14.024-14.047h45.791c0-61.974-1.959-68.207 7.457-81.72 23.218-33.302 75.709-16.874 75.709 23.708v58.012h28.405v-58.012c0-34.17 39.157-53.715 66.426-33.302 10.151 7.591 16.718 19.701 16.718 33.302v58.012h42.006c4.63 0 8.415-3.762 8.415-8.415v-127.11h-832.356v127.11c0 4.653 3.784 8.415 8.415 8.415h42.006c0-61.64-1.981-67.807 7.101-81.252 22.951-33.926 76.043-17.542 76.043 23.24v58.012h28.405v-58.012c0-22.929 18.655-41.583 41.583-41.583s41.561 18.655 41.561 41.583v58.012h236.477c7.747 0 14.024 6.278 14.024 14.047 0 7.747-6.278 14.024-14.024 14.024h-236.477v58.012c0 22.929-18.632 41.583-41.561 41.583s-41.583-18.655-41.583-41.583v-58.012h-28.405v58.012c0 22.929-18.655 41.583-41.583 41.583s-41.561-18.655-41.561-41.583v-58.012c-44.522 0-49.486 1.247-60.149-4.831-5.966-3.361-11.019-8.749-14.002-14.403-6.367-11.999-4.319 26.669-4.319-536.687 0-7.747 6.278-14.024 14.024-14.024s14.024 6.278 14.024 14.024v364.277h832.356v-672.056c0-4.653-3.784-8.415-8.415-8.415h-99.194c-7.747 0-14.024-6.278-14.024-14.024 0-7.769 6.278-14.047 14.024-14.047h99.194c20.102 0 36.463 16.362 36.463 36.486 0 19.456 0 809.739 0 827.214 0 20.124-16.362 36.486-36.463 36.486zM663.864 927.833c7.457 0 13.512-6.055 13.512-13.512v-144.095c0-11.42-13.334-17.675-22.105-10.44-3.005 2.493-4.92 6.255-4.92 10.44 0 28.761 0 115.423 0 144.095 0 7.457 6.055 13.512 13.512 13.512zM761.923 914.321c0 7.457 6.055 13.512 13.512 13.512s13.512-6.055 13.512-13.512c0-156.16 1.491-148.191-3.962-153.645-8.481-8.504-23.062-2.471-23.062 9.55 0 17.564 0 126.531 0 144.095zM225.102 914.321c0 7.457 6.055 13.512 13.512 13.512s13.512-6.055 13.512-13.512v-144.095c0-7.457-6.055-13.512-13.512-13.512s-13.512 6.055-13.512 13.512c0 17.564 0 126.531 0 144.095zM127.043 927.833c7.457 0 13.535-6.055 13.535-13.512v-144.095c0-7.457-6.077-13.512-13.535-13.512s-13.512 6.055-13.512 13.512c0 11.687 0 117.805 0 144.095 0 7.457 6.055 13.512 13.512 13.512zM213.192 581.521c16.74-1.269 30.364-14.87 31.633-31.633 1.18-46.147 7.034-98.905-31.633-101.843-46.147-1.18-98.905-7.034-101.843 31.633-1.18 46.147-7.034 98.905 31.633 101.843 23.396 0.601 46.815 0.601 70.211 0zM144.829 559.304c-18.187-0.467-12.088-44.945-11.242-78.492 1.336-17.697 45.279-11.375 78.47-10.529 17.297 1.313 11.375 45.279 10.529 78.47-1.336 17.631-44.856 10.552-77.757 10.552zM213.192 399.827c16.74-1.269 30.364-14.87 31.633-31.633 1.18-46.147 7.034-98.905-31.633-101.843-46.147-1.158-98.905-7.012-101.843 31.655-1.18 46.125-7.034 98.883 31.633 101.821 23.396 0.601 46.815 0.601 70.211 0zM144.829 377.611c-18.187-0.445-12.088-44.945-11.242-78.492 1.336-17.697 45.279-11.375 78.47-10.529 17.297 1.313 11.375 45.279 10.529 78.47-1.336 17.653-44.856 10.552-77.757 10.552zM213.192 218.157c16.696-1.269 30.364-14.803 31.633-31.655 1.18-46.125 7.034-98.883-31.633-101.843-46.147-1.158-98.905-7.012-101.843 31.655-1.18 46.147-7.034 98.883 31.633 101.843 23.396 0.579 46.815 0.579 70.211 0zM144.829 195.94c-18.165-0.467-12.088-44.967-11.242-78.514 1.313-17.274 45.279-11.353 78.47-10.529 17.697 1.358 11.375 45.279 10.529 78.492-1.313 17.274-44.9 10.552-77.757 10.552zM399.961 581.521c16.696-1.269 30.364-14.781 31.633-31.633 1.18-46.147 7.034-98.905-31.633-101.843-46.147-1.18-98.905-7.034-101.843 31.633-1.18 46.147-7.034 98.905 31.633 101.843 23.396 0.601 46.815 0.601 70.211 0zM331.598 559.304c-18.165-0.467-12.088-44.945-11.242-78.492 1.336-17.697 45.279-11.375 78.47-10.529 17.297 1.313 11.375 45.279 10.529 78.47-1.336 17.631-44.856 10.552-77.757 10.552zM399.961 399.827c16.696-1.269 30.364-14.781 31.633-31.633 1.18-46.147 7.034-98.905-31.633-101.843-46.147-1.158-98.905-7.012-101.843 31.655-1.18 46.125-7.034 98.883 31.633 101.821 23.396 0.601 46.815 0.601 70.211 0zM331.598 377.611c-18.165-0.445-12.088-44.945-11.242-78.492 1.336-17.697 45.279-11.375 78.47-10.529 17.297 1.313 11.375 45.279 10.529 78.47-1.336 17.653-44.856 10.552-77.757 10.552zM399.961 218.157c16.696-1.269 30.364-14.803 31.633-31.655 1.18-46.125 7.034-98.883-31.633-101.843-46.147-1.158-98.905-7.012-101.843 31.655-1.18 46.147-7.034 98.883 31.633 101.843 23.396 0.579 46.815 0.579 70.211 0zM331.598 195.94c-18.165-0.467-12.088-44.967-11.242-78.514 1.313-17.274 45.279-11.353 78.47-10.529 17.697 1.358 11.375 45.279 10.529 78.492-1.313 17.274-44.9 10.552-77.757 10.552zM586.73 581.521c16.74-1.269 30.364-14.87 31.633-31.633 1.18-46.147 7.034-98.905-31.633-101.843-46.147-1.18-98.905-7.034-101.843 31.633-1.18 46.147-7.034 98.905 31.633 101.843 23.396 0.601 46.815 0.601 70.211 0zM518.367 559.304c-18.165-0.467-12.088-44.945-11.242-78.492 1.336-17.697 45.279-11.375 78.47-10.529 17.297 1.313 11.375 45.279 10.529 78.47-1.336 17.631-44.856 10.552-77.757 10.552zM586.73 399.827c16.74-1.269 30.364-14.87 31.633-31.633 1.18-46.147 7.034-98.905-31.633-101.843-46.147-1.158-98.905-7.012-101.843 31.655-1.18 46.125-7.034 98.883 31.633 101.821 23.396 0.601 46.815 0.601 70.211 0zM518.367 377.611c-18.165-0.445-12.088-44.945-11.242-78.492 1.336-17.697 45.279-11.375 78.47-10.529 17.297 1.313 11.375 45.279 10.529 78.47-1.336 17.653-44.856 10.552-77.757 10.552zM773.498 581.521c16.74-1.269 30.364-14.87 31.633-31.633 1.18-46.147 7.034-98.905-31.633-101.843-46.147-1.18-98.905-7.034-101.843 31.633-1.18 46.147-7.034 98.905 31.633 101.843 23.396 0.601 46.815 0.601 70.211 0zM705.135 559.304c-18.165-0.467-12.088-44.945-11.242-78.492 1.336-17.697 45.279-11.375 78.47-10.529 17.297 1.313 11.375 45.279 10.529 78.47-1.336 17.631-44.856 10.552-77.757 10.552zM773.498 399.827c16.74-1.269 30.364-14.87 31.633-31.633 1.18-46.147 7.034-98.905-31.633-101.843-46.147-1.158-98.905-7.012-101.843 31.655-1.18 46.125-7.034 98.883 31.633 101.821 23.396 0.601 46.815 0.601 70.211 0zM705.135 377.611c-18.165-0.445-12.088-44.945-11.242-78.492 1.336-17.697 45.279-11.375 78.47-10.529 17.297 1.313 11.375 45.279 10.529 78.47-1.336 17.653-44.856 10.552-77.757 10.552z" />
<glyph unicode="&#xe91b;" d="M516.339 937.957c-265 0-479.825-215.094-479.825-480.391 0-265.324 214.824-480.391 479.825-480.391 264.973 0 479.798 215.067 479.798 480.391 0 265.297-214.824 480.391-479.798 480.391z" />
<glyph unicode="&#xe91c;" d="M822.649 339.725c-93.965-212.884-251.661-174.673-306.311-362.55 264.973 0 479.798 215.067 479.798 480.391 0 141.069-60.739 267.965-157.48 355.84-73.566-165.915 77.959-260.797-16.007-473.681z" />
<glyph unicode="&#xe91d;" d="M36.217 479.501c17.381-4.743 15.872-4.824 16.384-31.69 6.306-199.599 151.067-383.973 344.576-433.799 101.538-26.166 211.725-16.141 307.389 27.675 0 0 7.276 3.773 13.581 3.072 19.968-2.183 32.579-27.244-8.866-45.218-201.378-85.8-455.357-21.235-590.605 151.094-67.099 85.477-105.203 191.731-106.604 302.592-0.189 14.013 7.249 28.483 24.145 26.274zM856.576 141.77c18.163-4.392 22.205-23.39 1.725-43.251-17.031-16.222-42.712-36.675-42.712-36.675-20.157-13.474-50.472 11.237-15.198 39.451 17.489 14.255 40.556 36.648 40.556 36.648 3.53 2.317 4.473 4.958 15.629 3.827zM518.521 960.243c214.932-4.069 415.852-156.456 474.597-363.52 37.322-131.584 17.974-277.127-52.763-395.533 0 0-8.785-17.785-23.148-16.68-16.815 1.32-21.962 19.995-9.459 40.933 97.307 166.077 77.123 390.602-48.155 535.39-131.8 152.36-369.017 201.566-550.696 111.778-111.939-55.323-198.683-157.75-236.113-277.154 0 0-5.74-12.099-15.791-13.878-16.653-2.91-27.432 12.477-18.486 39.235 67.153 194.803 259.665 336.977 469.531 339.456 5.228 0.027 5.228 0.027 10.483-0.027z" />
<glyph unicode="&#xe91e;" d="M435.82 183.7v77.77h77.77v-77.77h-77.77zM435.82 339.618v21.315c0 50.257 19.348 97.496 58.018 141.716l24.872 28.807c41.31 47.373 61.979 86.205 61.979 116.467 0 23.417-9.081 41.957-27.244 55.646-18.136 13.689-42.631 20.534-73.405 20.534-40.259 0-83.025-9.755-128.296-29.211v65.913c48.694 14.74 94.208 22.097 136.569 22.097 53.706 0 96.337-12.019 127.892-36.109 31.582-24.091 47.373-56.643 47.373-97.684 0-23.175-4.527-43.116-13.608-59.823s-26.516-37.295-52.305-61.763l-24.468-22.905c-24.468-23.148-40.529-42.55-48.155-58.206-7.653-15.683-11.453-36.783-11.453-63.38v-43.412h-77.77z" />
<glyph unicode="&#xe91f;" glyph-name="help-inactive" d="M37.942 467.483c17.381-4.743 15.872-4.824 16.384-31.69 6.279-198.845 150.259-383.757 344.576-433.799 101.538-26.166 211.725-16.141 307.362 27.675 0 0 7.276 3.8 13.608 3.099 19.941-2.21 32.552-27.244-8.866-45.245-201.351-85.8-455.357-21.235-590.605 151.094-67.099 85.477-105.203 191.757-106.604 302.592-0.189 14.013 7.276 28.483 24.145 26.274zM858.301 129.752c18.163-4.392 22.205-23.39 1.725-43.251-17.031-16.222-42.685-36.648-42.685-36.648-7.491-5.012-10.617-4.77-15.603-3.961-17.893 2.91-22.366 25.196 0.377 43.385 17.489 14.255 40.556 36.648 40.556 36.648 3.53 2.317 4.473 4.958 15.629 3.827zM520.246 948.251c214.932-4.096 415.852-156.483 474.597-363.547 37.322-131.584 17.974-277.154-52.763-395.533 0 0-6.818-14.201-17.677-16.33-17.812-3.53-29.507 16.195-14.929 40.583 97.334 166.050 77.123 390.629-48.155 535.417-131.8 152.333-369.017 201.539-550.696 111.751-111.939-55.323-198.71-157.75-236.14-277.154 0 0-3.961-9.027-10.536-12.18-16.519-7.949-33.63 7.923-23.714 37.538 67.341 195.422 259.692 336.977 469.531 339.483 5.255 0 5.228 0 10.483-0.027zM440.212 160.094v77.743h77.77v-77.743h-77.77zM440.212 316.012v21.315c0 50.257 19.348 97.496 58.018 141.716l24.872 28.807c41.31 47.373 61.979 86.178 61.979 116.44 0 23.417-9.081 41.984-27.244 55.673-18.136 13.662-42.631 20.507-73.405 20.507-40.259 0-83.025-9.728-128.296-29.211v65.94c48.694 14.74 94.208 22.097 136.569 22.097 53.706 0 96.337-12.045 127.892-36.109 31.582-24.091 47.373-56.643 47.373-97.711 0-23.148-4.527-43.089-13.608-59.796s-26.516-37.295-52.305-61.79l-24.468-22.878c-24.468-23.175-40.529-42.577-48.155-58.233-7.653-15.656-11.453-36.783-11.453-63.353v-43.412h-77.77z" />
<glyph unicode="&#xe920;" horiz-adv-x="913" d="M22.261 670.609h845.913v-690.087h-845.913v690.087z" />
<glyph unicode="&#xe921;" horiz-adv-x="913" d="M878.993 820.58v-141.49h-862.564c0 154.579-0.913 143.805 1.781 150.283 2.070 4.786 5.254 8.192 9.528 10.73 7.569 4.341 9.261 2.983 67.361 2.983h761.389c12.444 0 22.506-10.062 22.506-22.506z" />
<glyph unicode="&#xe922;" horiz-adv-x="913" d="M878.993 820.58v-141.49h-424.604c-9.105 54.072-8.904 109.88 0.646 163.996h401.453c12.444 0 22.506-10.062 22.506-22.506z" />
<glyph unicode="&#xe923;" horiz-adv-x="913" d="M687.482-15.805h-644.007c-4.63 0-8.415 3.762-8.415 8.415v219.425c0 7.747-6.278 14.024-14.024 14.024s-14.024-6.278-14.024-14.024v-219.425c0-20.124 16.362-36.463 36.463-36.463h643.985c7.769 0 14.047 6.278 14.047 14.024s-6.278 14.024-14.024 14.024z" />
<glyph unicode="&#xe924;" horiz-adv-x="913" d="M859.002 856.309h-41.984c0 0-103.402 0-129.224 0-7.747 0-14.024-6.278-14.024-14.024 0-7.769 6.278-14.047 14.024-14.047 25.756 0 129.202 0 129.202 0h42.006c4.63 0 8.415-3.762 8.415-8.415v-127.11h-832.356v127.11c0 4.653 3.784 8.415 8.415 8.415 0 0 150.35 0 161.525 0 7.747 0 14.024 6.278 14.024 14.047 0 7.747-6.278 14.024-14.024 14.024-11.13 0-119.519 0-119.519 0-44.522 0-49.486 1.247-60.149-4.831-5.966-3.361-11.019-8.749-14.002-14.403-6.367-11.999-4.319 26.669-4.319-536.687 0-7.747 6.278-14.024 14.024-14.024s14.024 6.278 14.024 14.024v364.277h832.356v-672.056c0-4.653-3.784-8.415-8.415-8.415h-99.194c-7.747 0-14.024-6.278-14.024-14.024 0-7.769 6.278-14.047 14.024-14.047h99.194c20.102 0 36.463 16.362 36.463 36.486 0 19.456 0 809.739 0 827.214 0 20.124-16.362 36.486-36.463 36.486z" />
<glyph unicode="&#xe925;" horiz-adv-x="913" d="M289.124 775.791h323.918v71.969h-89.978v18.009c0 41.695-30.297 71.969-71.992 71.969s-71.969-30.275-71.969-71.969v-18.009h-89.978v-71.969z" />
<glyph unicode="&#xe926;" horiz-adv-x="913" d="M453.343 951.073c45.88-1.581 83.078-40.737 83.078-89.956h76.622c7.457-0.356 13-6.055 13.357-13.357v-71.969c-0.356-7.324-5.788-13-13.357-13.357h-323.918c-7.324 0.356-12.978 5.788-13.357 13.357v71.969c0.378 7.48 6.077 13 13.357 13.357h76.622c0 5.988-0.067 6.077 0.223 11.353 3.562 44.143 38.445 79.16 87.374 78.603zM449.447 924.36c-30.208-1.024-55.919-26.201-56.966-56.966-0.178-14.803 2.115-32.234-13.379-32.991h-76.622v-45.256h297.205v45.256h-76.622c-19.033 0.935-8.637 30.742-17.274 53.894-8.259 22.172-31.811 36.352-56.342 36.063z" />
<glyph unicode="&#xe927;" horiz-adv-x="913" d="M451.072 847.761c-9.928 0-17.987 8.058-17.987 18.009s8.058 17.987 17.987 17.987c9.951 0 18.009-8.036 18.009-17.987s-8.058-18.009-18.009-18.009z" />
<glyph unicode="&#xe928;" horiz-adv-x="913" d="M476.694 319.666c5.699-0.022 10.285-4.675 10.24-10.351l23.196-0.156c0.067 5.654 4.653 10.218 10.329 10.218h0.067l69.521-0.49c2.738-0.022 5.365-1.113 7.279-3.050 1.914-1.959 2.983-4.586 2.961-7.302l15.115-0.111-0.356-49.152c-0.022-5.654 1.825-10.886 4.964-15.137l41.65-0.289c10.908 0 14.492 13.023 15.338 17.030 8.058 38.333 12.555 121.878 1.291 165.554-2.093 8.103-6.456 17.764-15.338 17.809l-41.561 0.289c-3.183-4.185-5.098-9.394-5.142-15.048l-0.334-49.152-15.115 0.111c-0.022-2.738-1.135-5.343-3.072-7.257-1.959-1.914-4.653-2.983-7.324-2.983l-285.919 1.981-0.067-11.197c-0.045-5.677-4.653-10.218-10.307-10.218h-0.067c-5.699 0.022-10.285 4.675-10.24 10.351l0.267 40.181c0 1.291 0.289 2.538 0.735 3.695l0.2 26.78c0.045 8.326-6.678 15.137-15.026 15.182l-25.066 0.178c-4.43-20.191-19.055-99.261-2.449-200.392l26.134-0.178c3.873 0.089 7.814 1.536 10.685 4.385 2.894 2.827 4.497 6.611 4.519 10.596l0.356 49.174c0 2.716 1.113 5.343 3.050 7.257 1.959 1.914 4.608 2.938 7.324 2.961l182.161-1.269z" />
<glyph unicode="&#xe929;" horiz-adv-x="913" d="M205.423 264.17c-8.459 42.229-9.884 125.462 1.024 165.51 2.182 8.036 6.656 17.608 15.471 17.608h0.512c-5.543-26.646-17.697-102.578-2.248-200.348-10.529 0.401-13.958 13.267-14.759 17.23M302.904 261.409l0.245 38.867 171.565-1.18c5.721 0 10.307 4.563 10.351 10.218 0.045 5.677-4.541 10.329-10.218 10.351l-181.827 1.269c-2.716-0.022-5.365-1.046-7.302-2.961s-3.050-4.541-3.072-7.257l-0.334-49.174c-0.022-4.007-1.625-7.769-4.519-10.596-2.872-2.849-6.79-4.296-10.663-4.385l-26.090 0.2c-16.562 101.109-1.981 180.179 2.449 200.37l25.021-0.178c8.326-0.045 15.026-6.856 14.982-15.182l-1.202-70.656c-0.045-5.677 4.541-10.329 10.218-10.374 5.721 0 10.329 4.563 10.374 10.24l0.067 11.197 285.407-1.981c2.671 0 5.365 1.069 7.302 2.983 1.959 1.914 3.050 4.519 3.072 7.257l0.334 49.152c0.022 4.007 1.625 7.769 4.497 10.618 2.894 2.849 6.723 4.452 10.685 4.363l5.053-0.045 41.472-0.289c8.882-0.045 13.223-9.706 15.315-17.809 11.242-43.676 6.745-127.221-1.291-165.554-0.846-4.007-4.408-17.030-15.315-17.030l-46.614 0.334c-4.007 0.022-7.769 1.625-10.618 4.519-2.849 2.872-4.385 6.656-4.363 10.663l0.334 49.174c0.022 2.716-1.046 5.343-2.961 7.302-1.914 1.937-4.519 3.027-7.257 3.050l-69.409 0.49c-5.699 0-10.307-4.563-10.351-10.218-0.045-5.699 4.541-10.329 10.218-10.374l59.125-0.401-0.289-38.867c-0.067-9.505 3.606-18.477 10.307-25.288 6.701-6.79 15.627-10.574 25.11-10.641l46.525-0.312c9.372 0 17.564 3.673 23.886 10.129 5.632 5.743 9.817 13.668 11.821 23.24 8.637 41.227 13.223 127.711 1.069 174.904-2.449 9.55-6.456 17.252-11.642 22.817-6.255 6.745-14.225 10.396-23.441 10.463l-46.525 0.334c-9.55 0.022-18.477-3.606-25.288-10.307-6.79-6.701-10.574-15.627-10.641-25.11l-0.267-38.89-274.387 1.892 0.267 38.89c0.067 9.906-3.962 18.922-10.463 25.444-6.411 6.389-15.226 10.396-24.954 10.463l-46.525 0.312c-17.007 0-29.874-11.932-35.551-32.768-12.822-46.993-9.35-135.012-1.358-174.97 4.118-20.413 17.942-33.703 35.239-33.814l46.503-0.312c9.483 0.089 18.321 3.517 25.088 10.106 6.99 6.879 10.774 15.805 10.841 25.311z" />
<glyph unicode="&#xe92a;" glyph-name="workout-inactive" horiz-adv-x="913" d="M687.482-15.805h-644.007c-4.63 0-8.415 3.762-8.415 8.415v219.425c0 7.747-6.278 14.024-14.024 14.024s-14.024-6.278-14.024-14.024v-219.425c0-20.124 16.362-36.463 36.463-36.463h643.985c7.769 0 14.047 6.278 14.047 14.024s-6.278 14.024-14.024 14.024zM859.002 856.309h-41.984c0 0-103.402 0-129.224 0-7.747 0-14.024-6.278-14.024-14.024 0-7.769 6.278-14.047 14.024-14.047 25.756 0 129.202 0 129.202 0h42.006c4.63 0 8.415-3.762 8.415-8.415v-127.11h-832.356v127.11c0 4.653 3.784 8.415 8.415 8.415 0 0 150.35 0 161.525 0 7.747 0 14.024 6.278 14.024 14.047 0 7.747-6.278 14.024-14.024 14.024-11.13 0-119.519 0-119.519 0-44.522 0-49.486 1.247-60.149-4.831-5.966-3.361-11.019-8.749-14.002-14.403-6.367-11.999-4.319 26.669-4.319-536.687 0-7.747 6.278-14.024 14.024-14.024s14.024 6.278 14.024 14.024v364.277h832.356v-672.056c0-4.653-3.784-8.415-8.415-8.415h-99.194c-7.747 0-14.024-6.278-14.024-14.024 0-7.769 6.278-14.047 14.024-14.047h99.194c20.102 0 36.463 16.362 36.463 36.486 0 19.456 0 809.739 0 827.214 0 20.124-16.362 36.486-36.463 36.486zM453.343 951.073c45.88-1.581 83.078-40.737 83.078-89.956h76.622c7.457-0.356 13-6.055 13.357-13.357v-71.969c-0.356-7.324-5.788-13-13.357-13.357h-323.918c-7.324 0.356-12.978 5.788-13.357 13.357v71.969c0.378 7.48 6.077 13 13.357 13.357h76.622c0 5.988-0.067 6.077 0.223 11.353 3.562 44.143 38.445 79.16 87.374 78.603zM449.447 924.36c-30.208-1.024-55.919-26.201-56.966-56.966-0.178-14.803 2.115-32.234-13.379-32.991h-76.622v-45.256h297.205v45.256h-76.622c-23.775 1.18-4.697 45.835-27.937 71.569-11.286 12.488-28.271 18.588-45.679 18.387zM451.072 847.761c-9.928 0-17.987 8.058-17.987 18.009s8.058 17.987 17.987 17.987c9.951 0 18.009-8.036 18.009-17.987s-8.058-18.009-18.009-18.009zM216.576 266.574c-8.459 42.229-9.884 125.462 1.024 165.487 2.204 8.058 6.656 17.608 15.471 17.608h0.534c-5.543-26.624-17.697-102.556-2.271-200.348-10.529 0.423-13.958 13.267-14.759 17.252M314.056 263.791l0.267 38.89 171.542-1.202c5.721 0 10.329 4.563 10.374 10.24 0.022 5.677-4.541 10.307-10.218 10.351l-181.849 1.247c-2.716 0-5.343-1.046-7.302-2.961-1.937-1.914-3.027-4.519-3.050-7.257l-0.356-49.152c-0.022-4.007-1.625-7.769-4.497-10.618-2.894-2.827-6.812-4.296-10.685-4.363l-26.067 0.178c-16.584 101.131-1.981 180.179 2.449 200.392l25.021-0.178c8.303-0.067 15.026-6.879 14.959-15.182l-1.18-70.656c-0.045-5.699 4.519-10.329 10.218-10.374 5.721 0 10.307 4.563 10.351 10.218l0.089 11.219 285.407-1.981c2.671-0.022 5.343 1.046 7.279 2.961 1.959 1.914 3.050 4.541 3.072 7.257l0.334 49.174c0.022 3.985 1.625 7.769 4.519 10.596 2.872 2.849 6.723 4.474 10.685 4.385l5.031-0.045 41.494-0.289c8.86-0.067 13.201-9.728 15.293-17.831 11.242-43.654 6.767-127.199-1.269-165.532-0.846-4.007-4.43-17.030-15.338-17.030l-46.614 0.334c-4.007 0.022-7.769 1.625-10.596 4.497-2.849 2.894-4.408 6.678-4.385 10.685l0.356 49.152c0.022 2.738-1.046 5.365-2.983 7.302-1.914 1.937-4.519 3.050-7.235 3.072l-69.409 0.467c-5.721 0-10.307-4.541-10.374-10.218-0.022-5.677 4.541-10.307 10.24-10.351l59.103-0.401-0.267-38.89c-0.067-9.483 3.584-18.454 10.285-25.266 6.723-6.79 15.627-10.574 25.133-10.641l46.503-0.334c9.394 0 17.564 3.695 23.886 10.129 5.654 5.743 9.817 13.69 11.843 23.263 8.637 41.227 13.223 127.711 1.046 174.904-2.449 9.55-6.433 17.23-11.642 22.817-6.233 6.723-14.225 10.396-23.441 10.44l-46.525 0.334c-9.55 0.045-18.477-3.584-25.266-10.285-6.812-6.701-10.596-15.627-10.663-25.133l-0.245-38.867-274.41 1.892 0.267 38.867c0.067 9.928-3.962 18.944-10.463 25.444-6.389 6.411-15.204 10.418-24.954 10.485l-46.525 0.312c-17.007 0-29.874-11.932-35.551-32.79-12.8-46.97-9.35-134.99-1.336-174.948 4.096-20.435 17.92-33.703 35.217-33.814l46.525-0.334c9.461 0.089 18.298 3.539 25.066 10.129 6.99 6.879 10.774 15.805 10.841 25.288z" />
<glyph unicode="&#xe92b;" horiz-adv-x="1081" d="M312.152 491.769c6.528 20.702 21.132 43.179 45.699 42.048 19.886-0.916 32.943-17.338 39.071-34.432l30.194-80.675c2.706-7.674 9.506-8.332 11.525-1.303l60.546 232.319c11.869 59.572 83.324 51.87 87.776-3.866l20.802-334.254c0.186-2.935 1.704-13.486 6.185-13.83 3.794-0.286 6.657 5.197 7.645 8.218l41.061 154.321c6.256 21.633 21.962 40.287 45.986 40.645 16.407 0.229 31.139-8.676 40.459-21.833l15.534-22.649c1.188-1.718 2.792-3.78 4.753-4.696 5.455-2.548 24.281-1.618 30.523-1.618h242.899c24.582 0 24.868-41.891-0.272-41.891h-242.627c-28.705 0-51.526-2.119-69.809 24.496l-15.19 22.148c-6.256 8.833-9.821 1.389-11.897-5.798l-41.161-154.707-0.115-0.358c-6.843-22.406-26.658-39.915-50.996-38.040-28.032 2.148-43.165 27.059-44.769 52.986l-19.771 317.79c-1.274 20.401-4.725 19.084-9.864-0.616l-57.224-219.562-0.072-0.215c-13.086-45.957-74.977-48.419-91.298-1.961l-27.588 73.703c-3.794 10.108-3.851 14.546-8.118 0.83l-0.1-0.329-8.619-24.811c-9.535-28.576-27.946-45.012-59.329-45.041l-213.392-0.143c-27.059-0.014-28.691 41.877 1.661 41.891l211.688 0.143c12.685 0 15.82 4.968 19.628 16.407l8.576 24.682z" />
<glyph unicode="&#xe92c;" horiz-adv-x="1081" d="M165.223 358.92c7.23 0 13.615-3.622 17.438-9.163h0.057c51.211-64.998 112.473-126.517 171.544-182.596 58.069-55.105 113.69-105.271 156.168-147.749 38.498-38.498 38.641-38.011 85.786 9.134 45.37 45.384 104.87 97.898 165.187 155.953 53.33 51.326 107.433 106.889 153.404 165.259h0.043c3.823 5.541 10.208 9.163 17.452 9.163 11.697 0 21.203-9.492 21.203-21.189 0-4.639-1.489-8.919-4.023-12.413h0.186c-49.923-63.781-107.276-121.736-158.859-171.372-54.289-52.256-111.413-102.193-164.614-155.38-21.69-21.704-46.215-50.195-79.687-49.192-28.362 0.859-47.46 21.432-66.072 40.044-50.266 50.281-103.754 97.998-155.366 146.99-56.48 53.616-120.92 117.212-176.154 187.579l0.086 0.072c-3.107 3.694-4.982 8.461-4.982 13.673 0 11.697 9.492 21.189 21.203 21.189zM548.77 824.544c56.251 70.367 142.681 110.225 233.077 110.225 115.851 0 224.23-65.857 270.96-172.775 35.534-81.276 33.258-161.665 8.676-238.246h-0.014c-2.133-9.449-10.594-16.522-20.688-16.522-11.697 0-21.189 9.478-21.189 21.189 0 2.362 0.387 4.653 1.102 6.786h-0.014c22.349 68.864 24.038 139.417-6.743 209.813-37.796 86.502-127.477 147.348-232.089 147.348-87.304 0-164.214-42.392-209.226-106.674-17.552-25.097-30.609-24.281-48.033 0.472-45.098 64.025-121.822 106.202-208.896 106.202-104.613 0-194.293-60.846-232.104-147.348-30.853-70.596-29.092-141.35-6.571-210.4 0.587-1.961 0.902-4.037 0.902-6.199 0-11.711-9.478-21.189-21.175-21.189-10.179 0-18.683 7.158-20.731 16.722-24.568 76.638-26.758 156.926 8.719 238.045 46.73 106.903 155.108 172.775 270.96 172.775 90.396 0 176.798-39.858 233.077-110.225z" />
<glyph unicode="&#xe92d;" glyph-name="activity-inactive" horiz-adv-x="1081" d="M165.223 358.92c7.23 0 13.615-3.622 17.438-9.163h0.057c51.211-64.998 112.473-126.517 171.544-182.596 58.069-55.105 113.69-105.271 156.168-147.749 38.498-38.498 38.641-38.011 85.786 9.134 45.37 45.384 104.87 97.898 165.187 155.953 53.33 51.326 107.433 106.889 153.404 165.259h0.043c3.823 5.541 10.208 9.163 17.452 9.163 11.697 0 21.203-9.492 21.203-21.189 0-4.639-1.489-8.919-4.023-12.413h0.186c-49.923-63.781-107.276-121.736-158.859-171.372-54.289-52.256-111.413-102.193-164.614-155.38-21.69-21.704-46.215-50.195-79.687-49.192-28.362 0.859-47.46 21.432-66.072 40.044-50.266 50.281-103.754 97.998-155.366 146.99-56.48 53.616-120.92 117.212-176.154 187.579l0.086 0.072c-3.107 3.694-4.982 8.461-4.982 13.673 0 11.697 9.492 21.189 21.203 21.189zM548.77 824.544c56.251 70.367 142.681 110.225 233.077 110.225 115.851 0 224.23-65.857 270.96-172.775 35.534-81.276 33.258-161.665 8.676-238.246h-0.014c-2.133-9.449-10.594-16.522-20.688-16.522-11.697 0-21.189 9.478-21.189 21.189 0 2.362 0.387 4.653 1.102 6.786h-0.014c22.349 68.864 24.038 139.417-6.743 209.813-37.796 86.502-127.477 147.348-232.089 147.348-87.304 0-164.214-42.392-209.226-106.674-17.552-25.097-30.609-24.281-48.033 0.472-45.098 64.025-121.822 106.202-208.896 106.202-104.613 0-194.293-60.846-232.104-147.348-30.853-70.596-29.092-141.35-6.571-210.4 0.587-1.961 0.902-4.037 0.902-6.199 0-11.711-9.478-21.189-21.175-21.189-10.179 0-18.683 7.158-20.731 16.722-24.568 76.638-26.758 156.926 8.719 238.045 46.73 106.903 155.108 172.775 270.96 172.775 90.396 0 176.798-39.858 233.077-110.225zM312.152 491.769c6.528 20.702 21.132 43.179 45.699 42.048 19.886-0.916 32.943-17.338 39.071-34.432l30.194-80.675c2.706-7.674 9.506-8.332 11.525-1.303l60.546 232.319c11.869 59.572 83.324 51.87 87.776-3.866l20.802-334.254c0.186-2.935 1.704-13.486 6.185-13.83 3.794-0.286 6.657 5.197 7.645 8.218l41.061 154.321c6.256 21.633 21.962 40.287 45.986 40.645 16.407 0.229 31.139-8.676 40.459-21.833l15.534-22.649c1.188-1.718 2.792-3.78 4.753-4.696 5.455-2.548 24.281-1.618 30.523-1.618h242.899c24.582 0 24.868-41.891-0.272-41.891h-242.627c-28.705 0-51.526-2.119-69.809 24.496l-15.19 22.148c-6.256 8.833-9.821 1.389-11.897-5.798l-41.161-154.707-0.115-0.358c-6.843-22.406-26.658-39.915-50.996-38.040-28.032 2.148-43.165 27.059-44.769 52.986l-19.771 317.79c-1.274 20.401-4.725 19.084-9.864-0.616l-57.224-219.562-0.072-0.215c-13.086-45.957-74.977-48.419-91.298-1.961l-27.588 73.703c-3.794 10.108-3.851 14.546-8.118 0.83l-0.1-0.329-8.619-24.811c-9.535-28.576-27.946-45.012-59.329-45.041l-213.392-0.143c-27.059-0.014-28.691 41.877 1.661 41.891l211.688 0.143c12.685 0 15.82 4.968 19.628 16.407l8.576 24.682z" />
<glyph unicode="&#xe92e;" horiz-adv-x="908" d="M816.357-31.276h-741.158c-21.764 0-39.409 17.533-39.409 39.161v515.139h819.976v-515.139c0-21.626-17.642-39.161-39.409-39.161z" />
<glyph unicode="&#xe92f;" horiz-adv-x="908" d="M855.754 502.64v-426.214c-296.923-75.458-592.825 125.69-630.534 426.214h630.534z" />
<glyph unicode="&#xe930;" horiz-adv-x="908" d="M872.943 619.739v-94.603c0-12.921-10.535-23.388-23.538-23.388h-811.196c-12.983 0-23.515 10.467-23.515 23.388v81.17c0 12.921 10.533 23.367 23.515 23.367h824.714c5.535 0 10.020-4.455 10.020-9.934z" />
<glyph unicode="&#xe931;" horiz-adv-x="908" d="M379.45 511.204h128.742v-542.483h-128.742v542.483z" />
<glyph unicode="&#xe932;" horiz-adv-x="908" d="M520.485 501.756h-153.345c-11.778 0-21.325 8.308-21.325 18.558v90.813c0 10.25 9.547 18.556 21.325 18.556h153.345c11.778 0 21.323-8.308 21.323-18.556v-90.813c0-10.248-9.545-18.558-21.323-18.558z" />
<glyph unicode="&#xe933;" horiz-adv-x="908" d="M102.675 502.513l-0.618-0.641h-66.272c-11.845 1.194-21.090 11.151-21.090 23.263v81.172c0 12.921 10.533 23.367 23.515 23.367h70.807c-12.983 0-23.515-10.446-23.515-23.367v-81.17c-0.004-10.704 7.326-19.852 17.173-22.623z" />
<glyph unicode="&#xe934;" horiz-adv-x="908" d="M150.146-31.265h-70.805c-24.053 0-43.558 19.386-43.558 43.323v490.582c1.748-0.191-2.847-0.127 70.805-0.127v-490.455c0.002-23.937 19.509-43.323 43.558-43.323z" />
<glyph unicode="&#xe935;" horiz-adv-x="908" d="M696.874 902.97c-61.644 37.718-112.26 28.57-143.866 14.242-42.585-19.293-78.963-60.736-108.543-123.46-29.581 62.728-65.96 104.167-108.545 123.46-31.604 14.329-82.218 23.475-143.864-14.242-96.622-59.134-92.641-178.704 25.21-273.297h454.395c117.797 94.551 121.893 214.129 25.214 273.297zM231.878 782.869c-1.802 9.061-1.909 18.124 16.413 29.316 14.109 8.632 28.916 14.458 43.128 8.039 11.76-5.331 42.461-27.164 73.317-114.453 5.429-15.351 9.956-30.275 13.712-43.837-80.044 27.276-138.975 82.913-146.57 120.935zM657.048 782.869c-3.496-17.504-21.135-46.606-60.206-75.797-25.598-19.126-55.21-34.521-86.364-45.139 12.555 45.345 44.298 138.915 87.025 158.29 14.351 6.477 29.201 0.481 43.128-8.039 18.328-11.193 18.222-20.254 16.417-29.316z" />
<glyph unicode="&#xe936;" horiz-adv-x="908" d="M859.981 644.231h-148.669c46.281 47.388 78.515 110.183 64.055 174.080-1.934 8.557-10.487 13.924-19.096 12.008-8.611-1.924-14.020-10.419-12.086-18.976 14.278-63.103-29.811-125.594-79.844-167.11-79.664 0-193.058 0.010-217.059 0.010-43.531 42.069 23.181 215.126 111.594 255.184 66.929 30.333 136.876-9.633 164.997-45.668 5.411-6.935 15.448-8.185 22.421-2.818 6.971 5.375 8.241 15.349 2.833 22.279-52.128 66.793-203.669 132.028-304.668-47.118-68.993 122.393-169.563 141.881-259.015 87.15-94.397-57.771-103.657-170.898-7.836-269.016h-136.552c-21.685 0-39.331-17.531-39.331-39.086v-80.598c0-14.962 8.504-27.973 20.95-34.544v-59.733c0-8.772 7.153-15.879 15.979-15.879s15.979 7.108 15.979 15.879v55.173h309.28v-497.521h-282.019c-15.030 0-27.261 12.154-27.261 27.089v371.494c0 8.77-7.153 15.879-15.979 15.879-8.828 0-15.979-7.108-15.979-15.879v-371.496c0-32.447 26.565-58.847 59.219-58.847h727.737c32.653 0 59.219 26.398 59.219 58.847v165.423c0 8.772-7.153 15.881-15.979 15.881s-15.979-7.11-15.979-15.881v-165.423c0-14.935-12.231-27.089-27.261-27.089h-285.926v497.521h313.187v-244.315c0-8.77 7.153-15.879 15.979-15.879 8.828 0 15.979 7.108 15.979 15.879v251.231c10.289 7.060 17.055 18.849 17.055 32.187v93.938c0 14.196-11.63 25.745-25.927 25.745zM202.202 886.207c55.229 33.793 100.008 25.838 127.848 13.217 37.162-16.838 69.699-53.276 96.783-108.34-18.528-42.356-36.149-104.396-17.507-146.842h-41.647c-0.074 0-0.145-0.010-0.219-0.010h-142.882c-100.636 83.502-110.34 188.141-22.377 241.975zM330.614 518.099c-2.419 0-291.63 0.027-292.921-0.048-2.368 1.225-4.008 3.661-4.008 6.498v80.598c0 4.040 3.306 7.328 7.372 7.328h289.605c-0.227-2.825-0.188-91.652-0.048-94.376zM491.751-12.077h-95.874v497.521h95.874v-497.521zM525.142 519.761c0-0.349-0.572-1.075-1.622-1.664h-159.415c-2.318 1.302-1.624-5.726-1.624 91.837 0 0.626 1.797 2.482 5.051 2.54 156.086 0 157.609 0.996 157.609-2.54v-90.173h0.002zM853.952 524.547c0-2.802-1.605-5.211-3.93-6.45h-293.014c0.029 0.555 0.091 1.102 0.091 1.664 0 98.761 0.060 90.202-0.138 92.712h296.989v-87.926h0.002z" />
<glyph unicode="&#xe937;" horiz-adv-x="908" d="M589.797 832.007c-48.347-21.924-81.061-116.373-95.188-167.413-2.801-10.113 4.876-20.091 15.408-20.091 6.539 0 54.126 17.206 95.355 48.008 35.99 26.887 60.607 58.612 65.852 84.866 4.169 20.717-5.012 34.371-23.592 45.722-18.491 11.316-38.002 17.876-57.834 8.907zM639.879 783.562c-4.992-24.988-43.591-67.573-104.995-96.092 10.429 31.538 37.852 101.898 68.171 115.639 1.715 0.776 3.068 1.387 5.607 1.387 3.145 0 10.217-1.094 22.226-8.445 10.221-6.244 9.841-8.208 8.991-12.489z" />
<glyph unicode="&#xe938;" horiz-adv-x="908" d="M283.547 692.512c26.431-19.746 57.615-36.052 90.172-47.149 1.698-0.58 3.444-0.859 5.184-0.859 10.512 0 18.212 9.961 15.41 20.091-15.462 55.845-55.956 171.661-114.051 171.661-11.762 0-24.507-4.302-38.963-13.148-25.844-15.788-26.189-32.724-23.602-45.73 5.242-26.254 29.862-57.98 65.85-84.866zM258.045 796.061c12 7.341 19.069 8.435 22.214 8.435 2.539 0 3.892-0.611 5.601-1.383 30.34-13.76 57.76-84.149 68.175-115.643-61.328 28.48-99.994 71.065-104.993 96.076-0.855 4.293-1.242 6.253 9.002 12.514z" />
<glyph unicode="&#xe939;" glyph-name="birthday-inactive" horiz-adv-x="908" d="M859.981 644.231h-148.669c46.281 47.388 78.515 110.183 64.055 174.080-1.934 8.557-10.487 13.924-19.096 12.008-8.611-1.924-14.020-10.419-12.086-18.976 14.278-63.103-29.811-125.594-79.844-167.11-79.664 0-193.058 0.010-217.059 0.010-43.531 42.069 23.181 215.126 111.594 255.184 66.929 30.333 136.876-9.633 164.997-45.668 5.411-6.935 15.448-8.185 22.421-2.818 6.971 5.375 8.241 15.349 2.833 22.279-52.128 66.793-203.669 132.028-304.668-47.118-68.993 122.393-169.563 141.881-259.015 87.15-94.397-57.771-103.657-170.898-7.836-269.016h-136.552c-21.685 0-39.331-17.531-39.331-39.086v-80.598c0-14.962 8.504-27.973 20.95-34.544v-59.733c0-8.772 7.153-15.879 15.979-15.879s15.979 7.108 15.979 15.879v55.173h309.28v-497.521h-282.019c-15.030 0-27.261 12.154-27.261 27.089v371.494c0 8.77-7.153 15.879-15.979 15.879-8.828 0-15.979-7.108-15.979-15.879v-371.496c0-32.447 26.565-58.847 59.219-58.847h727.737c32.653 0 59.219 26.398 59.219 58.847v165.423c0 8.772-7.153 15.881-15.979 15.881s-15.979-7.11-15.979-15.881v-165.423c0-14.935-12.231-27.089-27.261-27.089h-285.926v497.521h313.187v-244.315c0-8.77 7.153-15.879 15.979-15.879 8.828 0 15.979 7.108 15.979 15.879v251.231c10.289 7.060 17.055 18.849 17.055 32.187v93.938c0 14.196-11.63 25.745-25.927 25.745zM202.202 886.207c55.229 33.793 100.008 25.838 127.848 13.217 37.162-16.838 69.699-53.276 96.783-108.34-18.528-42.356-36.149-104.396-17.507-146.842h-41.647c-0.074 0-0.145-0.010-0.219-0.010h-142.882c-100.636 83.502-110.34 188.141-22.377 241.975zM330.614 518.099c-2.419 0-291.63 0.027-292.921-0.048-2.368 1.225-4.008 3.661-4.008 6.498v80.598c0 4.040 3.306 7.328 7.372 7.328h289.605c-0.227-2.825-0.188-91.652-0.048-94.376zM491.751-12.077h-95.874v497.521h95.874v-497.521zM525.142 519.761c0-0.349-0.572-1.075-1.622-1.664h-159.415c-2.318 1.302-1.624-5.726-1.624 91.837 0 0.626 1.797 2.482 5.051 2.54 156.086 0 157.609 0.996 157.609-2.54v-90.173h0.002zM853.952 524.547c0-2.802-1.605-5.211-3.93-6.45h-293.014c0.029 0.555 0.091 1.102 0.091 1.664 0 98.761 0.060 90.202-0.138 92.712h296.989v-87.926h0.002zM589.797 832.007c-48.347-21.924-81.061-116.373-95.188-167.413-2.801-10.113 4.876-20.091 15.408-20.091 6.539 0 54.126 17.206 95.355 48.008 35.99 26.887 60.607 58.612 65.852 84.866 4.169 20.717-5.012 34.371-23.592 45.722-18.491 11.316-38.002 17.876-57.834 8.907zM639.879 783.562c-4.992-24.988-43.591-67.573-104.995-96.092 10.429 31.538 37.852 101.898 68.171 115.639 1.715 0.776 3.068 1.387 5.607 1.387 3.145 0 10.217-1.094 22.226-8.445 10.221-6.244 9.841-8.208 8.991-12.489zM283.547 692.512c26.431-19.746 57.615-36.052 90.172-47.149 1.698-0.58 3.444-0.859 5.184-0.859 10.512 0 18.212 9.961 15.41 20.091-15.462 55.845-55.956 171.661-114.051 171.661-11.762 0-24.507-4.302-38.963-13.148-25.844-15.788-26.189-32.724-23.602-45.73 5.242-26.254 29.862-57.98 65.85-84.866zM258.045 796.061c12 7.341 19.069 8.435 22.214 8.435 2.539 0 3.892-0.611 5.601-1.383 30.34-13.76 57.76-84.149 68.175-115.643-61.328 28.48-99.994 71.065-104.993 96.076-0.855 4.293-1.242 6.253 9.002 12.514z" />
<glyph unicode="&#xe93a;" horiz-adv-x="1265" d="M577.096 353.439c-52.042 31.678-103.846 59.304-171.727 59.304-194.592 0-348.456-147.076-348.456-350.719h336.253l183.93 291.415z" />
<glyph unicode="&#xe93b;" horiz-adv-x="1265" d="M117.149 62.024h-60.235c0 203.643 153.864 350.719 348.456 350.719 10.174 0 20.145-0.407 29.92-1.205-180.019-14.405-318.141-156.57-318.141-349.514z" />
<glyph unicode="&#xe93c;" horiz-adv-x="1265" d="M547.92 719.768c-33.941 33.941-83.72 56.568-135.762 56.568-106.347 0-192.33-85.983-192.33-192.33s85.983-192.33 192.33-192.33c65.618 0 124.449 33.941 158.389 83.72z" />
<glyph unicode="&#xe93d;" horiz-adv-x="1265" d="M362.378-48.861c0 244.043 190.067 443.502 427.651 443.502 235.321 0 427.651-197.112 427.651-443.502z" />
<glyph unicode="&#xe93e;" horiz-adv-x="1265" d="M1046.838 669.131c0-143.379-114.977-259.611-256.809-259.611s-256.809 116.232-256.809 259.611c0 143.379 114.977 259.611 256.809 259.611s256.809-116.232 256.809-259.611z" />
<glyph unicode="&#xe93f;" horiz-adv-x="1265" d="M840.348 391.605c-213.474-25.878-377.19-213.97-377.19-440.466h-100.779c0 244.043 190.067 443.502 427.651 443.502 17.017 0 33.808-1.031 50.319-3.036z" />
<glyph unicode="&#xe940;" horiz-adv-x="1265" d="M839.809 923.868c-118.007-23.432-207.029-128.575-207.029-254.737s89.022-231.305 207.029-254.737c-16.104-3.198-32.749-4.874-49.78-4.874-141.832 0-256.809 116.232-256.809 259.611s114.977 259.611 256.809 259.611c17.032 0 33.676-1.676 49.78-4.874z" />
<glyph unicode="&#xe941;" horiz-adv-x="1265" d="M427.095 392.264c-4.934-0.389-9.916-0.588-14.937-0.588-106.347 0-192.33 85.983-192.33 192.33s85.983 192.33 192.33 192.33c4.942 0 9.864-0.204 14.754-0.603-99.143-7.809-176.966-90.552-176.966-191.727 0-101.237 77.919-184.020 177.149-191.742z" />
<glyph unicode="&#xe942;" horiz-adv-x="1265" d="M793.449 414.184c-3.223 0-6.385-0.422-9.577-0.512-132.819 5.12-239.375 114.447-239.375 248.471 0 137.276 111.676 248.952 248.952 248.952s248.952-111.676 248.952-248.952c0-134.024-106.556-243.351-239.375-248.471-3.192 0.090-6.355 0.512-9.577 0.512zM583.288 360.846c-1.205 1.235-2.319 2.53-3.825 3.403-20.329 12.168-39.273 21.926-58.248 29.967l-24.847 10.571 22.016 15.601c20.751 14.637 38.912 32.798 54.031 53.941 1.295 1.837 2.048 3.825 2.59 5.813 28.883-34.575 65.325-62.675 107.369-80.504-34.846-8.975-68.006-22.167-99.087-38.792zM396.83 421.081c-95.654 0-173.448 77.824-173.448 173.448 0 95.654 77.794 173.448 173.448 173.448 43.068 0 85.474-16.956 117.85-46.532-4.066-19.155-6.295-38.942-6.295-59.302 0-58.519 17.8-112.911 48.158-158.238-1.144 0.030-2.289 0.271-3.433 0.060-4.969-0.994-9.487-4.066-12.77-8.704-31.714-46.351-85.414-74.18-143.511-74.18zM904.523 399.637c102.159 43.4 173.99 144.715 173.99 262.505 0 157.214-127.88 285.094-285.064 285.094-122.669 0-227.208-78.065-267.294-187-36.623 28.25-80.745 43.249-129.325 43.249-116.465 0-211.215-94.75-211.215-211.215 0-65.446 29.907-126.253 82.010-166.761l21.745-16.926-25.961-9.156c-144.836-51.23-238.441-186.91-238.441-345.69 0-9.698 9.186-18.884 18.884-18.884h251.151c9.698 0 18.884 9.186 18.884 18.884s-9.186 18.884-18.884 18.884h-234.014l1.837 16.745c18.071 162.394 144.053 282.985 306.447 293.225 19.637-1.867 32.738-2.018 47.767-0.512 46.14-3.945 88.546-18.040 131.403-41.833-121.254-79.782-201.517-216.847-201.517-372.585 0-9.879 9.005-18.884 18.884-18.884 9.698 0 18.884 9.186 18.884 18.884 0 225.37 183.386 408.757 408.757 408.757s408.757-183.386 408.757-408.757c0-9.698 9.186-18.884 18.884-18.884 12.378 0 18.884 9.487 18.884 18.884 0 207.782-142.908 382.404-335.45 431.977z" />
<glyph unicode="&#xe943;" glyph-name="customer-inactive" horiz-adv-x="1265" d="M793.449 414.184c-3.223 0-6.385-0.422-9.577-0.512-132.819 5.12-239.375 114.447-239.375 248.471 0 137.276 111.676 248.952 248.952 248.952s248.952-111.676 248.952-248.952c0-134.024-106.556-243.351-239.375-248.471-3.192 0.090-6.355 0.512-9.577 0.512zM583.288 360.846c-1.205 1.235-2.319 2.53-3.825 3.403-20.329 12.168-39.273 21.926-58.248 29.967l-24.847 10.571 22.016 15.601c20.751 14.637 38.912 32.798 54.031 53.941 1.295 1.837 2.048 3.825 2.59 5.813 28.883-34.575 65.325-62.675 107.369-80.504-34.846-8.975-68.006-22.167-99.087-38.792zM396.83 421.081c-95.654 0-173.448 77.824-173.448 173.448 0 95.654 77.794 173.448 173.448 173.448 43.068 0 85.474-16.956 117.85-46.532-4.066-19.155-6.295-38.942-6.295-59.302 0-58.519 17.8-112.911 48.158-158.238-1.144 0.030-2.289 0.271-3.433 0.060-4.969-0.994-9.487-4.066-12.77-8.704-31.714-46.351-85.414-74.18-143.511-74.18zM904.523 399.637c102.159 43.4 173.99 144.715 173.99 262.505 0 157.214-127.88 285.094-285.064 285.094-122.669 0-227.208-78.065-267.294-187-36.623 28.25-80.745 43.249-129.325 43.249-116.465 0-211.215-94.75-211.215-211.215 0-65.446 29.907-126.253 82.010-166.761l21.745-16.926-25.961-9.156c-144.836-51.23-238.441-186.91-238.441-345.69 0-9.698 9.186-18.884 18.884-18.884h251.151c9.698 0 18.884 9.186 18.884 18.884s-9.186 18.884-18.884 18.884h-234.014l1.837 16.745c18.071 162.394 144.053 282.985 306.447 293.225 19.637-1.867 32.738-2.018 47.767-0.512 46.14-3.945 88.546-18.040 131.403-41.833-121.254-79.782-201.517-216.847-201.517-372.585 0-9.879 9.005-18.884 18.884-18.884 9.698 0 18.884 9.186 18.884 18.884 0 225.37 183.386 408.757 408.757 408.757s408.757-183.386 408.757-408.757c0-9.698 9.186-18.884 18.884-18.884 12.378 0 18.884 9.487 18.884 18.884 0 207.782-142.908 382.404-335.45 431.977z" />
<glyph unicode="&#xe944;" d="M717.563 394.945c142.36 77.648 6.664 3.625 268.604 146.516v-532.971c0-21.603-17.516-39.119-39.119-39.119h-889.916c-21.603 0-39.117 17.516-39.117 39.119v532.969c257.39-140.409 463.448-252.79 463.005-252.547 13.136-7.164 29.001-7.17 42.134-0.004 17.41 9.495 44.116 24.062 74.366 40.56z" />
<glyph unicode="&#xe945;" d="M194.042 685.474v-240.039l-176.026 96.024z" />
<glyph unicode="&#xe946;" d="M986.167 541.459l-176.026-96.024v240.039z" />
<glyph unicode="&#xe947;" d="M457.978 161.237h-352.857c-9.134 0-16.541-7.405-16.541-16.539 0-9.136 7.407-16.539 16.541-16.539h352.857c9.134 0 16.539 7.403 16.539 16.539 0 9.134-7.405 16.539-16.539 16.539z" />
<glyph unicode="&#xe948;" d="M347.71 95.078h-242.589c-9.134 0-16.541-7.407-16.541-16.541s7.407-16.539 16.541-16.539h242.589c9.134 0 16.539 7.405 16.539 16.539s-7.405 16.541-16.539 16.541z" />
<glyph unicode="&#xe949;" d="M1003.787 541.894c-0.006 0.425-0.045 0.845-0.082 1.267-0.025 0.278-0.037 0.557-0.076 0.831-0.061 0.433-0.159 0.857-0.255 1.28-0.057 0.253-0.096 0.51-0.165 0.757-0.127 0.465-0.294 0.916-0.461 1.367-0.073 0.196-0.125 0.398-0.206 0.59-0.525 1.27-1.212 2.476-2.041 3.584-0.137 0.184-0.298 0.349-0.443 0.527-0.29 0.357-0.578 0.716-0.902 1.049-0.202 0.208-0.427 0.396-0.641 0.594-0.261 0.243-0.504 0.498-0.782 0.723l-170.36 139.378v212.283c0 27.040-21.999 49.039-49.041 49.039h-552.496c-27.040 0-49.039-22.001-49.039-49.039v-212.283c-185.063-151.406-173.207-140.482-175.407-146.542-2.331-6.413-1.023 14.951-1.023-539.825 0-30.738 25.007-55.746 55.746-55.746h891.945c30.74 0 55.748 25.009 55.748 55.746v534.185c-0.002 0.080-0.016 0.157-0.018 0.235zM957.776 544.418l-130.4-71.131v177.813l130.4-106.682zM176.795 473.289l-130.4 71.127 130.4 106.684v-177.811zM948.056-15.194h-891.945c-12.499 0-22.666 10.167-22.666 22.666v506.325c492.597-268.698 462.222-253.321 468.641-253.321 5.893 0-2.386-3.6 119.117 62.673 8.021 4.372 10.975 14.42 6.601 22.439-4.374 8.021-14.418 10.979-22.439 6.601l-90.091-49.139c-8.26-4.501-18.125-4.499-26.387 0.008l-279.011 152.186v450.881c0 8.799 7.16 15.961 15.959 15.961h552.498c8.799 0 15.961-7.16 15.961-15.961v-450.885c-79.775-43.516-57.907-31.587-93.024-50.741-8.021-4.372-10.975-14.42-6.601-22.441s14.422-10.979 22.441-6.599l8.858 4.829c0 0 45.328 24.715 244.756 133.506v-506.323c0-12.495-10.171-22.664-22.668-22.664z" />
<glyph unicode="&#xe94a;" glyph-name="email-inactive" d="M457.978 161.237h-352.857c-9.134 0-16.541-7.405-16.541-16.539 0-9.136 7.407-16.539 16.541-16.539h352.857c9.134 0 16.539 7.403 16.539 16.539 0 9.134-7.405 16.539-16.539 16.539zM347.71 95.078h-242.589c-9.134 0-16.541-7.407-16.541-16.541s7.407-16.539 16.541-16.539h242.589c9.134 0 16.539 7.405 16.539 16.539s-7.405 16.541-16.539 16.541zM1003.787 541.894c-0.006 0.425-0.045 0.845-0.082 1.267-0.025 0.278-0.037 0.557-0.076 0.831-0.061 0.433-0.159 0.857-0.255 1.28-0.057 0.253-0.096 0.51-0.165 0.757-0.127 0.465-0.294 0.916-0.461 1.367-0.073 0.196-0.125 0.398-0.206 0.59-0.525 1.27-1.212 2.476-2.041 3.584-0.137 0.184-0.298 0.349-0.443 0.527-0.29 0.357-0.578 0.716-0.902 1.049-0.202 0.208-0.427 0.396-0.641 0.594-0.261 0.243-0.504 0.498-0.782 0.723l-170.36 139.378v212.283c0 27.040-21.999 49.039-49.041 49.039h-552.496c-27.040 0-49.039-22.001-49.039-49.039v-212.283c-185.063-151.406-173.207-140.482-175.407-146.542-2.331-6.413-1.023 14.951-1.023-539.825 0-30.738 25.007-55.746 55.746-55.746h891.945c30.74 0 55.748 25.009 55.748 55.746v534.185c-0.002 0.080-0.016 0.157-0.018 0.235zM957.776 544.418l-130.4-71.131v177.813l130.4-106.682zM176.795 473.289l-130.4 71.127 130.4 106.684v-177.811zM948.056-15.194h-891.945c-12.499 0-22.666 10.167-22.666 22.666v506.325c492.597-268.698 462.222-253.321 468.641-253.321 5.893 0-2.386-3.6 119.117 62.673 8.021 4.372 10.975 14.42 6.601 22.439-4.374 8.021-14.418 10.979-22.439 6.601l-90.091-49.139c-8.26-4.501-18.125-4.499-26.387 0.008l-279.011 152.186v450.881c0 8.799 7.16 15.961 15.959 15.961h552.498c8.799 0 15.961-7.16 15.961-15.961v-450.885c-79.775-43.516-57.907-31.587-93.024-50.741-8.021-4.372-10.975-14.42-6.601-22.441s14.422-10.979 22.441-6.599l8.858 4.829c0 0 45.328 24.715 244.756 133.506v-506.323c0-12.495-10.171-22.664-22.668-22.664z" />
<glyph unicode="&#xe94b;" d="M503.645 941.185c-272.081 0-492.641-220.824-492.641-493.229 0-272.399 220.561-493.223 492.641-493.223 272.075 0 492.635 220.824 492.635 493.223 0 272.405-220.561 493.229-492.635 493.229v0 0z" />
<glyph unicode="&#xe94c;" d="M810.728 326.971c-96.479-218.569-258.384-179.345-314.503-372.239 272.075 0 492.635 220.824 492.635 493.223 0 144.863-62.375 275.138-161.701 365.373-75.513-170.352 80.048-267.789-16.431-486.358z" />
<glyph unicode="&#xe94d;" d="M119.103 178.215c0.858 0 1.716-0.083 2.518-0.221 4.539-0.664 8.524-3.044 11.292-6.753 7.971-10.683 16.301-20.95 24.77-30.471 6.227-7.057 5.535-17.906-1.522-24.189-6.67-5.895-18.183-5.148-24.161 1.494-9.299 10.572-18.238 21.559-26.569 32.768-5.618 7.583-4.041 18.349 3.542 23.967 2.961 2.214 6.448 3.404 10.129 3.404zM271.267 44.729c2.851 0 5.729-0.747 8.33-2.186 11.513-6.448 23.331-12.371 35.065-17.712l0.249-0.111c4.041-1.882 7.113-5.231 8.718-9.437 1.605-4.29 1.467-8.967-0.415-13.118-3.653-8.137-14.419-12.205-22.611-8.552-12.952 5.895-25.655 12.288-37.722 19.041-3.985 2.242-6.891 5.895-8.137 10.268-1.245 4.4-0.692 9.022 1.522 13.035 2.242 3.958 5.867 6.864 10.24 8.109 1.578 0.415 3.183 0.664 4.76 0.664zM35.346 362.324c3.238 0 6.421-0.941 9.216-2.74 3.847-2.463 6.476-6.282 7.472-10.766 2.823-12.897 6.172-25.655 9.963-37.999 1.356-4.373 0.913-8.995-1.218-13.035-2.131-4.068-5.701-7.002-10.046-8.358-4.151-1.301-8.884-0.775-12.98 1.384s-7.168 5.757-8.441 9.908c-4.124 13.312-7.749 27.039-10.738 40.822-0.996 4.456-0.138 9.050 2.325 12.897s6.282 6.476 10.71 7.445c1.328 0.277 2.574 0.443 3.736 0.443zM466.212-14.405c13.478-1.135 26.596-1.661 41.292-1.661 255.889 0 464.038 208.176 464.038 464.066s-208.149 464.066-464.038 464.066c-147.594 0-287.91-71.625-375.31-191.626l-11.375-15.609h71.514c9.465 0 17.131-7.694 17.131-17.104 0-9.465-7.666-17.131-17.131-17.131h-104.78c-4.594 0-8.856 1.744-12.039 4.926l-15.969 16.384c-3.238 3.238-5.009 7.528-5.009 12.094v104.808c0 9.437 7.666 17.131 17.131 17.131 9.41 0 17.076-7.694 17.076-17.131v-89.116l17.74 24.078c94.872 128.72 241.027 202.531 401.021 202.531 133.092 0 258.242-51.809 352.367-145.934s145.962-219.274 145.962-352.367c0-133.065-51.837-258.186-145.962-352.339-94.153-94.125-220.022-145.962-354.415-145.962-14.059 0-28.257 0.609-42.122 1.771-4.566 0.36-8.69 2.491-11.651 6.006-2.934 3.487-4.373 7.915-3.985 12.454 0.747 9.078 8.552 15.664 18.515 15.664zM507.509 791.35c9.437 0 17.104-7.666 17.104-17.131v-319.128l156.451-156.451c6.67-6.67 6.698-17.546 0.028-24.216-2.878-2.851-7.279-4.511-12.122-4.511-4.816 0-9.244 1.661-12.094 4.511l-161.46 161.46c-3.266 3.238-5.037 7.555-5.037 12.122v326.213c0 9.465 7.694 17.131 17.131 17.131z" />
<glyph unicode="&#xe94e;" glyph-name="time-inactive" d="M119.103 178.215c0.858 0 1.716-0.083 2.518-0.221 4.539-0.664 8.524-3.044 11.292-6.753 7.971-10.683 16.301-20.95 24.77-30.471 6.227-7.057 5.535-17.906-1.522-24.189-6.67-5.895-18.183-5.148-24.161 1.494-9.299 10.572-18.238 21.559-26.569 32.768-5.618 7.583-4.041 18.349 3.542 23.967 2.961 2.214 6.448 3.404 10.129 3.404zM271.267 44.729c2.851 0 5.729-0.747 8.33-2.186 11.513-6.448 23.331-12.371 35.065-17.712l0.249-0.111c4.041-1.882 7.113-5.231 8.718-9.437 1.605-4.29 1.467-8.967-0.415-13.118-3.653-8.137-14.419-12.205-22.611-8.552-12.952 5.895-25.655 12.288-37.722 19.041-3.985 2.242-6.891 5.895-8.137 10.268-1.245 4.4-0.692 9.022 1.522 13.035 2.242 3.958 5.867 6.864 10.24 8.109 1.578 0.415 3.183 0.664 4.76 0.664zM35.346 362.324c3.238 0 6.421-0.941 9.216-2.74 3.847-2.463 6.476-6.282 7.472-10.766 2.823-12.897 6.172-25.655 9.963-37.999 1.356-4.373 0.913-8.995-1.218-13.035-2.131-4.068-5.701-7.002-10.046-8.358-4.151-1.301-8.884-0.775-12.98 1.384s-7.168 5.757-8.441 9.908c-4.124 13.312-7.749 27.039-10.738 40.822-0.996 4.456-0.138 9.050 2.325 12.897s6.282 6.476 10.71 7.445c1.328 0.277 2.574 0.443 3.736 0.443zM466.212-14.405c13.478-1.135 26.596-1.661 41.292-1.661 255.889 0 464.038 208.176 464.038 464.066s-208.149 464.066-464.038 464.066c-147.594 0-287.91-71.625-375.31-191.626l-11.375-15.609h71.514c9.465 0 17.131-7.694 17.131-17.104 0-9.465-7.666-17.131-17.131-17.131h-104.78c-4.594 0-8.856 1.744-12.039 4.926l-15.969 16.384c-3.238 3.238-5.009 7.528-5.009 12.094v104.808c0 9.437 7.666 17.131 17.131 17.131 9.41 0 17.076-7.694 17.076-17.131v-89.116l17.74 24.078c94.872 128.72 241.027 202.531 401.021 202.531 133.092 0 258.242-51.809 352.367-145.934s145.962-219.274 145.962-352.367c0-133.065-51.837-258.186-145.962-352.339-94.153-94.125-220.022-145.962-354.415-145.962-14.059 0-28.257 0.609-42.122 1.771-4.566 0.36-8.69 2.491-11.651 6.006-2.934 3.487-4.373 7.915-3.985 12.454 0.747 9.078 8.552 15.664 18.515 15.664zM507.509 791.35c9.437 0 17.104-7.666 17.104-17.131v-319.128l156.451-156.451c6.67-6.67 6.698-17.546 0.028-24.216-2.878-2.851-7.279-4.511-12.122-4.511-4.816 0-9.244 1.661-12.094 4.511l-161.46 161.46c-3.266 3.238-5.037 7.555-5.037 12.122v326.213c0 9.465 7.694 17.131 17.131 17.131z" />
<glyph unicode="&#xe94f;" horiz-adv-x="905" d="M336.427 918.591l-70.984-57.513-23.169-112.673 47.077-103.058 32.11-40.922 34.491-21.388v-414.944l67.081-24.47h67.063l66.712 24.47v414.944l69.61 62.311 29.813 103.058-15.234 86.145-63.621 84.041-20.567 17.347v-161.023l-107.556-59.543-93.3 59.543z" />
<glyph unicode="&#xe950;" horiz-adv-x="905" d="M897.941 482.035c-0.004 10.773-8.778 19.504-19.597 19.504h-52.056c-9.064 35.012-22.925 68.347-41.356 99.449l36.813 36.653c7.653 7.619 7.653 19.974 0 27.596l-110.326 109.847c-7.653 7.619-20.062 7.619-27.716 0l-11.098-11.050c-1.041 78.048-43.6 150.552-111.645 189.742-6.063 3.495-13.538 3.497-19.603 0.014-6.067-3.485-9.806-9.928-9.806-16.903v-153.364l-82.31-47.317-82.31 47.317v153.366c0 6.974-3.739 13.416-9.806 16.903-6.067 3.485-13.542 3.479-19.603-0.014-67.955-39.141-110.489-111.503-111.639-189.432l-10.974 10.927c-7.653 7.619-20.062 7.619-27.716 0l-110.326-109.847c-7.653-7.619-7.653-19.974 0-27.596l36.999-36.837c-18.429-31.102-32.294-64.438-41.358-99.453h-52.372c-10.82 0-19.593-8.732-19.597-19.504l-0.057-155.347c-0.002-5.177 2.062-10.14 5.738-13.801 3.674-3.662 8.66-5.719 13.859-5.719h52.424c9.064-35.012 22.925-68.35 41.356-99.454l-37.125-36.963c-7.653-7.619-7.653-19.974 0-27.596l110.326-109.847c7.653-7.617 20.062-7.617 27.716 0l37.125 36.963c31.238-18.349 64.724-32.154 99.891-41.178v-52.195c0-5.175 2.066-10.14 5.742-13.799 3.674-3.658 8.658-5.713 13.855-5.713 0.002 0 0.004 0 0.008 0l156.025 0.057c10.82 0.004 19.589 8.739 19.589 19.512v52.142c35.165 9.024 68.649 22.825 99.889 41.178l36.998-36.839c3.674-3.658 8.66-5.715 13.857-5.715 0.002 0 0.004 0 0.006 0 5.199 0.002 10.185 2.060 13.859 5.723l110.266 109.907c7.645 7.621 7.641 19.969-0.008 27.588l-36.939 36.78c18.429 31.102 32.292 64.436 41.356 99.451h52.113c5.199 0 10.185 2.057 13.859 5.719 3.674 3.66 5.74 8.624 5.738 13.801l-0.063 155.343zM327.734 898.941v-126.682c0-6.972 3.735-13.413 9.799-16.897l101.909-58.581c6.063-3.485 13.534-3.485 19.597 0l101.909 58.581c6.063 3.485 9.799 9.926 9.799 16.897v126.682c39.335-34.497 62.713-84.707 62.713-137.831 0-101.138-82.639-183.418-184.219-183.418s-184.219 82.28-184.219 183.418c0 53.123 23.377 103.335 62.713 137.831zM810.787 346.193v0.002c-9.236 0-17.22-6.421-19.16-15.413-8.891-41.205-25.030-80.015-47.97-115.353-5.015-7.723-3.929-17.885 2.601-24.388l34.052-33.904-82.563-82.296-34.095 33.947c-6.532 6.499-16.736 7.584-24.496 2.589-35.492-22.837-74.471-38.909-115.86-47.763-9.030-1.932-15.48-9.881-15.48-19.077v-48.074l-116.829-0.041v48.113c0 9.196-6.449 17.145-15.48 19.075-41.389 8.855-80.368 24.925-115.86 47.765-7.759 4.993-17.965 3.912-24.496-2.589l-34.23-34.082-82.614 82.249 34.23 34.082c6.532 6.503 7.615 16.665 2.601 24.388-22.937 35.338-39.077 74.149-47.972 115.357-1.94 8.991-9.922 15.413-19.16 15.413h-48.319l0.041 116.321h48.284c9.236 0 17.22 6.421 19.16 15.413 8.893 41.209 25.031 80.019 47.972 115.355 5.015 7.723 3.929 17.887-2.601 24.39l-34.105 33.955 82.61 82.251 33.094-32.95c14.868-52.614 48.734-97.382 93.725-126.482v-375.391c-0.519 0.304-1.045 0.589-1.562 0.898-9.275 5.549-21.318 2.556-26.889-6.685-5.571-9.237-2.565-21.225 6.714-26.772 44.488-26.595 93.937-39.566 143.052-39.564 71.894 0.002 143.063 27.799 196.842 81.342 47.641 47.436 76.364 110.377 80.88 177.235 4.47 66.208-14.97 131.772-54.743 184.613-6.493 8.62-18.772 10.373-27.436 3.912-8.66-6.462-10.42-18.692-3.929-27.317 70.754-94.005 61.086-227.64-22.486-310.849-14.488-14.425-30.446-26.675-47.429-36.698v223.242c0 10.775-8.774 19.512-19.597 19.512s-19.597-8.737-19.597-19.512v-241.779c-26.478-9.707-54.425-14.659-82.508-14.657-27.673 0.002-55.472 4.831-82.112 14.579v373.711c25.449-10.058 53.179-15.594 82.181-15.594 102.095 0 188.411 68.538 214.983 161.828l33.341 33.196 82.61-82.251-33.919-33.769c-6.532-6.503-7.615-16.665-2.601-24.39 22.937-35.336 39.077-74.146 47.97-115.353 1.94-8.991 9.922-15.413 19.16-15.413h47.97l0.043-116.321-48.015-0.004zM253.288 573.499c-8.678 6.439-20.957 4.652-27.424-3.988-58.235-77.818-71.12-181.955-33.625-271.775 3.132-7.504 10.422-12.029 18.104-12.029 2.506 0 5.056 0.482 7.514 1.5 9.995 4.135 14.729 15.553 10.575 25.504-32.218 77.176-21.157 166.64 28.861 233.48 6.471 8.642 4.676 20.866-4.004 27.307zM261.946 254.076c-0.012 0.012-0.024 0.023-0.035 0.035-7.651 7.612-20.107 7.674-27.763 0.062s-7.612-20.013 0.029-27.643c3.841-3.834 8.901-5.758 13.957-5.758 4.997 0 9.995 1.881 13.804 5.66 7.666 7.602 7.637 20.004 0.008 27.643zM565.142 516.864c-3.645 3.629-8.701 5.717-13.855 5.717-5.174 0-10.23-2.088-13.855-5.717-3.665-3.629-5.742-8.663-5.742-13.795 0-5.151 2.077-10.166 5.742-13.795 3.645-3.649 8.682-5.717 13.855-5.717 5.154 0 10.21 2.068 13.855 5.717 3.645 3.629 5.742 8.644 5.742 13.795 0 5.132-2.097 10.166-5.742 13.795z" />
<glyph unicode="&#xe951;" glyph-name="tools-inactive" horiz-adv-x="905" d="M897.941 482.035c-0.004 10.773-8.778 19.504-19.597 19.504h-52.056c-9.064 35.012-22.925 68.347-41.356 99.449l36.813 36.653c7.653 7.619 7.653 19.974 0 27.596l-110.326 109.847c-7.653 7.619-20.062 7.619-27.716 0l-11.098-11.050c-1.041 78.048-43.6 150.552-111.645 189.742-6.063 3.495-13.538 3.497-19.603 0.014-6.067-3.485-9.806-9.928-9.806-16.903v-153.364l-82.31-47.317-82.31 47.317v153.366c0 6.974-3.739 13.416-9.806 16.903-6.067 3.485-13.542 3.479-19.603-0.014-67.955-39.141-110.489-111.503-111.639-189.432l-10.974 10.927c-7.653 7.619-20.062 7.619-27.716 0l-110.326-109.847c-7.653-7.619-7.653-19.974 0-27.596l36.999-36.837c-18.429-31.102-32.294-64.438-41.358-99.453h-52.372c-10.82 0-19.593-8.732-19.597-19.504l-0.057-155.347c-0.002-5.177 2.062-10.14 5.738-13.801 3.674-3.662 8.66-5.719 13.859-5.719h52.424c9.064-35.012 22.925-68.35 41.356-99.454l-37.125-36.963c-7.653-7.619-7.653-19.974 0-27.596l110.326-109.847c7.653-7.617 20.062-7.617 27.716 0l37.125 36.963c31.238-18.349 64.724-32.154 99.891-41.178v-52.195c0-5.175 2.066-10.14 5.742-13.799 3.674-3.658 8.658-5.713 13.855-5.713 0.002 0 0.004 0 0.008 0l156.025 0.057c10.82 0.004 19.589 8.739 19.589 19.512v52.142c35.165 9.024 68.649 22.825 99.889 41.178l36.998-36.839c3.674-3.658 8.66-5.715 13.857-5.715 0.002 0 0.004 0 0.006 0 5.199 0.002 10.185 2.060 13.859 5.723l110.266 109.907c7.645 7.621 7.641 19.969-0.008 27.588l-36.939 36.78c18.429 31.102 32.292 64.436 41.356 99.451h52.113c5.199 0 10.185 2.057 13.859 5.719 3.674 3.66 5.74 8.624 5.738 13.801l-0.063 155.343zM327.734 898.941v-126.682c0-6.972 3.735-13.413 9.799-16.897l101.909-58.581c6.063-3.485 13.534-3.485 19.597 0l101.909 58.581c6.063 3.485 9.799 9.926 9.799 16.897v126.682c39.335-34.497 62.713-84.707 62.713-137.831 0-101.138-82.639-183.418-184.219-183.418s-184.219 82.28-184.219 183.418c0 53.123 23.377 103.335 62.713 137.831zM810.787 346.193v0.002c-9.236 0-17.22-6.421-19.16-15.413-8.891-41.205-25.030-80.015-47.97-115.353-5.015-7.723-3.929-17.885 2.601-24.388l34.052-33.904-82.563-82.296-34.095 33.947c-6.532 6.499-16.736 7.584-24.496 2.589-35.492-22.837-74.471-38.909-115.86-47.763-9.030-1.932-15.48-9.881-15.48-19.077v-48.074l-116.829-0.041v48.113c0 9.196-6.449 17.145-15.48 19.075-41.389 8.855-80.368 24.925-115.86 47.765-7.759 4.993-17.965 3.912-24.496-2.589l-34.23-34.082-82.614 82.249 34.23 34.082c6.532 6.503 7.615 16.665 2.601 24.388-22.937 35.338-39.077 74.149-47.972 115.357-1.94 8.991-9.922 15.413-19.16 15.413h-48.319l0.041 116.321h48.284c9.236 0 17.22 6.421 19.16 15.413 8.893 41.209 25.031 80.019 47.972 115.355 5.015 7.723 3.929 17.887-2.601 24.39l-34.105 33.955 82.61 82.251 33.094-32.95c14.868-52.614 48.734-97.382 93.725-126.482v-375.391c-0.519 0.304-1.045 0.589-1.562 0.898-9.275 5.549-21.318 2.556-26.889-6.685-5.571-9.237-2.565-21.225 6.714-26.772 44.488-26.595 93.937-39.566 143.052-39.564 71.894 0.002 143.063 27.799 196.842 81.342 47.641 47.436 76.364 110.377 80.88 177.235 4.47 66.208-14.97 131.772-54.743 184.613-6.493 8.62-18.772 10.373-27.436 3.912-8.66-6.462-10.42-18.692-3.929-27.317 70.754-94.005 61.086-227.64-22.486-310.849-14.488-14.425-30.446-26.675-47.429-36.698v223.242c0 10.775-8.774 19.512-19.597 19.512s-19.597-8.737-19.597-19.512v-241.779c-26.478-9.707-54.425-14.659-82.508-14.657-27.673 0.002-55.472 4.831-82.112 14.579v373.711c25.449-10.058 53.179-15.594 82.181-15.594 102.095 0 188.411 68.538 214.983 161.828l33.341 33.196 82.61-82.251-33.919-33.769c-6.532-6.503-7.615-16.665-2.601-24.39 22.937-35.336 39.077-74.146 47.97-115.353 1.94-8.991 9.922-15.413 19.16-15.413h47.97l0.043-116.321-48.015-0.004zM253.288 573.499c-8.678 6.439-20.957 4.652-27.424-3.988-58.235-77.818-71.12-181.955-33.625-271.775 3.132-7.504 10.422-12.029 18.104-12.029 2.506 0 5.056 0.482 7.514 1.5 9.995 4.135 14.729 15.553 10.575 25.504-32.218 77.176-21.157 166.64 28.861 233.48 6.471 8.642 4.676 20.866-4.004 27.307zM261.946 254.076c-0.012 0.012-0.024 0.023-0.035 0.035-7.651 7.612-20.107 7.674-27.763 0.062s-7.612-20.013 0.029-27.643c3.841-3.834 8.901-5.758 13.957-5.758 4.997 0 9.995 1.881 13.804 5.66 7.666 7.602 7.637 20.004 0.008 27.643zM565.142 516.864c-3.645 3.629-8.701 5.717-13.855 5.717-5.174 0-10.23-2.088-13.855-5.717-3.665-3.629-5.742-8.663-5.742-13.795 0-5.151 2.077-10.166 5.742-13.795 3.645-3.649 8.682-5.717 13.855-5.717 5.154 0 10.21 2.068 13.855 5.717 3.645 3.629 5.742 8.644 5.742 13.795 0 5.132-2.097 10.166-5.742 13.795z" />
<glyph unicode="&#xe952;" glyph-name="exercise-inactive" d="M1008.352 540.208c-10.64 12.768-25.616 20.080-41.088 20.080h-23.264v18.784c0 33.744-29.312 61.216-65.328 61.216h-30.672v34.672c0 16.32-6.96 32.24-19.072 43.696-24.096 22.768-65.744 22.768-89.84 0-12.128-11.472-19.088-27.392-19.088-43.712v-162.672h-416v162.672c0 16.32-6.944 32.24-19.072 43.696-24.096 22.768-65.744 22.768-89.84 0-12.128-11.456-19.088-27.376-19.088-43.696v-34.672h-34.4c-16.176 0-31.472-5.84-43.088-16.448-11.76-10.8-18.512-25.872-18.512-41.328v-22.208h-23.040c-15.552 0-30.592-7.344-41.264-20.16-10.112-12.16-15.696-28.144-15.696-44.992v-93.696c0-16.848 5.584-32.832 15.712-44.992 10.672-12.816 25.712-20.16 41.248-20.16h23.040v-22.208c0-15.456 6.752-30.528 18.544-41.36 11.584-10.592 26.88-16.432 43.056-16.432h34.4v-34.672c0-16.32 6.96-32.24 19.072-43.68 12.048-11.376 28-17.648 44.928-17.648s32.88 6.272 44.928 17.648c12.128 11.456 19.072 27.376 19.072 43.68v162.672h416v-162.672c0-16.32 6.96-32.24 19.072-43.68 12.048-11.376 28-17.648 44.928-17.648s32.88 6.272 44.928 17.648c12.112 11.456 19.072 27.376 19.072 43.68v34.672h30.672c36.016 0 65.328 27.456 65.328 61.216v18.784h23.264c15.472 0 30.448 7.328 41.104 20.080 10.080 12.112 15.648 28.016 15.648 44.8v94.224c-0.016 16.784-5.568 32.704-15.664 44.816zM56.96 368.288c-6.096 0-12.016 3.072-16.656 8.64-5.28 6.32-8.304 15.264-8.304 24.512v93.696c0 9.248 3.024 18.176 8.304 24.512 4.64 5.568 10.56 8.64 16.656 8.64h23.040v-160h-23.040zM141.6 288.288c-8.048 0-15.872 2.928-21.424 8.016-5.28 4.848-8.176 11.152-8.176 17.776v268.416c0 6.624 2.896 12.944 8.144 17.76 5.6 5.104 13.408 8.032 21.456 8.032h34.4v-320h-34.4zM272 221.616c0-7.664-3.216-14.912-9.040-20.416-12-11.328-33.904-11.328-45.904 0-5.84 5.504-9.056 12.768-9.056 20.416v453.344c0 7.664 3.216 14.912 9.040 20.416 6 5.664 14.368 8.912 22.96 8.912s16.96-3.248 22.96-8.912c5.824-5.504 9.040-12.768 9.040-20.432v-453.328zM304 416.288v64h416v-64h-416zM816 221.616c0-7.664-3.216-14.912-9.040-20.416-12-11.328-33.904-11.328-45.904 0-5.84 5.504-9.056 12.768-9.056 20.416v453.328c0 7.664 3.216 14.912 9.040 20.416 6 5.664 14.368 8.912 22.96 8.912s16.96-3.248 22.96-8.912c5.824-5.488 9.040-12.752 9.040-20.416v-453.328zM912 317.504c0-16.112-14.944-29.216-33.328-29.216h-30.672v320h30.672c18.368 0 33.328-13.104 33.328-29.216v-261.568zM992 401.184c0-9.184-3.008-18.032-8.224-24.32-4.608-5.536-10.48-8.576-16.512-8.576h-23.264v160h23.264c6.032 0 11.904-3.040 16.512-8.576 5.232-6.272 8.224-15.136 8.224-24.32v-94.208z" />
<glyph unicode="&#xe953;" glyph-name="iconfinder_Arrow_1214951" d="M421.678 313l4.694-2.97c113.358-103.228 224.876-207.752 337.41-310.41l3.394-4.4c1.464-4.61 2.538-5.898 1.452-10.848-1.622-7.398-8.946-12.862-16.29-12.558-5.064 0.21-6.036 1.576-10.12 4.166-112.892 102.98-223.96 207.094-337.39 310.39l-3.398 4.398c-0.562 1.764-1.44 3.458-1.686 5.294-1.012 7.506 3.994 15.15 10.998 17.382 3.5 1.116 7.286 0.354 10.936-0.444zM380.362 351.1l4.552-3.186 0.8-0.8c2.774-3.962 4.184-4.87 4.626-9.92 0.804-9.188-7.896-18.158-17.334-17.334-5.050 0.442-5.958 1.852-9.92 4.626 0 0-7.072 8.304-4.94 16.256 0.972 3.632 3.196 6.806 6.276 8.964 4.152 2.908 5.756 2.412 10.572 2.834 1.79-0.48 3.578-0.96 5.368-1.44zM427.266 623.442c1.64-0.862 3.454-1.45 4.92-2.584 5.992-4.632 7.796-13.59 4.38-20.096-0.862-1.64-2.266-2.932-3.398-4.398-44.082-40.102-87.758-80-132.42-120.616-7.336-6.672-13.864-14.494-13.88-24.936-0.016-8.612 3.502-16.956 10.024-22.928 14.084-12.732 28.088-25.448 42.148-38.346 7.514-6.892 9.856-16.040 5.446-22.948-4.076-6.384-12.834-8.986-19.622-6.166-5.848 2.428-8.914 6.874-12.988 10.6-12.246 11.19-24.608 22.284-36.868 33.51-22.462 20.84-27.686 58.358-6.344 84.086 10.262 12.372 23.308 22.404 35.406 33.422 33.104 30.154 66.212 60.358 99.276 90.454 2.622 2.386 8.62 8.718 12.984 10.508 3.4 1.394 7.236 0.938 10.936 0.438zM659.652 834.646c3.308-1.732 6.698-3.58 8.666-6.686 3.030-4.786 3.212-11.102 0.654-15.986-0.86-1.64-2.262-2.932-3.394-4.4-52.988-48.296-106.008-96.476-159.188-144.928l-10.612-9.672-4.694-2.972c-4.724-1.034-6.106-1.986-10.936-0.448-7.216 2.296-11.984 10.092-11.006 17.376 0.676 5.024 2.126 5.866 5.080 9.696 52.988 48.296 106.008 96.476 159.188 144.928l10.612 9.672 4.694 2.972 5.428 1.188c1.836-0.246 3.672-0.492 5.508-0.74zM757.070 923.442c1.64-0.862 3.454-1.452 4.918-2.586 5.992-4.634 7.794-13.592 4.376-20.098-0.862-1.64-2.266-2.93-3.4-4.396-11.606-10.554-23.212-21.11-34.818-31.668-6.738-6.126-12.246-14.304-21.71-14.682-9.13-0.364-17.774 8.676-16.492 18.136 0.682 5.024 2.134 5.864 5.092 9.69 11.606 10.554 23.212 21.11 34.818 31.668 1.55 1.408 11.218 11.426 16.28 13.5 3.4 1.392 7.234 0.936 10.936 0.436z" />
<glyph unicode="&#xe954;" glyph-name="iconfinder_icon-ios7-more-outline_211780" d="M509.462 503.859c30.467 0 55.395-24.928 55.395-55.395s-24.928-55.395-55.395-55.395c-30.467 0-55.395 24.928-55.395 55.395s24.928 55.395 55.395 55.395zM509.462 546.944c-54.472 0-98.48-44.008-98.48-98.48s44.008-98.48 98.48-98.48c54.472 0 98.48 44.008 98.48 98.48s-44.008 98.48-98.48 98.48zM116.773 503.859c30.467 0 55.395-24.928 55.395-55.395s-24.928-55.395-55.395-55.395c-30.467 0-55.395 24.928-55.395 55.395s24.928 55.395 55.395 55.395zM116.773 546.944c-54.472 0-98.48-44.008-98.48-98.48s44.008-98.48 98.48-98.48c54.472 0 98.48 44.008 98.48 98.48s-44.316 98.48-98.48 98.48zM903.382 503.859c30.467 0 55.395-24.928 55.395-55.395s-24.928-55.395-55.395-55.395c-30.467 0-55.395 24.928-55.395 55.395s24.928 55.395 55.395 55.395zM903.382 546.944c-54.472 0-98.48-44.008-98.48-98.48s44.008-98.48 98.48-98.48c54.472 0 98.48 44.008 98.48 98.48s-44.008 98.48-98.48 98.48z" />
<glyph unicode="&#xe955;" glyph-name="iconfinder_Out_2134656" d="M656.592 945.163c33.893-0.325 64.883-29.863 65.222-65.226 0.773-242.376 0.773-484.76 0-727.136-0.325-33.848-29.786-65.11-65.624-65.226h-170.914c-4.652 0.927-4.712 0.951-8.658 3.586l-2.655 3.974c-0.923 4.652-0.923 4.715 0 9.368l2.655 3.974c3.946 2.634 4.005 2.659 8.658 3.586 57.141 0 114.286-0.546 171.424 0.003 21.118 0.336 40.414 18.76 40.627 40.893 0.773 242.362 2.323 484.735-0.003 727.087-0.339 21.125-18.76 40.417-40.889 40.63-172.894 0.553-345.787 0.822-518.681-0.003-21.436-0.304-40.669-18.858-40.76-41.183v-726.265l-0.93-4.684-2.655-3.974c-1.326-0.885-2.501-2.043-3.974-2.655-2.998-1.242-6.37-1.242-9.368 0-1.473 0.612-2.648 1.77-3.974 2.655l-2.655 3.974-0.93 4.684c0 242.271-0.969 484.546 0.003 726.818 0.392 32.907 27.897 63.393 62.494 65.047 0.84 0.038 1.676 0.059 2.515 0.070 173.023 0.826 346.050 0.556 519.073 0.003zM956.509 513.858c7.878-1.249 8.619-4.31 9.903-7.196 3.25-7.301-2.477-16.77-11.183-17.225h-344.454c-1.137 0.059-1.427 0.031-2.547 0.266-9.284 1.976-13.317 16.955-3.575 22.58 1.843 1.063 3.946 1.525 6.122 1.641h344.454c0.427-0.021 0.854-0.045 1.28-0.066zM836.901 646.079c4.848-0.448 5.027-0.777 8.091-3.572l109.536-109.54c16.301-16.504 16.882-45.475 0-62.574l-109.536-109.54c-0.742-0.675-0.906-0.875-1.739-1.441-8.165-5.593-22.188 3.068-18.529 13.989 0.598 1.784 1.665 3.355 2.952 4.768 36.566 36.566 73.359 72.9 109.69 109.697 7.133 7.409 7.391 20.146-0.21 27.841l-109.48 109.484c-6.713 7.364-1.864 20.887 9.224 20.887zM362.828 5.42l106.734-41.267 4.033-2.561c2.729-3.879 2.757-3.939 3.792-8.57l-0.822-4.705c-2.54-4.005-2.585-4.054-6.468-6.783l-4.659-1.042-4.708 0.822-106.731 41.267-4.033 2.561-2.75 3.907-1.042 4.663 0.822 4.705c2.54 4.005 2.585 4.054 6.464 6.783l4.663 1.042c1.571-0.273 3.138-0.546 4.705-0.822zM282.781 36.375l13.342-5.16 4.033-2.557 2.746-3.911 1.042-4.659-0.819-4.708c-2.214-3.488-2.456-5.006-6.468-6.779-1.455-0.644-3.106-0.696-4.663-1.042l-4.705 0.819-3.334 1.291c0 0-6.671 2.578-10.008 3.869l-4.033 2.557-2.746 3.911-1.046 4.659 0.822 4.708c2.54 4.005 2.585 4.051 6.468 6.779l4.659 1.042c1.571-0.273 3.138-0.546 4.708-0.819zM496.589 33.114l-2.655-3.97-3.974-2.655-4.684-0.93-4.684 0.93-3.974 2.655-2.655 3.97c-1.651 8.311-1.452 8.374-0.93 18.991 0.077 1.588 0.623 3.124 0.93 4.684l2.655 3.974c1.326 0.885 2.501 2.043 3.974 2.652 2.998 1.245 6.37 1.245 9.368 0 1.473-0.609 2.648-1.767 3.974-2.652l2.655-3.974c1.861-9.357 0.93-9.448 0.93-18.988-0.311-1.564-0.623-3.124-0.93-4.687zM89.434 132.415l3.974-2.655 2.655-3.974c1.721-8.661 0.93-8.742 0.93-17.574l79.054-30.566 4.033-2.561 2.75-3.907 1.042-4.663-0.822-4.705c-2.54-4.005-2.585-4.051-6.464-6.783l-4.663-1.042-4.705 0.822-86.882 33.596-4.103 2.624-2.757 4.019-0.969 4.775v21.282l0.93 4.684 2.655 3.974c3.946 2.634 4.005 2.662 8.658 3.586 1.56-0.311 3.124-0.623 4.684-0.93zM489.96 249.37l3.974-2.655 2.655-3.97 0.93-4.687v-114.433l-0.93-4.684-2.655-3.97c-3.946-2.638-4.005-2.662-8.658-3.589l-4.684 0.934-3.974 2.655-2.655 3.97-0.93 4.684v114.433l0.93 4.687 2.655 3.97c3.946 2.638 4.005 2.662 8.658 3.586 1.56-0.308 3.124-0.619 4.684-0.93zM96.063 187.937l-2.655-3.97-3.974-2.655c-1.56-0.311-3.092-0.93-4.684-0.93-4.387 0-5.223 1.291-8.658 3.586l-2.655 3.97c-0.308 1.564-0.854 3.096-0.93 4.687-0.521 10.617-0.721 10.676 0.93 18.988l2.655 3.974c1.326 0.885 2.501 2.043 3.974 2.655 2.998 1.242 6.37 1.242 9.368 0 1.473-0.612 2.648-1.77 3.974-2.655l2.655-3.974c1.861-9.357 0.93-9.448 0.93-18.988-0.311-1.564-0.623-3.124-0.93-4.687zM89.434 447.107l3.974-2.655 2.655-3.974 0.93-4.684v-114.433l-0.93-4.684-2.655-3.974c-1.326-0.885-2.501-2.043-3.974-2.652-2.998-1.245-6.37-1.245-9.368 0-1.473 0.609-2.648 1.767-3.974 2.652l-2.655 3.974-0.93 4.684v114.433l0.93 4.684 2.655 3.974c3.946 2.634 4.005 2.662 8.658 3.586 1.56-0.311 3.124-0.623 4.684-0.93zM496.589 347.807l-2.655-3.97-3.974-2.655-4.684-0.93-4.684 0.93-3.974 2.655-2.655 3.97c-1.651 8.311-1.452 8.374-0.93 18.991 0.077 1.588 0.623 3.124 0.93 4.684l2.655 3.974c1.326 0.885 2.501 2.043 3.974 2.652 2.998 1.245 6.37 1.245 9.368 0 1.473-0.609 2.648-1.767 3.974-2.652l2.655-3.974c1.861-9.357 0.93-9.448 0.93-18.988-0.311-1.564-0.623-3.124-0.93-4.687zM489.96 564.063c3.946-2.634 3.991-2.683 6.629-6.625l0.93-4.687v-114.433l-0.93-4.684-2.655-3.97-3.974-2.655-4.684-0.934-4.684 0.934-3.974 2.655-2.655 3.97-0.93 4.684v114.433l0.93 4.687 2.655 3.97 3.974 2.655 4.684 0.93c1.56-0.308 3.124-0.619 4.684-0.93zM96.063 502.629c-2.638-3.942-2.683-3.988-6.629-6.625l-4.684-0.93-4.684 0.93-3.974 2.655c-0.885 1.322-2.043 2.501-2.655 3.97-1.84 4.45-0.99 17.805-0.93 18.991 0.168 3.414 1.123 6.195 3.586 8.658 1.126 1.126 2.648 1.77 3.974 2.655l4.684 0.93 4.684-0.93 3.974-2.655c0.885-1.326 2.043-2.501 2.655-3.974 1.861-4.495 0.93-17.662 0.93-18.988-0.311-1.564-0.623-3.124-0.93-4.687zM89.434 761.8l3.974-2.655 2.655-3.974 0.93-4.684v-114.433c-0.311-1.56-0.322-3.215-0.93-4.684-1.679-4.054-3.19-4.331-6.629-6.625l-4.684-0.934-4.684 0.934-3.974 2.652c-2.634 3.946-2.659 4.005-3.586 8.658v114.433l0.93 4.684 2.655 3.974c3.946 2.634 4.005 2.662 8.658 3.586 1.56-0.311 3.124-0.623 4.684-0.93zM496.589 662.499c-2.638-3.946-2.683-3.991-6.629-6.625l-4.684-0.93-4.684 0.93-3.974 2.655-2.655 3.97-0.93 4.687c0 9.539-0.93 9.63 0.93 18.988l2.655 3.974 3.974 2.652 4.684 0.934 4.684-0.934 3.974-2.652 2.655-3.974 0.93-4.684v-14.304c-0.311-1.564-0.623-3.124-0.93-4.687zM406.31 821.708l83.381-32.245 4.103-2.624 2.757-4.019 0.969-4.775v-25.036l-0.93-4.684c-0.885-1.322-1.529-2.847-2.655-3.97-3.103-3.103-4.603-2.781-8.658-3.589l-4.684 0.934c-3.946 2.634-3.991 2.68-6.629 6.625l-0.93 4.684v16.644l-75.555 29.216c-4.005 2.54-4.051 2.585-6.779 6.464l-1.042 4.663c0.812 4.673 0.836 4.733 3.379 8.742l3.907 2.746 4.663 1.042c1.567-0.273 3.134-0.546 4.705-0.819zM96.063 817.322c-2.298-3.435-2.575-4.946-6.629-6.625-1.469-0.609-3.124-0.619-4.684-0.93l-4.684 0.93-3.974 2.655-2.655 3.97c-1.651 8.311-1.452 8.374-0.93 18.991 0.077 1.592 0.623 3.124 0.93 4.684l2.655 3.974 3.974 2.655 4.684 0.93 4.684-0.93 3.974-2.655 2.655-3.974 0.93-4.684v-14.304c-0.311-1.564-0.623-3.124-0.93-4.687zM286.234 868.135l13.342-5.156c4.009-2.543 4.054-2.589 6.783-6.468l1.042-4.663-0.819-4.705-2.561-4.033-3.907-2.75-4.663-1.042c-7.633 1.333-7.486 1.896-14.713 4.691l-3.334 1.291c-4.005 2.54-4.054 2.585-6.783 6.464l-1.042 4.663c0.815 4.673 0.84 4.733 3.379 8.738l3.907 2.75 4.663 1.042c1.567-0.273 3.138-0.546 4.705-0.822zM112.795 935.201l106.734-41.271 4.033-2.557 2.746-3.907 1.042-4.663-0.819-4.705-2.561-4.037c-3.879-2.729-3.939-2.753-8.57-3.788l-4.705 0.819-106.731 41.274-4.033 2.557-2.75 3.907-1.042 4.663c0.815 4.673 0.84 4.733 3.379 8.738l3.907 2.75 4.663 1.042c1.567-0.273 3.138-0.546 4.705-0.822z" />
<glyph unicode="&#xe956;" glyph-name="iconfinder_Cart_1214953" d="M743.503 129.874c1.857-2.713 3.728-5.578 3.786-8.799 0.071-3.882-1.817-7.273-1.845-7.341-6.709-16.864-12.458-34.318-11.659-52.2 1.903-42.515 34.617-81.783 77.286-90.789 4.965-1.048 8.804-2.245 8.804-2.245h22.361c5.395 2.149 4.375 1.359 8.222 2.1 53.599 10.725 92.31 70.898 72.931 126.841l-3.798 9.174-0.974 4.841 0.954 4.844 2.733 4.11 4.1 2.751 4.841 0.974 4.844-0.954 4.11-2.733c5.006-7.458 4.158-4.603 8.705-19.638 19.59-64.784-24.049-143.239-96.83-155.637-1.668-0.623-4.031-1.463-4.031-1.463l-3.573-0.516h-26.825l-3.573 0.516c-6.466 1.903-9.186 2.434-12.463 3.247-52.017 12.886-92.654 63.018-93.216 117.581-0.154 14.842 2.566 29.677 7.653 43.633 0 0-205.584 0.020-205.584 0.020 20.837-57.997-7.63-131.307-69.643-155.842-8.817-3.487-18.084-5.762-27.078-8.576l-3.781-0.58h-28.849l-3.573 0.516c-6.124 1.802-8.607 2.333-11.621 3.070-60.085 14.675-104.558 79.26-90.597 143.976 1.706 7.911 4.3 15.586 6.98 23.211 0 0-8.311 2.402-14.374 4.859-26.129 10.588-48.133 30.8-61.639 55.401l-1.485 4.707 0.428 4.92 2.28 4.378 3.781 3.176 4.707 1.485 4.92-0.428 4.378-2.28 3.176-3.781c13.187-24.021 36.224-42.042 63.053-48.657 4.084-0.833 9.892-2.232 9.892-2.232l4.849-2.128 3.553-3.925 1.632-5.039c-1.625-15.037-10.019-28.844-12.431-44.716-7.268-47.852 26.531-98.594 75.932-109.033 5.216-1.103 8.392-2.174 8.392-2.174h24.697c8.366 2.579 16.93 4.621 24.995 8.004 47.186 19.795 72.855 79.541 51.2 129.169-1.84 4.216-4.548 9.907-4.548 9.907l-1.141 4.897 0.855 4.952 2.715 4.231 4.15 2.837 4.927 1h243.448l4.788-0.941c1.359-0.893 2.718-1.789 4.077-2.682zM826.528 189.423c31.061-0.233 61.953-10.236 85.275-30.552l0.504-0.445c2.976-3.9 3.004-3.958 4.259-8.698l-0.658-4.894-2.48-4.267-3.925-2.996-4.773-1.263-4.894 0.658c-6.805 3.955-12.724 9.563-19.706 13.559-16.391 9.381-35.497 13.547-54.404 13.595h-204.967c-4.811 0.957-4.871 0.982-8.948 3.705l-2.741 4.107-0.964 4.841 0.964 4.841 2.741 4.107 4.107 2.741 4.841 0.964c68.59 0 137.178 0.175 205.769-0.003zM584.098 188.461l4.107-2.741 2.741-4.107 0.964-4.841-0.964-4.841-2.741-4.107-4.107-2.741c-8.245-1.642-12.451-0.013-16.573 2.741l-2.741 4.107-0.964 4.841 0.964 4.841 2.741 4.107 4.107 2.741c3.781 0.754 3.768 0.964 7.625 0.964 1.615-0.321 3.229-0.643 4.841-0.964zM263.962 318.199c1.617-0.797 2.865-0.972 6.995-2.979 0.681-0.326 0.678-0.324 1.361-0.645 13.607-6.256 28.482-9.447 43.522-9.5h169.53c1.615-0.321 3.323-0.334 4.841-0.964 4.191-1.733 4.477-3.295 6.848-6.848l0.964-4.841-0.964-4.841-2.741-4.107c-4.079-2.723-4.14-2.748-8.948-3.705h-169.576c-15.371 0.053-30.656 2.67-44.98 8.027-0.392-20.88-1.698-42.254 0.85-62.6 2.523-20.121 22.434-34.715 44.39-35.416 3.211-0.104 6.423-0.101 9.634-0.101h210.294c4.811-0.957 4.871-0.982 8.948-3.705l2.741-4.107 0.964-4.841-0.964-4.841-2.741-4.107-4.107-2.741-4.841-0.964c-71.238 0-142.475-0.144-213.715 0.005-25.261 0.111-50.777 9.313-64.665 29.026-10.31 14.632-11.978 33.212-12.415 52.154-0.45 19.58 0.435 39.106 0.526 58.754l0.005 2.548 1.030 4.99 2.915 4.178 4.33 2.69 5.036 0.764c1.645-0.428 3.287-0.855 4.932-1.283zM208.298 577.167c1.369-0.914 2.943-1.579 4.107-2.743 3.206-3.204 2.872-4.758 3.705-8.946-0.003-108.64-0.015-217.298-0.253-325.959v-5.555l-0.964-4.841-2.741-4.107c-4.077-2.723-4.138-2.748-8.948-3.705l-4.841 0.964-4.107 2.741-2.741 4.107c-1.025 5.15-0.964 5.17-0.964 10.421 0.238 108.618 0.251 217.286 0.253 325.934l0.964 4.841c0.914 1.369 1.579 2.943 2.743 4.107 3.204 3.206 4.758 2.872 8.946 3.705 1.615-0.321 3.229-0.643 4.841-0.964zM754.661 698.499c63.909-8.974 127.81-17.537 191.916-26.405 2.832-0.42 3.48-0.597 5.142-1.027 17.135-4.444 29.646-20.832 29.907-39.311 0.38-76.901 0.6-152.884-0.261-229.4-1.076-62.568-52.645-118.846-117.265-122.389-8.503-0.466-17.312-0.22-26.040-0.243-94.218-0.195-188.28-0.205-282.338-0.208l-4.841 0.964c-4.079 2.723-4.125 2.771-6.848 6.848l-0.964 4.841 0.964 4.841 2.741 4.105 4.107 2.743 4.841 0.964c100.547 0.003 201.166-0.053 301.802 0.256 50.367 0.458 97.584 42.052 98.538 97.637 0.853 75.957 1.346 152.266 0.256 229.038-0.17 7.139-5.327 14.103-13.329 15.29-63.603 8.799-127.714 17.388-191.868 26.4l-3.33 0.473c-4.626 1.622-4.684 1.655-8.338 4.927l-2.138 4.449c-0.271 4.897-0.261 4.96 1.364 9.589l3.292 3.68 4.449 2.138 4.93 0.271c1.103-0.157 2.207-0.314 3.313-0.471zM100.29 889.681c32.524-13.635 65.027-27.561 97.673-40.991 2.323-0.987 2.596-1.151 3.748-1.761 8.913-4.73 14.242-14.377 14.397-24.838 0.334-69.793-0.251-139.691-0.251-209.542l-0.964-4.844c-2.723-4.077-2.771-4.122-6.848-6.845l-4.841-0.964c-1.615 0.321-3.323 0.334-4.841 0.964-4.191 1.733-4.477 3.295-6.848 6.848l-0.964 4.841c0 69.843 0.582 139.934 0.251 209.297-0.003 0.309-0.013 0.62-0.028 0.929-0.182 3.060-2.333 2.467-2.333 2.467-30.598 13-61.231 25.681-91.822 38.539l-6.111 2.564-4.095 2.761c-2.705 4.090-2.731 4.15-3.667 8.961l0.984 4.839c2.389 3.543 2.68 5.102 6.876 6.82 3.017 1.232 6.428 0.62 9.685-0.043zM703.613 706.425c1.217-0.063 3.644-0.321 2.24-0.248 0 0 4.755-1.055 4.755-1.055 4.021-2.804 4.067-2.852 6.711-6.982l0.868-4.859c-1.050-4.791-1.078-4.851-3.882-8.872l-4.158-2.662-5.218-0.86c-1.217 0.063-3.644 0.321-2.24 0.245 0 0-4.755 1.058-4.755 1.058-4.021 2.804-4.067 2.852-6.711 6.982l-0.868 4.859c1.050 4.791 1.078 4.851 3.882 8.872l4.158 2.662 4.859 0.868c0.121-0.003 0.24-0.005 0.359-0.008zM417.081 745.24c80.161-10.988 160.696-21.609 240.221-33.215 3.138-0.458 6.187-1.258 9.169-2.318l3.664-3.31 2.118-4.459 0.251-4.93-1.655-4.651-3.31-3.664c-1.485-0.706-2.862-1.716-4.459-2.118-7.498-1.893-14.954 1.215-22.948 2.356-75.537 10.702-150.96 20.885-226.48 31.236l-11.482 1.569-4.667 1.609-3.697 3.275-2.161 4.436-0.299 4.93 1.609 4.667 3.275 3.697 4.436 2.161 4.93 0.299c3.829-0.524 7.655-1.045 11.484-1.569zM93.278 952.411c48.409-20.655 96.62-41.662 145.406-61.702 11.499-4.844 23.036-11.277 27.991-22.991 3.211-7.594 3.568-16.049 3.591-24.104v-77.799c24.15-3.33 48.264-6.797 72.351-10.153l4.661-1.622 3.687-3.282 2.151-4.444 0.286-4.93-1.622-4.661-3.282-3.687-4.444-2.151-4.93-0.286c-27.736 3.862-55.449 7.865-83.215 11.633l-4.294 1.399c-3.070 2.447-4.398 2.832-5.848 6.694-0.529 1.412-0.539 2.963-0.807 4.446 0 29.912 0.084 59.824-0.003 89.736-0.073 8.040-0.617 15.488-9.991 20.134-23.492 11.646-49.355 20.766-74.403 31.474-21.442 9.171-42.882 18.352-64.326 27.518l-10.51 4.487h-7.615c-8.065-4.644-15.161-13.187-9.098-22.52 1.361-2.095 3.897-3.892 3.897-3.892l3.373-3.606 1.739-4.621-0.164-4.935c-1.764-3.89-1.794-5.476-5.646-7.868-1.397-0.868-3.080-1.159-4.621-1.739l-4.935 0.164-4.494 2.040c-17.213 12.347-22.659 39.030-8.25 56.297 5.188 6.215 12 10.856 19.17 14.569l2.824 1.058 2.994 0.359h13.412c1.655-0.339 3.31-0.676 4.965-1.015zM831.243 134.508c40.543-0.38 76.893-40.842 65.827-84.703-8.918-35.353-49.702-59.399-85.551-48.517-34.849 10.581-57.552 52.273-44.982 87.472 9.272 25.964 35.199 45.043 63.284 45.739 0.476 0.008 0.949 0.013 1.422 0.010zM830.633 109.201c-29.173-0.529-53.283-36.231-36.545-64.253 10.482-17.545 34.326-25.899 53.197-18.119 20.615 8.5 32.526 34.718 23.181 56.509-6.446 15.027-22.032 25.489-38.817 25.858-0.339 0.005-0.676 0.008-1.015 0.005zM396.064 134.515c30.778-0.375 59.594-23.811 65.713-54.538 6.005-30.153-10.975-63.522-39.453-75.924-31.932-13.908-73.588 1.303-88.775 33.167-11.995 25.167-6.311 57.532 13.516 77.316 12.595 12.567 30.183 19.855 48.123 19.982 0.294 0 0.585 0 0.876-0.003zM395.284 109.212c-23.672-0.167-45.384-21.941-42.803-47.158 2.108-20.597 21.111-38.152 41.864-38.385 19.526-0.218 38.329 14.22 42.489 33.647 5.185 24.213-13.534 51.048-40.171 51.878-0.461 0.013-0.919 0.018-1.379 0.018z" />
<glyph unicode="&#xe957;" glyph-name="iconfinder_Reload_2134660" d="M512.268 839.929c117.076-0.493 231.654-55.818 304.641-147.122 39.846-49.845 67.266-109.874 78.943-172.523l0.194-1.055c-0.061-3.93-0.072-3.985-1.629-7.593l-2.84-2.756-3.678-1.461-3.959 0.061c-3.608 1.556-3.652 1.588-6.391 4.408l-1.461 3.678c-25.603 139.572-133.405 255.48-269.308 291.637-101.251 26.937-213.719 8.672-301.195-49.665-100.712-67.159-165.225-183.887-165.422-308.89l-0.78-3.878c-2.188-3.266-2.226-3.304-5.498-5.484l-3.881-0.765-3.881 0.78-3.29 2.203c-2.791 4.194-2.985 9.645-2.887 14.738 1.988 104.721 48.424 208.328 125.516 279.667 70.689 65.411 166.344 103.251 263.149 104.016 1.22 0.006 2.437 0.009 3.655 0.006zM602.434 85.855c0.959-0.907 2.113-1.64 2.878-2.716 2.107-2.965 1.635-4.147 1.736-7.57l-1.409-3.698c-5.852-6.199-17.3-7.002-27.658-8.788-24.285-4.179-48.961-6.011-73.57-5.628l-1.658 0.032-3.866 0.852-3.243 2.269-2.127 3.336-0.693 3.898 0.855 3.863c2.252 3.223 2.293 3.258 5.605 5.373l3.898 0.69c0.878-0.017 1.756-0.032 2.635-0.046 29.815-0.38 59.896 2.765 88.963 9.425l3.956 0.116c1.232-0.47 2.466-0.939 3.698-1.409zM401.015 94.3c3.623-1.122 3.116-0.954 3.73-1.136 0.649-0.194 1.298-0.385 1.948-0.577 2.266-0.661 5.399-1.536 5.399-1.536 3.513-1.765 3.553-1.797 6.121-4.773l1.243-3.759-0.29-3.947-1.78-3.536c-2.974-2.568-3.020-2.594-6.753-3.829l-3.947 0.29c-3.907 1.081-7.796 2.226-11.668 3.423l-3.481 1.884c-2.475 3.052-2.501 3.101-3.62 6.869l0.409 3.936 1.884 3.481 3.075 2.493 3.794 1.13c1.313-0.139 2.623-0.275 3.936-0.412zM668.117 109.073c3.313-2.113 3.353-2.151 5.605-5.371l0.855-3.866-0.69-3.895-2.13-3.339c-3.985-2.788-9.364-4.939-14.451-6.988l-3.889-0.736c-3.35 0.698-4.597 0.443-7.144 3.037-0.925 0.942-1.443 2.208-2.168 3.313l-0.736 3.889c0.545 2.608 1.174 5.313 3.040 7.144 3.037 2.979 7.64 3.916 12.248 5.904l1.698 0.745 3.863 0.852c1.301-0.229 2.6-0.458 3.898-0.69zM267.161 168.151c6.162-3.452 11.529-8.721 17.375-13.236 19.604-15.149 40.732-28.316 62.98-39.289l3.139-2.411c1.965-3.405 1.982-3.455 2.495-7.353l-1.026-3.823-2.408-3.139-3.429-1.98-3.924-0.516-3.823 1.026c-29.015 14.315-56.201 32.203-80.99 53.265l-2.565 3.205-1.072 3.808c0.461 3.904 0.478 3.953 2.4 7.385l3.107 2.449 3.808 1.075c1.31-0.157 2.623-0.31 3.933-0.467zM815.060 224.914l3.536-1.777 2.588-2.994 1.246-3.756-0.287-3.947c-4.582-9.127-12.515-17.001-19.804-25.116-15.396-17.143-32.313-32.91-50.488-47.146l-3.533-1.788c-3.918-0.296-3.974-0.29-7.707 0.936l-3.003 2.579-1.785 3.533-0.299 3.947 1.235 3.759 2.579 3.003c24.177 18.94 46.045 40.848 65.020 65.22l2.994 2.588 3.756 1.246c1.316-0.096 2.632-0.191 3.95-0.287zM195.483 247.976l3.652-1.527 2.785-2.811c0.559-0.841 1.122-1.675 1.687-2.513 1.982-2.924 4.84-6.988 4.84-6.988l1.617-3.611 0.113-3.956-1.411-3.698-2.719-2.878c-3.588-1.606-3.64-1.617-7.57-1.727l-3.698 1.411c-3.846 3.634-6.765 8.243-9.727 12.692l-0.043 0.064c-1.49 3.637-1.501 3.69-1.484 7.62l1.527 3.652 2.811 2.788 3.661 1.501c1.319-0.006 2.64-0.012 3.959-0.017zM855.146 284.048c3.078-2.446 3.113-2.487 5.020-5.921l0.449-3.933c-1.296-4.533-3.687-8.837-5.999-13.077l-0.803-1.461-2.553-3.023c-3.495-1.803-3.545-1.817-7.463-2.148l-3.771 1.203-3.023 2.556-1.814 3.516-0.333 3.945 1.203 3.771c0.255 0.458 0.507 0.919 0.759 1.38 1.069 1.953 1.464 2.698 2.13 3.947 0.855 1.617 1.701 3.237 2.539 4.863l2.461 3.098 3.461 1.922 3.933 0.449c1.267-0.362 2.536-0.725 3.805-1.087zM138.344 389.85c3.608-1.556 3.652-1.588 6.391-4.408l1.461-3.678c5.591-30.481 14.926-59.948 27.65-87.754l0.933-3.872-0.62-3.907c-2.055-3.353-2.090-3.391-5.272-5.701l-3.849-0.925-3.907 0.62-3.376 2.069c-0.93 1.281-2.304 3.156-2.348 3.249-0.145 0.319-0.293 0.641-0.438 0.959-0.293 0.641-0.583 1.284-0.872 1.924-12.744 28.363-21.978 58.116-27.664 88.618l-0.133 5.014 1.568 3.634c2.82 2.736 2.866 2.765 6.518 4.217 1.322-0.020 2.64-0.041 3.959-0.061zM896.166 458.029l3.287-2.203 2.194-3.295c0.255-1.293 0.571-2.577 0.765-3.884 0.006-0.032-0.009-2.487-0.009-2.513-0.012-2.101-0.043-4.203-0.090-6.307-0.583-26.342-3.823-52.549-9.611-78.161l-1.609-3.617c-0.956-0.907-1.753-2.020-2.869-2.724-3.075-1.942-4.229-1.406-7.651-1.319l-3.617 1.609c-3.779 3.982-4.356 8.773-2.603 17.14 5.156 24.995 7.73 50.389 7.77 75.926l0.78 3.881c2.188 3.263 2.226 3.301 5.498 5.481l3.884 0.765c1.293-0.261 2.585-0.519 3.881-0.78zM242.311 568.508c7.159-2.037 9.985-11.419 4.852-17.048l-109.969-109.969c-4.029-3.672-10.225-3.756-14.346 0l-109.967 109.969c-7.793 8.55-2.174 13.065 1.44 15.543 3.861 2.643 9.356 2.040 12.906-1.197l102.793-102.796 102.796 102.796c0 0 3.368 2.806 6.704 2.959 1.788 0.084 2.217-0.151 2.791-0.258zM893.67 458.713c3.501-0.652 4.145-1.391 5.77-2.872l109.969-109.967c7.793-8.55 2.174-13.065-1.44-15.541-3.861-2.646-9.356-2.043-12.906 1.194l-102.796 102.793-102.796-102.793c0 0-6.834-4.626-12.109-1.69-4.907 2.733-6.631 9.93-3.432 14.596 0.47 0.69 0.635 0.826 1.194 1.44l109.969 109.967c3.423 3.119 3.559 3.339 8.576 2.872z" />
<glyph unicode="&#xe958;" glyph-name="clock-back" d="M122.251 437.553c-0.868 0-1.764 0.084-2.633 0.252-3.641 0.7-6.861 2.829-8.962 5.881l-100.794 148.432c-4.313 6.413-2.689 15.123 3.725 19.464 6.385 4.285 15.123 2.661 19.464-3.725l92.896-136.866 136.838 92.952c6.385 4.285 15.067 2.661 19.464-3.725 4.313-6.413 2.689-15.123-3.725-19.464l-148.432-100.822c-2.325-1.568-5.069-2.381-7.842-2.381zM551.612 8.22c-147.536 0-284.962 73.068-367.636 195.454-4.341 6.413-2.661 15.123 3.753 19.436 6.385 4.341 15.095 2.661 19.436-3.753 77.465-114.685 206.209-183.132 344.447-183.132 229.034 0 415.358 186.324 415.358 415.358s-186.324 415.358-415.358 415.358c-229.034 0-415.358-186.353-415.358-415.358 0-7.73-6.273-14.003-14.003-14.003s-14.003 6.273-14.003 14.003c0 244.465 198.899 443.364 443.364 443.364s443.364-198.899 443.364-443.364c0-244.465-198.899-443.364-443.364-443.364zM685.397 275.986c-4.033 0-8.010 1.736-10.782 5.069l-133.785 161.595c-2.072 2.521-3.221 5.685-3.221 8.934v268.494c0 7.73 6.273 14.003 14.003 14.003s14.003-6.273 14.003-14.003v-263.481l130.564-157.674c4.957-5.965 4.089-14.787-1.82-19.716-2.633-2.156-5.825-3.221-8.962-3.221z" />
<glyph unicode="&#xe959;" glyph-name="create-user" d="M513.276 861.565c187.84-3.563 341.925-224.868 256.311-408.037-75.743-162.175-319.679-215.19-455.419-88.792-89.562 83.351-116.527 227.035-61.634 337.447 47.766 96.111 151.196 160.056 260.741 159.382zM506.294 827.859c-166.412-3.178-301.718-198.529-226.265-360.078 78.295-167.616 365.279-188.755 456.382-5.537 74.202 149.222-43.914 357.767-217.068 365.471-4.334 0.096-8.715 0.193-13.049 0.144zM585.696 765.936c28.072-1.3 60.816-27.061 51.811-45.6-16.805-34.669-100.733 46.418-51.811 45.6zM510.483 781.585c19.453-1.733 21.524-32.743-9.871-33.947-88.744-5.586-160.056-81.906-164.294-174.261-2.552-22.583-38.81-26.098-31.973 27.639 12.423 98.133 102.178 182.736 206.137 180.569zM804.69 223.748c109.738-2.552 195.014-110.364 196.363-215.912 0 0-30.432-47.526-34.236 12.568-7.656 87.492-75.55 167.616-162.656 169.638-197.133 1.541-394.266 2.504-591.351-0.048-90.718-3.515-159.864-90.236-161.019-182.591 0 0-35.054-32.358-33.465 10.545 6.452 104.971 86.336 201.611 193.618 205.752 197.566 2.552 395.181 1.589 592.747 0.048zM914.138 902.879c8.234-0.77 15.023-7.223 15.794-15.794 1.637-53.834 1.637-107.715 0-161.549-1.541-17.286-31.925-18.972-33.61 0-1.637 53.834-1.637 107.715 0 161.549 0.819 9.39 6.5 16.131 17.816 15.794zM993.878 823.14c16.998-1.541 20.753-31.78 0-33.658-53.785-1.637-107.715-1.637-161.501 0-17.335 1.589-18.972 31.925 0 33.658 53.785 1.589 107.715 1.589 161.501 0z" />
<glyph unicode="&#xe95a;" glyph-name="folder-3" d="M1002.201 647.451h-897.759c-8.897 0-16.108-7.211-16.108-16.108 0-8.899 7.213-16.108 16.108-16.108h881.649v-521.57c0-30.539-24.842-55.381-55.381-55.381h-839.981c-30.537 0-55.381 24.842-55.381 55.381v707.589c0 26.936 21.914 48.851 48.85 48.851h246.97c26.936 0 48.85-21.916 48.85-48.851v-14.308c0-31.843 25.905-57.746 57.746-57.746h493.091c24.535 0 46.375-16.451 53.11-40.006 2.447-8.554 11.367-13.509 19.919-11.058 8.554 2.445 13.505 11.365 11.058 19.919-10.669 37.308-45.249 63.363-84.087 63.363h-493.089c-14.076 0-25.528 11.452-25.528 25.528v14.308c0 44.702-36.366 81.070-81.068 81.070h-246.972c-44.702-0.004-81.068-36.37-81.068-81.070v-707.591c0-48.302 39.297-87.599 87.599-87.599h839.981c48.302 0 87.599 39.297 87.599 87.599v537.678c0 8.897-7.213 16.11-16.108 16.11z" />
<glyph unicode="&#xe95b;" glyph-name="plus" d="M661.833 932.591c-48.404 14.976-98.878 22.568-150.019 22.568-135.417 0-262.729-52.735-358.484-148.488-95.755-95.757-148.49-223.068-148.49-358.485 0-217.814 138.576-410.908 344.825-480.484 1.578-0.533 3.18-0.784 4.759-0.784 6.21 0 12.005 3.917 14.098 10.128 2.63 7.789-1.555 16.231-9.341 18.859-194.141 65.491-324.578 247.248-324.578 452.281 0 127.466 49.64 247.306 139.772 337.438s209.972 139.77 337.438 139.77c48.157 0 95.669-7.145 141.222-21.237 7.86-2.434 16.187 1.967 18.615 9.819 2.43 7.852-1.967 16.187-9.819 18.615zM936.549 725.098c-52.416 80.24-126.020 143.794-212.855 183.794-7.466 3.442-16.304 0.174-19.742-7.292s-0.174-16.304 7.292-19.742c81.743-37.655 151.038-97.489 200.389-173.038 50.632-77.506 77.393-167.632 77.393-260.636 0-127.466-49.638-247.304-139.772-337.438-90.132-90.13-209.972-139.768-337.438-139.768-30.242 0-60.5 2.846-89.932 8.458-8.070 1.551-15.867-3.755-17.405-11.831-1.539-8.074 3.757-15.869 11.831-17.407 31.266-5.961 63.399-8.985 95.507-8.985 135.417 0 262.729 52.733 358.485 148.488 95.753 95.757 148.488 223.068 148.488 358.485 0 98.798-28.438 194.553-82.239 276.912zM702.704 463.068h-176.007v176.007c0 8.219-6.662 14.882-14.882 14.882s-14.882-6.662-14.882-14.882v-176.007h-176.005c-8.219 0-14.882-6.662-14.882-14.882 0-8.219 6.662-14.882 14.882-14.882h176.007v-176.005c-0.002-8.22 6.662-14.882 14.88-14.882s14.882 6.662 14.882 14.882v176.005h176.007c8.219 0 14.882 6.664 14.882 14.882s-6.662 14.882-14.882 14.882z" />
</font>
</defs>
</svg>
